<?xml version="1.0" encoding="UTF-8" standalone="no"?>
<!-- Created with Inkscape (http://www.inkscape.org/) -->

<svg
   width="512"
   height="512"
   viewBox="0 0 512 512"
   version="1.1"
   id="svg1"
   xml:space="preserve"
   inkscape:version="1.4.2 (f4327f4, 2025-05-13)"
   sodipodi:docname="email.svg"
   xmlns:inkscape="http://www.inkscape.org/namespaces/inkscape"
   xmlns:sodipodi="http://sodipodi.sourceforge.net/DTD/sodipodi-0.dtd"
   xmlns="http://www.w3.org/2000/svg"
   xmlns:svg="http://www.w3.org/2000/svg"><sodipodi:namedview
     id="namedview1"
     pagecolor="#ffffff"
     bordercolor="#000000"
     borderopacity="0.25"
     inkscape:showpageshadow="2"
     inkscape:pageopacity="0.0"
     inkscape:pagecheckerboard="0"
     inkscape:deskcolor="#d1d1d1"
     inkscape:document-units="px"
     inkscape:zoom="1.5097656"
     inkscape:cx="255.66882"
     inkscape:cy="256"
     inkscape:window-width="1920"
     inkscape:window-height="991"
     inkscape:window-x="-9"
     inkscape:window-y="-9"
     inkscape:window-maximized="1"
     inkscape:current-layer="layer1" /><defs
     id="defs1" /><g
     inkscape:label="Layer 1"
     inkscape:groupmode="layer"
     id="layer1"><path
       style="fill:#ff6600"
       id="path1"
       d="m 72.989274,382.41823 c 4.639211,2.6781 9.278421,5.35621 13.917631,8.03431 0.538947,0.29598 2.148906,1.19613 1.616841,0.88795 -3.009326,-1.74307 -30.870366,-17.72363 3.722809,2.15057 1.172373,0.67354 2.253097,1.27407 3.430629,1.93294 2.596419,1.35119 5.245986,2.59549 7.830766,3.96817 2.20289,0.98205 4.36669,2.04192 6.6239,2.90607 0.32871,0.10329 0.64889,0.23923 0.98614,0.30987 1.40266,0.29381 2.8772,0.35696 4.29297,0.56411 1.04723,0.15322 2.08342,0.37437 3.12691,0.55128 3.02039,0.59019 6.10427,0.55266 9.16689,0.63245 3.08617,0.11852 6.1033,0.7112 9.14785,1.14274 4.13,0.47288 8.22118,1.20594 12.34397,1.7385 3.60456,0.50361 7.25175,0.3943 10.8807,0.42052 5.64888,-0.027 11.28976,-0.10856 16.93337,0.17233 6.07809,0.49387 12.16526,0.79921 18.25904,1.00912 4.49381,0.20191 8.99226,0.1391 13.48861,0.10312 5.54857,-0.0917 11.09732,0.0171 16.64583,0.0141 4.37447,0.15838 8.7334,-0.0989 13.09868,-0.32933 4.99614,-0.34343 9.96837,-0.9365 14.96297,-1.29768 4.03472,-0.13184 8.05581,-0.39344 12.08216,-0.6728 6.04148,-0.33784 12.05842,-0.96563 18.10092,-1.30296 3.64687,-0.31465 7.30205,-0.53417 10.91944,-1.1021 3.89575,-0.52962 7.84707,-0.55156 11.77256,-0.59681 5.03053,0.01 9.99469,-0.7187 14.97553,-1.30572 4.8553,-0.79284 9.72259,-1.49935 14.5858,-2.23985 5.35711,-0.92802 10.75797,-1.62111 16.15743,-2.26362 2.15334,-0.27686 4.34795,-0.3953 6.48594,-0.79214 1.66305,-0.30868 3.30785,-0.79565 4.96551,-1.14309 2.41525,-0.64966 4.8494,-1.27132 7.15547,-2.24842 2.06574,-1.29104 3.95594,-2.86286 5.81868,-4.43153 1.40909,-0.92505 2.69335,-1.96563 3.9433,-3.09294 0.92434,-1.20333 1.82448,-2.43612 2.70145,-3.68146 1.36643,-1.74652 2.44194,-3.68441 3.593,-5.57232 1.1035,-1.88349 1.63062,-4.03449 2.28284,-6.10312 1.10992,-2.57609 1.55109,-5.28287 1.87436,-8.04828 0.29668,-2.86218 0.47248,-5.73342 0.5553,-8.60902 0.0647,-2.22511 -0.0211,-4.45009 0.0248,-6.67515 -0.0333,-3.91117 1.11882,-7.64228 2.21774,-11.34879 1.06607,-3.34428 1.9136,-6.745 2.50748,-10.20387 0.50783,-4.61256 0.33878,-9.27988 0.38103,-13.9165 0.0286,-4.36847 0.10103,-8.73772 0.0531,-13.10621 -0.0457,-6.15837 -0.17181,-12.31422 -0.22185,-18.47262 4.2e-4,-6.0151 0.0677,-12.04363 -0.51687,-18.03604 -0.64187,-4.65275 -1.66813,-9.24167 -2.84776,-13.78424 -0.75373,-3.1406 -1.73866,-6.21724 -2.55047,-9.34254 -0.68836,-3.208 -1.52858,-6.37868 -2.28488,-9.57193 -0.76795,-3.42719 -1.88289,-6.72934 -3.25749,-9.95528 -1.12244,-2.31925 -2.20666,-4.65652 -3.31254,-6.98367 -0.7112,-1.35097 -1.4148,-2.70846 -2.01474,-4.11293 -0.86567,-1.90628 -1.74416,-3.8046 -2.69587,-5.66976 -0.97862,-1.88081 -2.14563,-3.67457 -3.38407,-5.39555 -0.88279,-1.34714 -2.04548,-2.41906 -3.28052,-3.4342 -4.47468,-2.60264 -8.94937,-5.20529 -13.42405,-7.80794 -0.23673,-0.12453 -0.94171,-0.50755 -0.71018,-0.37359 4.0135,2.32221 16.09997,9.20852 12.05664,6.93865 -13.87894,-7.79145 -8.79105,-5.94612 -15.27862,-8.34452 -2.86673,-0.94989 -5.64809,-1.79909 -8.60887,-2.40557 -4.58144,-0.69026 -9.23492,-0.73898 -13.85876,-0.8677 -4.31715,-0.0959 -8.63574,-0.0955 -12.95371,-0.0868 -4.80012,-0.24672 -9.6014,-0.44908 -14.40322,-0.66873 -6.7803,-0.4659 -13.57939,-0.34307 -20.36731,-0.56275 -7.21969,-0.4135 -14.44964,-0.49813 -21.67917,-0.51674 -8.36067,0.0141 -16.72095,-0.0328 -25.08083,-0.14439 -7.93912,-0.0515 -15.87695,0.13497 -23.81671,0.16352 -9.98151,0.0465 -19.96379,-0.11858 -29.94434,0.0459 -6.58633,0.13952 -13.17273,0.16479 -19.75011,0.54902 -4.17269,0.28509 -8.35324,0.38832 -12.53437,0.42909 -6.0823,0.71797 -12.19773,1.10617 -18.28795,1.73921 -3.68,0.52594 -7.35334,1.10824 -11.05877,1.42532 -2.54952,0.49051 -5.01546,1.33549 -7.47416,2.16029 -3.53327,1.12271 -7.13145,2.03755 -10.71345,2.994 -2.24836,0.64733 -4.468099,1.2753 -6.598816,2.24847 -0.967281,0.44601 -1.829894,1.07323 -2.773716,1.56226 -0.562597,0.2915 -1.157108,0.48704 -1.657283,0.89639 -0.40086,0.32806 -0.738046,0.72701 -1.10707,1.09051 -2.964136,3.58714 -5.964414,7.14057 -8.91356,10.73909 -1.773756,2.095 -2.954564,4.5784 -4.165158,7.01818 -1.070661,2.14449 -2.261969,4.21964 -3.203571,6.42843 -0.827125,1.98221 -1.099038,4.12651 -1.585732,6.202 -0.120389,0.5134 -0.909643,3.44011 -1.049524,3.96164 -0.939364,3.44637 -1.953854,6.86659 -2.824191,10.33169 -0.801311,3.06685 -1.192136,6.21208 -1.439928,9.36508 -0.149206,2.08534 -0.171308,4.17712 -0.158622,6.26687 0.09462,2.83288 0.05497,5.66717 0.06869,8.50091 0.153198,4.83655 0.166025,9.67514 0.119352,14.51335 0.01211,5.47398 0.08441,10.94728 0.0329,16.42178 -0.03361,3.38254 -0.168954,6.76361 -0.168238,10.14639 0.145846,4.68975 0.518221,9.37618 0.846341,14.05781 0.597417,5.78285 0.842819,11.5882 1.157638,17.38977 0.191832,3.31102 0.877418,6.53776 1.719716,9.73323 0.582647,2.15225 0.911467,4.35948 1.303768,6.55083 0.758717,3.13893 1.129502,6.34152 1.410693,9.55184 0.343625,3.2594 0.775431,6.51232 1.257594,9.75432 0.36151,2.59421 1.439093,4.9619 2.661853,7.24794 1.118012,1.92976 2.565981,3.6483 3.959582,5.38334 1.203071,1.20717 2.163225,2.59038 3.123666,3.98545 1.299477,1.5208 2.863299,2.78705 4.412107,4.0431 5.210955,4.36907 11.19129,7.66059 17.648259,9.52656 0.94761,0.27225 1.91916,0.42926 2.89183,0.57596 0,0 -11.880082,-8.95755 -11.880082,-8.95755 v 0 c -0.924583,-0.19364 -1.84735,-0.39757 -2.742386,-0.70588 -0.906381,-0.31521 -1.832714,-0.61806 -2.693531,-1.04853 -0.222188,-0.11111 -0.862211,-0.49394 -0.647761,-0.36854 12.46595,7.28929 15.87887,9.46134 11.2098,6.50745 -1.52411,-1.19363 -3.101278,-2.3644 -4.428874,-3.77256 -1.302517,-1.12351 -1.862381,-2.8884 -3.196466,-4.0194 -1.528694,-1.54655 -2.788413,-3.36867 -4.108361,-5.09056 -1.246085,-2.16373 -2.546239,-4.32044 -2.964995,-6.82668 -0.571953,-3.19689 -1.05431,-6.42717 -1.352921,-9.65926 -0.207854,-3.23861 -0.679066,-6.4552 -1.263694,-9.64639 -0.398987,-2.2266 -0.667508,-4.48416 -1.232273,-6.67529 -0.941542,-3.15782 -1.835748,-6.30801 -2.128561,-9.61066 -0.572749,-5.80302 -0.727366,-11.64207 -1.309633,-17.44597 -0.266512,-4.5867 -0.529811,-9.17711 -0.490832,-13.77371 7.39e-4,-3.43989 -0.135096,-6.87813 -0.168153,-10.31778 -0.05085,-5.46333 0.02039,-10.92544 0.03303,-16.38823 -0.04608,-4.799 -0.03621,-9.59837 0.114419,-14.39577 0.0084,-2.81566 -0.04072,-5.63167 0.04,-8.44681 0.0056,-2.07419 -0.02806,-4.14879 0.04096,-6.22235 0.135894,-3.088 0.438569,-6.17429 1.204309,-9.17786 0.88884,-3.45975 1.875344,-6.8906 2.757028,-10.35235 0.858304,-3.30054 1.699702,-6.61761 2.70408,-9.87237 0.961303,-2.17655 2.144547,-4.22835 3.18777,-6.36408 1.125505,-2.36608 2.285745,-4.7296 3.857439,-6.83953 2.720977,-3.6654 5.572832,-7.26007 8.865068,-10.43487 1.66258,-1.23387 3.53234,-2.17904 5.37654,-3.11485 2.07991,-0.8469 4.23204,-1.48323 6.37221,-2.159 3.55836,-1.03383 7.1368,-1.99573 10.68162,-3.07604 2.45269,-0.72682 4.93297,-1.41467 7.46137,-1.82031 3.58242,-0.49592 7.13308,-1.19433 10.71922,-1.6666 6.11816,-0.73381 12.26486,-1.29834 18.42636,-1.47562 4.14358,-0.12055 8.28629,-0.29579 12.42147,-0.59054 6.39974,-0.44711 12.81371,-0.62798 19.22459,-0.84543 9.93494,-0.17311 19.87285,-0.0773 29.80894,-0.11538 8.08563,0.0268 16.16964,0.20764 24.25463,0.15543 8.28636,-0.1092 16.5739,-0.14141 24.86021,0.002 7.24849,0.13619 14.49408,0.34998 21.73968,0.59424 6.83322,0.18805 13.66959,0.30009 20.49514,0.69928 4.88929,0.30668 9.77689,0.66862 14.67644,0.77017 4.28689,0.003 8.57418,-0.0146 12.86055,0.0671 4.6367,0.11307 9.31379,0.23406 13.86326,1.22177 2.91214,0.699 5.77782,1.59606 8.57492,2.6672 0.35071,0.14472 0.70725,0.27603 1.05212,0.43416 0.24731,0.1134 0.95779,0.51631 0.72258,0.37958 -4.01561,-2.33435 -16.10983,-9.25501 -12.06437,-6.97278 4.51067,2.54468 8.97189,5.17603 13.46007,7.76016 0.23074,0.13285 0.92642,0.52523 0.69664,0.39074 -4.00756,-2.34551 -8.02005,-4.68259 -12.03007,-7.02389 0.7186,0.42807 1.24473,0.90453 1.87978,1.433 0.59565,0.49568 1.22433,0.86828 1.57917,1.60687 0.65253,0.75933 1.17344,1.50939 1.7214,2.34589 0.41757,0.63748 0.93186,1.20933 1.33401,1.85664 0.19343,0.31135 0.33218,0.6535 0.49828,0.98024 0.99829,1.797 1.80308,3.68339 2.68844,5.53233 0.62111,1.4279 1.16304,2.88706 1.94837,4.23936 1.39572,2.20885 2.25957,4.72957 3.60458,6.97332 1.42489,3.13284 2.53178,6.37244 3.3499,9.71588 0.79984,3.17296 1.5184,6.36373 2.20361,9.55906 0.83156,3.16025 1.77554,6.28435 2.68626,9.42194 1.26382,4.4741 2.37029,9.00163 2.99039,13.61617 0.83474,5.98112 0.94154,12.04925 0.97944,18.07997 -0.0487,6.08637 -0.17561,12.1701 -0.20651,18.25657 -0.0359,4.38656 0.0646,8.77317 0.0716,13.15982 -8e-4,4.53541 -0.002,9.08252 -0.52585,13.59458 -0.4828,3.43685 -1.33686,6.76415 -2.34623,10.08085 -1.06819,3.80301 -2.27166,7.61405 -2.48094,11.58765 -0.18859,2.22393 -0.15304,4.45326 -0.13465,6.68418 0.004,2.85549 -0.0304,5.71599 -0.31484,8.55977 -0.32301,2.66313 -0.87441,5.23418 -1.90177,7.72334 -0.61193,1.95863 -1.13925,3.99151 -2.16406,5.77914 -1.07212,1.87562 -2.09903,3.7965 -3.50217,5.45244 -0.8703,1.13121 -1.75125,2.25673 -2.62767,3.37417 -1.21899,1.10286 -2.46874,2.14415 -3.7846,3.13228 -1.75009,1.47874 -3.55284,2.98038 -5.61067,4.00594 -2.24397,0.85843 -4.54437,1.57406 -6.88075,2.13587 -3.68125,0.84075 -7.36372,1.65025 -11.13318,2.00368 -5.42394,0.75767 -10.87845,1.28792 -16.27372,2.22869 -4.85368,0.7797 -9.71248,1.52916 -14.58463,2.18444 -4.90259,0.63958 -9.80873,1.29356 -14.76647,1.2577 -4.07539,0.0534 -8.19647,-0.1021 -12.23407,0.5349 -3.45643,0.58406 -6.95757,0.8802 -10.43901,1.27199 -6.09442,0.46248 -12.18854,0.98878 -18.30029,1.15195 -4.01351,0.2139 -8.02336,0.50413 -12.03607,0.73414 -4.97869,0.40776 -9.93714,1.05279 -14.93132,1.26604 -4.35233,0.1757 -8.70247,0.32529 -13.0596,0.27533 -5.52851,0.002 -11.05719,0.12012 -16.58582,0.0274 -4.49362,-0.0416 -8.987,-0.0952 -13.48049,-0.14863 -6.00634,-0.14756 -12.00208,-0.50151 -17.99931,-0.85494 -5.76853,-0.28973 -11.53677,-0.38414 -17.31245,-0.37732 -3.61723,-0.0415 -7.23726,-0.14642 -10.83102,-0.5945 -4.12485,-0.50819 -8.21782,-1.22887 -12.33536,-1.79124 -3.07594,-0.54273 -6.17061,-0.93953 -9.29814,-1.01201 -3.03647,-0.0746 -6.06853,-0.25591 -9.06104,-0.81057 -2.78565,-0.45869 -5.66217,-0.69142 -8.301216,-1.75255 -2.188349,-0.93596 -4.359558,-1.91399 -6.490232,-2.97557 -2.568472,-1.29471 -5.156636,-2.55231 -7.689606,-3.91556 -0.541631,-0.30275 -1.083539,-0.605 -1.624892,-0.90824 -0.581653,-0.32582 -2.319841,-1.31515 -1.744127,-0.97894 3.510955,2.05031 14.068023,8.15968 10.550065,6.1214 -4.777507,-2.76805 -9.549244,-5.54606 -14.328715,-8.31073 -0.572097,-0.33092 -2.296557,-1.30938 -1.725896,-0.97599 3.827323,2.23605 7.664018,4.45601 11.496028,6.68401 z" /><path
       style="fill:#ff6600"
       id="path2"
       d="m 96.869384,201.60283 c 3.315646,2.55891 6.227336,5.5647 9.122076,8.57668 2.78001,2.92798 5.552,5.86902 8.15074,8.96058 1.70817,2.17565 3.32401,4.41081 4.86441,6.70774 2.14329,3.0709 4.64638,5.87196 7.09019,8.70362 2.91331,3.36114 6.07326,6.49226 9.16549,9.68557 2.57093,2.60529 4.98729,5.35831 7.35794,8.14547 1.95928,2.54409 4.12434,4.90084 6.36907,7.19263 3.06218,3.04298 6.02958,6.17813 9.14743,9.16418 3.62875,3.30114 7.54413,6.26714 11.46649,9.20654 6.76423,5.04754 14.32558,8.88223 21.56122,13.17425 3.6796,2.18265 -7.41762,-4.26531 -11.12642,-6.39796 6.41449,4.33268 13.07906,8.29528 19.9906,11.79979 3.67381,1.97702 7.53106,3.51661 11.48452,4.82445 3.46375,1.18071 7.11068,1.51819 10.68178,2.19999 0.46429,0.0889 0.92316,0.21332 1.39287,0.26658 0.64692,0.0733 1.30004,0.0737 1.94995,0.11246 2.5921,0.1545 5.18193,0.29468 7.77682,0.39349 3.30857,0.10785 6.39652,-0.85007 9.503,-1.84545 3.45205,-1.39406 7.07441,-2.28698 10.5716,-3.54991 3.99013,-1.20175 8.00986,-2.26229 11.94279,-3.6525 4.84873,-2.1333 8.87945,-5.53625 12.57467,-9.2593 3.70128,-4.03107 7.48307,-7.98165 11.29471,-11.90729 3.89748,-4.10354 7.69216,-8.29731 11.85571,-12.13595 4.19133,-3.93096 8.95509,-7.15674 13.46723,-10.69214 3.98961,-3.3281 7.72182,-6.94357 11.44266,-10.5647 4.34529,-4.16882 8.48532,-8.5466 12.47012,-13.06007 3.83899,-4.6037 8.73,-8.09673 13.22735,-12.00125 2.80354,-2.18462 5.53198,-4.49313 7.7691,-7.26692 1.85532,-2.18058 3.44982,-4.54046 4.89852,-7.00488 0.68769,-1.4497 1.81317,-2.67959 2.53216,-4.10628 0.37274,-0.73963 0.53813,-1.40383 0.77634,-2.18919 0.31521,-1.3711 0.17996,-0.69413 0.40995,-2.03006 0,0 -13.14172,-6.94294 -13.14172,-6.94294 v 0 c -0.1537,1.23636 -0.0574,0.61268 -0.29183,1.87059 -0.59494,2.20148 -1.90214,4.05409 -3.03066,6.01745 -1.43693,2.38974 -2.9854,4.71053 -4.82918,6.81083 -2.1345,2.70567 -4.71522,5.00791 -7.33257,7.23652 -4.46295,4.01491 -9.34662,7.58968 -13.24106,12.19969 -3.9726,4.4806 -8.05893,8.86942 -12.48155,12.91265 -3.74733,3.52061 -7.39981,7.14935 -11.33245,10.466 -4.54325,3.55434 -9.32342,6.82071 -13.51623,10.80456 -4.15551,3.89185 -7.99104,8.10181 -12.00191,12.13995 -3.76593,3.943 -7.41145,7.9944 -11.17601,11.9387 -3.63825,3.52957 -7.61729,6.75981 -12.39131,8.62432 -3.98246,1.42355 -8.0894,2.33564 -12.13555,3.54186 -3.42663,1.28504 -6.91627,2.39089 -10.37921,3.57248 -3.04274,0.85281 -6.11103,1.54323 -9.2971,1.41046 -3.68566,-0.0978 -7.38622,-0.23273 -11.01376,-0.94926 -3.5271,-0.55151 -7.05957,-1.12875 -10.44498,-2.30668 -3.91218,-1.3716 -7.70404,-3.035 -11.35263,-5.00983 -5.30073,-2.88573 -4.09413,-2.2509 9.30488,5.47849 0.37583,0.2168 -0.74242,-0.44967 -1.10422,-0.68914 -1.05815,-0.70039 -2.02245,-1.53419 -3.1214,-2.17506 -4.64136,-2.68924 -9.27274,-5.39577 -13.92407,-8.06772 -3.59393,-2.06452 7.15863,4.17961 10.75181,6.24543 0.64507,0.37086 -1.27771,-0.76323 -1.90699,-1.16029 -1.8674,-1.17829 -3.72411,-2.38581 -5.49989,-3.69877 -3.97225,-2.87052 -7.91624,-5.80291 -11.59938,-9.04087 -3.04736,-3.04468 -6.14694,-6.03486 -9.15005,-9.12698 -2.17427,-2.24513 -4.31668,-4.50346 -6.20568,-6.99839 -2.37797,-2.9281 -5.02643,-5.63782 -7.61851,-8.37374 -3.04052,-3.15437 -6.09971,-6.28695 -9.03446,-9.54029 -2.40297,-2.7975 -4.87054,-5.53622 -7.07845,-8.49422 -1.51543,-2.33938 -3.06209,-4.64052 -4.77396,-6.83792 -2.60513,-3.23392 -5.60843,-6.12218 -8.40541,-9.186 -2.77737,-2.91906 -5.48044,-5.91684 -8.55902,-8.52507 z" /><path
       style="fill:#ff6600"
       id="path3"
       d="m 166.10778,275.19531 c -1.99299,4.63182 -4.35982,9.10044 -6.96527,13.41474 -4.44601,6.39104 -10.98977,10.77672 -17.31356,15.1214 -4.28289,2.95326 -8.78745,5.58153 -12.95376,8.70467 -2.75541,2.06552 -3.01198,2.39473 -5.57954,4.69034 -0.88182,0.93772 -1.79381,1.84794 -2.64546,2.81314 -1.03097,1.16845 -4.39715,5.33954 -5.36632,6.52135 -2.43703,2.97173 -4.93267,5.89098 -7.35512,8.87458 -3.11713,4.20407 -6.47075,8.22059 -9.714566,12.32181 -2.24928,2.80122 -4.159434,5.84 -6.016805,8.90776 -1.77026,3.24418 -3.863526,6.29003 -6.016869,9.28757 -1.239272,1.60415 -2.177277,3.40803 -3.298103,5.08739 -0.829968,1.1263 -1.133877,2.44322 -1.380803,3.78907 -0.299385,1.66292 -0.616371,3.32439 -0.876329,4.99409 -0.207576,1.22746 -0.307993,2.45706 -0.26873,3.6999 0,0 13.342749,6.66933 13.342749,6.66933 v 0 c -0.147444,-1.14935 -0.185722,-2.26616 0.05596,-3.413 0.272838,-1.63654 0.620817,-3.25805 0.903205,-4.89246 0.281697,-1.15401 0.372404,-2.34262 1.112967,-3.33261 1.036932,-1.7069 1.948668,-3.49106 3.09385,-5.13362 2.079604,-3.07586 4.080494,-6.20336 5.945104,-9.41513 1.91117,-2.9681 3.79388,-5.95552 5.93758,-8.76522 3.24192,-4.08586 6.12989,-8.43221 9.35176,-12.53458 4.83192,-6.19396 9.70905,-12.40594 15.22247,-18.01071 2.42702,-2.1381 2.89402,-2.6326 5.47784,-4.57752 4.14213,-3.11789 8.59519,-5.78625 12.84995,-8.74127 6.49629,-4.47156 13.15644,-9.01477 17.81199,-15.51029 2.71095,-4.35817 5.06826,-8.91269 7.70391,-13.31593 z" /><path
       style="fill:#ff6600"
       id="path4"
       d="m 279.91691,268.66555 c 3.49298,2.50822 6.89477,5.14064 10.24922,7.83108 3.77709,3.02313 6.92034,6.70608 9.88168,10.50602 2.62225,3.076 4.45442,6.63206 6.23535,10.22658 1.90601,3.76576 3.78274,7.54235 5.77516,11.26419 1.56835,2.93068 3.20988,5.81873 4.98968,8.62614 1.67997,2.45447 3.49998,4.81023 5.22854,7.23088 1.95337,3.05845 3.96393,6.0769 6.02109,9.06641 1.57303,2.24139 3.18295,4.44953 4.69255,6.73479 2.30206,3.39669 3.826,7.21269 5.42029,10.96934 1.73928,3.87081 3.37243,7.7928 5.16918,11.63698 1.26637,2.71406 2.66339,5.35056 3.61859,8.19455 0.74661,2.32163 1.65368,4.58419 2.56713,6.84324 0.49616,1.50339 1.19115,2.93311 1.60818,4.46162 0.35397,1.30449 0.2558,2.60824 0.0783,3.92689 -0.14862,0.98358 -0.24621,1.97301 -0.32529,2.96419 0,0 13.25626,6.86818 13.25626,6.86818 v 0 c 0.0537,-0.96229 0.12154,-1.92419 0.2616,-2.87855 0.21135,-1.46631 0.49645,-2.90925 0.18858,-4.38901 -0.29863,-1.67533 -1.02819,-3.15192 -1.62421,-4.73193 -0.88257,-2.26214 -1.87516,-4.47418 -2.65457,-6.77683 -0.0876,-0.28222 -0.72684,-2.35876 -0.82903,-2.61934 -0.78651,-2.00556 -2.05039,-3.79393 -2.81848,-5.80876 -1.88285,-3.80417 -3.62347,-7.68573 -5.25731,-11.60288 -1.60396,-3.76659 -3.07435,-7.61898 -5.22638,-11.11962 -1.36565,-2.41139 -2.98814,-4.61448 -4.6721,-6.81223 -2.06715,-2.98771 -4.21473,-5.9271 -6.03474,-9.07715 -1.65113,-2.44672 -3.39042,-4.82015 -5.18035,-7.1653 -1.87384,-2.77626 -3.55607,-5.67303 -5.20412,-8.58685 -2.01341,-3.6938 -3.87824,-7.45799 -5.77072,-11.21193 -1.84082,-3.64515 -3.41737,-7.4379 -6.20501,-10.50503 -2.86906,-3.90656 -6.05768,-7.61435 -9.70595,-10.81764 -3.26327,-2.64338 -6.64734,-5.13331 -9.86652,-7.82243 z" /><path
       style="fill:#ff6600"
       id="path5"
       d="m 428.59134,230.75894 c 6.19449,-1.56391 12.37982,-3.17509 18.59446,-4.658 9.40313,-2.20408 19.06403,-2.80921 28.68363,-3.17732 0,0 -11.37563,-8.17424 -11.37563,-8.17424 v 0 c -9.65671,0.64642 -19.35825,1.30342 -28.83423,3.38516 -6.38515,1.54125 -12.76311,3.23912 -19.30211,3.99851 z" /><path
       style="fill:#ff6600"
       id="path6"
       d="m 398.97652,178.41358 c 1.39253,-3.1822 2.58069,-6.45671 4.27596,-9.4997 1.35861,-2.43869 2.23719,-3.55263 3.84238,-5.82227 0.76005,-0.93767 1.47756,-1.91147 2.28014,-2.81301 1.56266,-1.75533 4.19934,-4.23984 5.8892,-5.78666 2.86426,-2.62182 5.8003,-5.15663 8.81835,-7.59811 1.79398,-1.5587 3.6421,-3.04666 5.54685,-4.46621 0,0 -12.39263,-7.77646 -12.39263,-7.77646 v 0 c -1.76347,1.53995 -3.47942,3.13013 -5.19761,4.72056 -2.91364,2.55634 -5.7524,5.18849 -8.62664,7.78873 -3.02285,2.73468 -6.14513,5.38954 -8.53853,8.72967 -1.74836,2.50319 -2.40191,3.32788 -3.94184,5.98274 -1.74003,2.99984 -3.14594,6.18035 -4.88869,9.17684 z" /><path
       style="fill:#ff6600"
       id="path7"
       d="m 334.1272,159.19747 c 2.01414,-7.88861 4.31046,-15.69066 7.05901,-23.35459 1.82069,-4.54673 3.76913,-9.12673 6.78026,-13.03702 1.66315,-2.15978 2.4485,-2.7975 4.3869,-4.69744 2.62096,-2.70547 5.64041,-4.90688 8.82117,-6.8921 0,0 -12.15477,-7.80465 -12.15477,-7.80465 v 0 c -3.16943,2.13051 -6.16578,4.47661 -8.81343,7.24646 -1.6973,1.70391 -3.10231,2.99511 -4.55048,4.93395 -3.02128,4.04497 -4.80664,8.87686 -6.60659,13.53652 -2.67101,7.62335 -4.99479,15.37018 -7.81951,22.93616 z" /></g></svg>
