<?xml version="1.0" encoding="UTF-8" standalone="no"?>
<!-- Created with Inkscape (http://www.inkscape.org/) -->

<svg
   width="512"
   height="512"
   viewBox="0 0 512 512"
   version="1.1"
   id="svg1"
   xml:space="preserve"
   inkscape:version="1.4.2 (f4327f4, 2025-05-13)"
   sodipodi:docname="gift.svg"
   xmlns:inkscape="http://www.inkscape.org/namespaces/inkscape"
   xmlns:sodipodi="http://sodipodi.sourceforge.net/DTD/sodipodi-0.dtd"
   xmlns="http://www.w3.org/2000/svg"
   xmlns:svg="http://www.w3.org/2000/svg"><sodipodi:namedview
     id="namedview1"
     pagecolor="#ffffff"
     bordercolor="#000000"
     borderopacity="0.25"
     inkscape:showpageshadow="2"
     inkscape:pageopacity="0.0"
     inkscape:pagecheckerboard="0"
     inkscape:deskcolor="#d1d1d1"
     inkscape:document-units="px"
     inkscape:zoom="1.5097656"
     inkscape:cx="255.66882"
     inkscape:cy="256"
     inkscape:window-width="1920"
     inkscape:window-height="991"
     inkscape:window-x="-9"
     inkscape:window-y="-9"
     inkscape:window-maximized="1"
     inkscape:current-layer="layer1" /><defs
     id="defs1" /><g
     inkscape:label="Layer 1"
     inkscape:groupmode="layer"
     id="layer1"><path
       style="fill:#ff6600"
       id="path1"
       d="m 105.13377,165.97091 c 9.1504,-0.406 18.27986,-1.17931 27.41681,-1.80483 12.41152,-0.81618 24.84964,-1.03967 37.28416,-1.13236 8.95116,-0.18796 17.88712,0.27161 26.81703,0.81878 9.91099,0.73472 19.82419,1.43705 29.73666,2.15196 17.07063,1.37928 34.17945,2.24357 51.28364,3.09404 13.32714,0.66352 26.66598,1.02801 40.00773,1.20163 8.93799,0.21553 17.87758,0.0448 26.81629,0.005 13.75962,-0.28605 27.51851,-0.53695 41.28148,-0.55204 7.10663,0.0633 14.21287,0.0584 21.31963,0.0366 0.24538,9.9e-4 5.06997,0.0141 5.50317,0.0391 0.69408,0.0401 1.42128,-0.004 2.07172,0.24125 0.5772,0.21789 2.04308,1.36931 1.48696,1.10215 -12.28128,-5.89989 -12.80654,-9.80019 -9.38216,-1.46925 2.52846,9.42418 4.12476,19.08729 5.31664,28.76504 0.6365,4.80743 0.63644,9.65753 0.76406,14.49481 0.0355,6.09892 0.16135,12.19431 0.34396,18.29048 0.29141,5.49238 0.90945,10.95892 1.24078,16.44971 0.28943,4.13534 0.66873,8.29749 1.43284,12.37744 -0.0285,0.31528 0.88659,3.07422 0.75197,3.26714 -0.14689,0.21052 -0.51621,-0.0414 -0.77009,-0.003 -0.75036,0.11219 -1.48718,0.30138 -2.23077,0.45207 -1.06647,0.13402 -2.13294,0.26804 -3.19941,0.40206 -9.37405,0.82724 -18.76496,-0.59888 -28.07995,-1.53612 -11.68804,-1.07744 -23.40124,-1.85574 -35.12623,-2.38443 -12.0994,-0.45944 -24.19829,-0.90416 -36.30421,-1.14439 -12.34605,-0.31725 -24.66894,-1.17159 -37.00664,-1.70069 -9.205,-0.37734 -18.41746,-0.5063 -27.62853,-0.63377 -4.24408,0.16064 -8.50726,-0.2329 -12.74963,-0.0786 -2.4203,0.0881 -4.83123,0.34873 -7.24743,0.51472 -10.03445,0.66684 -20.09325,0.82184 -30.14553,0.99376 -11.92462,0.3479 -23.84344,-0.26687 -35.74572,-0.92544 -5.89147,-0.43086 -11.79537,-0.51912 -17.6995,-0.55738 -6.37492,-0.0327 -12.74887,-0.2466 -19.10932,-0.68003 -5.35704,-0.47364 -10.73378,-0.60702 -16.09616,-0.99975 -5.54678,-0.59994 -11.119578,-1.08114 -16.616927,-2.05391 -2.160969,-0.45172 -4.377183,-0.69934 -6.532262,-1.17782 -0.389355,-0.0864 -1.492829,-0.53754 -1.14806,-0.33703 3.960652,2.30342 8.015389,4.44112 12.023083,6.66168 -0.192416,-0.20329 -0.451768,-0.35965 -0.577247,-0.60986 -0.757535,-1.51053 -0.358847,-5.8054 -0.291191,-7.53927 0.150901,-3.51584 0.218269,-7.03418 0.251828,-10.55286 -0.04404,-4.05551 0.0707,-8.10574 0.236849,-12.15704 0.113735,-5.4947 0.287824,-10.96506 0.942317,-16.42571 0.743591,-5.40253 1.428582,-10.81245 2.165541,-16.21584 0.861039,-4.93647 1.389462,-9.93601 1.68709,-14.93722 0.187699,-3.79707 0.142662,-7.5985 0.518389,-11.38373 0.21976,-2.00752 0.78494,-3.85677 1.75592,-5.61545 0.71465,-1.22183 1.93771,-1.28339 3.22201,-1.37548 1.8073,-0.26052 2.99869,0.279 4.67887,0.80687 2.03698,0.6878 4.14246,1.01248 6.28199,1.11022 3.41813,0.10703 6.82989,0.38556 10.24883,0.51719 3.06197,0.28228 6.12245,0.58067 9.19115,0.78103 2.03142,0.15489 4.06657,0.0993 6.10063,0.0632 0.55822,-0.006 1.11644,-0.012 1.67466,-0.018 0,0 -11.865,-8.62137 -11.865,-8.62137 v 0 c -0.57424,-0.007 -1.14847,-0.0132 -1.7227,-0.0198 -2.04079,-0.0429 -4.082,-0.0923 -6.1212,-0.18498 -3.01919,-0.16752 -6.02894,-0.45283 -9.04649,-0.64333 -3.46814,-0.16628 -6.92991,-0.41472 -10.39087,-0.69138 -2.06819,-0.24401 -4.09414,-0.67967 -6.071649,-1.34424 -1.771266,-0.51245 -3.332851,-0.70723 -5.157484,-0.35752 -1.674971,0.34556 -3.098148,0.99406 -3.938507,2.57691 -1.014434,1.95772 -1.725754,3.98523 -1.941626,6.19829 -0.282239,3.8445 -0.05876,7.70092 -0.291297,11.5498 -0.266907,4.97902 -0.650081,9.95107 -1.596551,14.85573 -0.737662,5.42205 -1.263617,10.87185 -2.108058,16.2799 -0.604171,5.47202 -0.985919,10.95267 -1.092251,16.45794 -0.2133,4.04302 -0.500155,8.07814 -0.408832,12.13009 -0.03244,3.5039 -0.07695,7.00826 -0.236115,10.50918 -0.132739,3.1123 -0.506768,6.29171 0.08659,9.37195 4.52078,2.60085 8.982252,5.30763 13.56234,7.80257 0.340115,0.18527 0.761585,0.14153 1.143138,0.20802 2.141083,0.37314 4.277002,0.78118 6.430742,1.07687 5.46917,0.70899 10.96071,1.25276 16.44919,1.78709 5.35963,0.39667 10.7225,0.74156 16.09216,0.97124 6.41301,0.32045 12.83013,0.65761 19.25214,0.69369 5.7706,0.054 11.53953,0.19547 17.30875,0.32924 11.8234,0.29698 23.64624,0.74859 35.47575,0.6413 10.20364,-0.0481 20.40538,-0.23408 30.5978,-0.74439 6.67081,-0.29202 13.34701,-0.35639 20.02404,-0.31052 9.04284,-0.0379 18.08664,0.026 27.12533,0.32574 6.08591,0.21933 12.16708,0.47852 18.24826,0.80676 0.25686,0.0139 12.7895,0.72234 13.09715,0.73523 1.89682,0.0795 3.79569,0.0983 5.69353,0.14739 12.06719,0.21193 24.12902,0.58829 36.18702,1.10733 11.76086,0.59323 23.51143,1.40185 35.23159,2.55643 9.52448,1.02188 19.12203,2.44098 28.71691,1.61379 2.39165,-0.27479 6.41376,-0.18103 7.95184,-2.55573 0.23544,-0.36351 -0.8208,-2.96342 -0.88055,-3.41406 -1.07949,-3.98913 -1.35795,-8.14635 -1.68206,-12.25265 -0.46494,-5.50072 -1.11887,-10.9851 -1.45507,-16.49601 -0.23461,-6.0572 -0.40068,-12.11138 -0.19752,-18.1732 0.0556,-4.9425 -0.22942,-9.88592 -0.9081,-14.78483 -1.60835,-9.74435 -3.69571,-19.40253 -5.50772,-29.10994 -0.32756,-1.47144 0.11988,-3.38633 -0.9827,-4.41432 -4.00791,-3.73676 -8.99784,-6.26221 -13.62197,-9.20229 -0.53432,-0.33974 -1.17752,-0.4935 -1.80102,-0.60386 -2.29035,-0.40537 -5.11203,0.22147 -7.41996,-0.025 -6.91731,0.0127 -13.83159,0.10952 -20.74375,0.40107 -13.79949,0.37964 -27.60796,0.69625 -41.41259,0.4346 -8.94113,-0.025 -17.88224,-0.15269 -26.82326,-0.0231 -13.04205,-0.0131 -26.086,-0.10146 -39.11984,-0.61701 -17.36678,-0.74065 -34.7223,-1.78373 -52.00624,-3.68011 -9.98497,-0.86456 -19.98509,-1.50087 -29.97503,-2.302 -8.87177,-0.59685 -17.74677,-0.96806 -26.63943,-0.55752 -12.40381,0.22997 -24.80978,0.52628 -37.19474,1.28205 -9.4765,0.56752 -18.97464,1.34172 -28.474022,0.93019 z" /><path
       style="fill:#ff6600"
       id="path2"
       d="m 117.87195,260.27909 c 0.23544,4.53538 0.20506,9.08084 0.26874,13.6212 0.18816,6.83491 -0.13983,13.67629 0.20594,20.50454 0.26673,7.24623 1.46028,14.40426 2.63187,21.54568 0.81265,4.96416 1.82548,9.89555 2.4933,14.88229 0.57297,4.01857 0.36034,8.06369 0.28703,12.1016 -0.0722,4.23548 -0.61043,8.44179 -0.89201,12.66475 -0.24799,3.63478 -0.20555,7.27922 -0.19859,10.91969 0.008,3.69296 -0.0657,7.38542 -0.0418,11.07826 0.003,3.87344 0.0726,7.742 -0.11674,11.61172 -0.14291,3.54484 -0.46248,7.06665 -1.05964,10.5637 -0.48136,2.90812 -0.95599,5.81319 -1.57523,8.69596 -0.81189,3.40326 -1.02919,6.90662 -1.41753,10.37449 -0.2588,2.53145 -0.5086,5.06295 -0.78059,7.59302 -0.2458,2.04436 -0.35231,4.10073 -0.42492,6.15734 -0.83426,8.29309 -2.09744,2.57843 12.85459,12.0553 6.07447,0.13774 12.14908,0.064 18.22423,0.009 12.92017,0.12573 25.83069,0.70692 38.74383,1.116 14.47765,0.69597 28.96091,0.18808 43.43816,-0.17246 12.21178,-0.2977 24.42768,-0.36776 36.64258,-0.39849 11.41195,-0.0235 22.80694,0.7887 34.2061,1.25414 10.78444,0.19855 21.54959,0.91005 32.3282,1.27348 5.91139,0.0673 11.81256,0.36624 17.70538,0.82798 7.0048,0.5531 14.02167,0.91357 21.04098,1.21708 3.91352,0.20577 7.83051,0.28678 11.74836,0.34244 0.7381,-0.14968 2.34222,0.30942 3.01117,-0.10404 1.50752,-0.93178 1.88752,-3.23461 2.32147,-4.73972 1.3242,-5.47559 2.17582,-11.04664 3.2757,-16.56839 1.05383,-4.56946 1.57248,-9.208 1.70299,-13.88742 0.037,-7.50908 0.0198,-15.02248 -0.32679,-22.52388 -0.617,-10.12749 -0.91956,-20.26568 -0.62821,-30.40843 0.5265,-8.47107 0.56681,-16.95982 0.9803,-25.43493 0.38476,-8.61813 0.85278,-17.22737 1.50316,-25.82949 0.36398,-4.68358 0.47569,-9.37912 0.59832,-14.07324 -0.40263,-4.88009 -0.85715,-9.75265 -1.07671,-14.64607 0.0462,-3.00201 -0.24687,-5.94885 -0.86534,-8.8814 -0.35337,-1.46278 -0.16502,-0.75864 -0.55885,-2.11405 0,0 -13.46012,-6.28385 -13.46012,-6.28385 v 0 c 0.53825,1.23696 0.29746,0.57317 0.69646,2.00058 0.77593,2.86267 1.10529,5.79009 1.19352,8.75264 0.345,4.84217 0.75418,9.6794 1.05908,14.52438 0.0198,4.7251 -0.0817,9.45017 -0.26541,14.17166 -0.31377,8.69082 -0.58063,17.38412 -1.0426,26.06853 -0.20281,3.32049 -0.49589,6.63518 -0.68602,9.95642 -0.2942,5.13894 -0.26673,10.29969 -0.46508,15.4422 -0.15129,10.1833 0.28274,20.34856 0.68433,30.5222 0.14414,7.37841 0.0275,14.75722 -0.2182,22.1329 -0.2253,4.61215 -0.56349,9.2198 -1.47408,13.75742 -1.03332,5.45869 -1.9696,10.94936 -3.39154,16.32247 -0.32813,0.95957 -0.56982,2.09084 -1.2632,2.89929 -0.47439,0.55314 -2.59879,0.10813 -3.24905,0.25938 -3.76841,0.0281 -7.53741,-0.005 -11.30514,-0.0788 -7.0732,-0.21418 -14.14195,-0.60203 -21.17762,-1.3851 -5.79722,-0.41419 -11.60807,-0.4703 -17.41804,-0.53352 -10.61213,-0.2263 -21.2229,-0.51151 -31.82934,-0.93268 -6.32559,-0.27121 -6.16936,-0.24668 -12.48604,-0.58872 -7.32487,-0.39663 -14.65099,-1.02975 -21.99404,-0.783 -12.06426,0.13943 -24.125,0.41564 -36.18515,0.76008 -14.4534,0.37152 -28.91071,0.70019 -43.36534,0.13314 -6.03093,-0.18865 -8.99587,-0.26295 -15.03524,-0.52622 -8.14749,-0.35516 -16.28372,-1.00383 -24.44189,-1.06933 -3.78882,-0.0243 -7.58128,-0.0326 -11.36856,-0.1599 -1.24792,-0.0419 -4.08905,-0.1494 -5.40331,-0.38481 -0.59729,-0.10699 -1.16531,-0.3389 -1.74797,-0.50834 3.8782,2.5424 7.68258,5.20116 11.63461,7.62721 0.1489,0.0914 -0.0632,-0.34624 -0.0584,-0.5209 0.0283,-1.04029 0.40061,-2.06067 0.44232,-3.10106 0.0187,-2.0322 0.0809,-4.06482 0.28451,-6.08817 0.27511,-2.55509 0.5743,-5.09814 0.65664,-7.67018 0.30201,-3.42541 0.68957,-6.85193 1.34675,-10.22894 0.61418,-2.90047 1.3717,-5.77353 1.66598,-8.73175 0.54115,-3.57589 0.91468,-7.16671 0.97688,-10.78752 0.19944,-3.8747 0.33309,-7.74399 0.25381,-11.62484 0.0191,-3.70448 -0.0648,-7.40845 -0.0404,-11.11309 0.0335,-3.60426 0.0886,-7.20922 0.23253,-10.81097 0.22114,-4.25594 0.58883,-8.50242 0.76427,-12.76051 0.26444,-4.09718 0.42479,-8.19525 -0.10347,-12.2833 -0.62395,-5.08916 -1.92099,-10.05822 -2.80935,-15.10445 -1.25858,-7.07883 -2.42627,-14.19153 -2.71282,-21.3893 -0.2696,-6.79109 -0.18114,-13.5893 -0.11098,-20.38418 0.0633,-4.449 0.03,-8.90362 0.26874,-13.34733 z" /><path
       style="fill:#ff6600"
       id="path3"
       d="m 247.15545,262.23318 c 1.02165,9.22302 0.82859,18.52856 0.57853,27.78768 -0.46716,11.04644 -0.53929,22.1042 -0.77671,33.15723 -0.12856,8.49639 -0.25502,17.00359 0.0958,25.49607 0.24713,6.03697 1.07112,12.02704 1.57698,18.04417 0.48081,6.6215 0.0889,13.28654 -0.31563,19.90448 -0.37726,5.4109 -0.94664,10.80706 -1.23792,16.22339 -0.26784,4.89521 -0.005,9.78039 0.28816,14.66504 0.1879,2.98522 0.29667,5.97473 0.37756,8.96452 0.0513,2.2925 0.008,4.58558 -0.0228,6.87804 -0.027,1.25141 -0.54997,2.39212 -0.88579,3.57677 0,0 13.13984,7.13529 13.13984,7.13529 v 0 c 0.33347,-1.32426 0.96062,-2.56594 1.00676,-3.95399 -0.0267,-2.32185 -0.0711,-4.6435 -0.0849,-6.96549 -0.0326,-3.04787 -0.21503,-6.08542 -0.5112,-9.11958 -0.41109,-4.84381 -0.73359,-9.69972 -0.52499,-14.5642 0.40538,-5.4386 0.8288,-10.87245 1.05688,-16.32279 0.21002,-3.51077 0.38562,-7.02332 0.54424,-10.53683 0.0693,-1.53421 0.21453,-4.92701 0.17274,-6.47899 -0.0272,-1.00964 -0.14059,-2.01511 -0.21089,-3.02266 -0.50867,-6.02396 -1.14846,-12.0347 -1.69311,-18.05496 -0.57502,-8.52851 -0.57298,-17.05983 -0.50922,-25.60469 -0.0139,-11.07541 0.2344,-22.14298 0.60833,-33.21189 0.12843,-3.75837 0.31749,-7.51481 0.41018,-11.27423 0.13227,-5.36437 -0.11,-10.73224 0.12822,-16.09455 z" /><path
       style="fill:#ff6600"
       id="path4"
       d="m 146.3679,218.83007 c 0.92629,-0.17 1.85205,-0.3429 2.77887,-0.51 2.268,-0.40891 6.44526,-1.10169 8.57199,-1.66614 5.55391,-1.47407 10.818,-3.76399 16.0723,-6.04311 9.2977,-4.29542 18.22911,-9.31593 27.31209,-14.03545 7.50939,-4.09618 15.28744,-7.71649 22.55039,-12.2464 4.06973,-2.59439 7.30344,-6.20527 10.65973,-9.61696 1.43498,-1.45868 4.24154,-4.25448 5.68951,-5.70023 4.13007,-3.87018 7.75962,-8.21438 11.48974,-12.45647 3.16331,-3.59747 3.47056,-3.86351 6.80484,-7.40928 4.59398,-4.82496 9.82739,-9.04658 14.21874,-14.07037 0.64492,-0.7378 1.23024,-1.52565 1.84537,-2.28847 3.30498,-4.26496 5.95991,-8.9698 8.76464,-13.56359 2.25611,-3.99977 4.4879,-8.00856 6.91828,-11.90771 2.35281,-3.63984 5.23301,-6.89376 8.00612,-10.211604 2.56804,-3.126649 5.19097,-6.206169 7.80013,-9.298349 2.94456,-3.479229 6.07628,-6.789449 9.29168,-10.017473 2.44696,-2.560865 5.18101,-4.810596 8.17229,-6.701417 3.2407,-1.808982 6.69937,-3.151089 10.2693,-4.139981 2.22705,-0.603222 4.49225,-1.27676 6.81602,-1.37697 1.43694,-0.06197 2.46153,0.120437 3.88671,0.290491 4.47688,0.900521 8.64093,2.652384 12.58447,4.909077 -20.98167,-12.637474 -8.71596,-5.226703 -4.34744,-1.411168 1.50085,1.281029 2.76217,2.779487 3.71167,4.505286 0.97701,1.844969 1.74765,3.771599 2.3433,5.76875 0.73938,2.703487 0.92943,5.506512 1.03893,8.29413 0.092,2.375623 0.14624,4.73924 -0.1194,7.103889 -0.27695,2.27779 -0.85664,4.48268 -1.68547,6.617549 -0.69626,1.65307 -1.66887,3.13025 -2.68453,4.59474 -1.64887,2.38892 -3.83986,4.23237 -6.04976,6.07722 -3.79502,3.00257 -7.69438,5.87714 -11.61046,8.71964 -3.70147,2.81695 -7.77668,5.04963 -11.80374,7.35257 -4.46292,2.68277 -9.05773,5.11985 -13.73235,7.4088 -3.25842,1.93741 -6.6591,3.61409 -9.9672,5.46142 -1.79864,0.94611 -3.5348,1.99444 -5.32047,2.96855 -3.37693,1.74075 -7.03899,2.79579 -10.5851,4.12456 -2.95862,0.99629 -5.96114,1.89282 -8.98476,2.67378 -3.97466,1.14058 -7.99994,2.05084 -12.07988,2.71892 -4.50326,0.84254 -9.04016,1.58371 -13.50367,2.61852 -5.36897,1.21544 -10.79684,2.11518 -16.22978,2.98881 -5.87434,1.07691 -11.80475,1.73791 -17.73878,2.37018 -5.30512,0.57585 -10.63562,0.7903 -15.968,0.87278 -3.82064,0.13038 -7.65645,0.11927 -11.46335,-0.28212 -1.78956,-0.18869 -3.84606,-0.58 -5.62707,-0.8938 -4.58594,-0.99908 -8.93297,-2.82129 -12.94015,-5.24067 3.62092,2.06958 7.22581,4.16749 10.86277,6.20875 0.49179,0.27602 -0.95492,-0.60043 -1.42511,-0.91181 -1.41367,-0.93622 -2.76944,-1.93857 -4.23674,-2.79495 -4.75251,-2.77377 -9.52555,-5.5122 -14.28833,-8.2683 3.59323,2.06736 7.18131,4.14371 10.77969,6.20209 0.52532,0.3005 -1.03601,-0.62601 -1.56028,-0.92833 -4.69325,-2.70635 -9.38685,-5.41218 -14.09212,-8.0976 -3.67355,-2.09658 14.69024,8.39273 10.99695,6.33111 -3.38194,-1.88782 -11.20584,-6.39278 -16.36525,-9.36185 -4.24793,-2.43225 -13.10131,-7.30422 6.0376,3.51183 0.79876,0.45141 -1.57235,-0.94628 -2.34759,-1.437 -2.08442,-1.31943 -2.54826,-1.68575 -4.62045,-3.14405 -5.00939,-3.53416 -9.43605,-7.72707 -13.49949,-12.2955 -3.23865,-3.54952 -5.38062,-7.77435 -7.1676,-12.18416 -1.62865,-3.97665 -2.57981,-8.14181 -3.13635,-12.38794 -0.31047,-3.49101 -0.13065,-7.141067 1.27259,-10.406905 0.24341,-0.566494 0.57085,-1.09306 0.85628,-1.63959 2.22942,-3.812473 5.42509,-6.842371 8.83829,-9.578301 3.11426,-2.275608 6.35499,-4.403388 9.85493,-6.036783 2.52763,-1.359017 5.22766,-2.21165 7.99961,-2.902342 2.77606,-0.808423 5.63354,-1.21314 8.51059,-1.411282 1.23182,-0.0095 2.48835,-0.219004 3.71514,0.0066 1.73498,0.319081 3.40526,1.114923 5.01158,1.803535 0.62089,0.326719 1.25171,0.635204 1.86265,0.980157 0.67663,0.382042 2.67723,1.578333 1.99854,1.199963 -3.36835,-1.877856 -6.65963,-3.895374 -10.06837,-5.69889 -0.87716,-0.464097 1.64628,1.108723 2.4617,1.674305 0.82474,0.572036 1.63975,1.15796 2.45858,1.738408 0.7695,0.545474 1.53761,1.092903 2.30641,1.639355 3.79747,2.791356 7.44514,5.783561 11.02759,8.844259 3.76354,3.14041 7.56521,6.231316 11.45479,9.214302 4.70963,3.497203 9.19085,7.276219 13.57623,11.167439 4.01425,3.53717 7.49307,7.60663 10.7781,11.81298 3.20915,4.19156 6.07103,8.62927 9.11801,12.93702 1.60073,2.42853 3.18299,4.86423 4.59963,7.40523 1.53481,2.84569 3.17694,5.63215 4.81104,8.4216 2.03433,3.50942 4.60624,6.65597 7.1496,9.80082 3.36523,4.14487 6.57459,8.41317 9.92561,12.56897 2.54606,3.21739 5.64366,5.90812 8.75611,8.55329 2.93922,2.57941 6.2755,4.597 9.63974,6.55854 8.0361,5.30813 16.44627,9.4446 25.30188,12.99711 4.84839,2.12117 9.91925,3.67858 14.95385,5.28915 2.86694,0.89007 5.74059,1.74283 8.73845,2.00877 2.4451,0.15134 4.89668,0.15397 7.34562,0.16948 2.22062,0.008 4.44089,-0.0312 6.66137,-0.0459 2.95321,-0.0377 5.90641,-0.0218 8.85956,0.008 0.36011,0.004 0.72022,0.008 1.08033,0.0115 0,0 -12.00188,-8.71975 -12.00188,-8.71975 v 0 c -0.34958,0.004 -0.69916,0.008 -1.04875,0.0116 -2.94236,0.0319 -5.88475,0.0474 -8.82725,0.0177 -2.24397,-0.007 -4.48785,-0.0313 -6.73184,-0.0108 -2.4005,0.009 -4.80869,0.009 -7.1957,-0.27994 -2.84365,-0.44495 -5.60922,-1.2308 -8.36215,-2.06185 -5.01707,-1.55907 -10.01246,-3.20417 -14.82126,-5.3367 -2.2944,-0.95388 -4.59939,-1.89855 -6.84965,-2.95422 -4.64321,-2.17829 -13.71476,-7.50714 6.4716,4.11509 -3.31019,-1.94401 -6.67963,-3.78909 -9.63158,-6.27501 -3.09516,-2.66869 -6.39457,-5.14227 -8.96062,-8.36503 -3.45245,-4.09042 -6.74731,-8.31115 -9.98423,-12.5734 -2.47232,-3.09722 -4.99996,-6.16447 -7.08053,-9.54756 -1.64881,-2.7323 -3.23324,-5.51232 -4.70921,-8.34094 -1.48599,-2.59403 -2.99132,-5.156 -4.7057,-7.61098 -3.08348,-4.39738 -6.31222,-8.69538 -9.37957,-13.10619 -3.1559,-4.28194 -6.55385,-8.37952 -10.46804,-11.99915 -4.48302,-3.87439 -8.9608,-7.75679 -13.70167,-11.3181 -3.84782,-2.956309 -7.57254,-6.061124 -11.36187,-9.090516 -3.59589,-3.113998 -7.23514,-6.188164 -11.06852,-9.00813 -4.39295,-3.088442 -0.28569,-0.189904 -4.7856,-3.398846 -0.7936,-0.565928 -1.55278,-1.184539 -2.38542,-1.691277 -6.02349,-3.66584 -12.20823,-7.683116 -18.68062,-10.735252 -3.34545,-1.249659 -5.72232,-1.866985 -9.29502,-1.371898 -2.90247,0.32189 -5.76418,0.871412 -8.57713,1.665499 -2.83335,0.781628 -5.63086,1.65664 -8.18574,3.150265 -3.44444,1.870297 -6.74488,4.01251 -9.84522,6.411909 -3.54961,2.89296 -6.83169,6.09833 -9.22786,10.042564 -0.31689,0.611499 -0.68023,1.201082 -0.95067,1.834497 -1.46991,3.442862 -1.69621,7.307498 -1.58563,10.995075 0.52731,4.35516 1.46621,8.62687 3.01218,12.74375 1.81646,4.54858 3.84937,9.00478 7.14058,12.71159 1.04102,1.18526 2.86456,3.29055 3.95094,4.40638 2.91489,2.9939 6.15345,5.62641 9.44387,8.19052 8.01852,5.93209 16.88144,10.5535 25.54605,15.46743 0.67435,0.38081 2.69182,1.53295 2.02306,1.14241 -3.53032,-2.06162 -14.16516,-8.17054 -10.60791,-6.15574 4.7108,2.66814 9.35497,5.45289 14.06868,8.11589 3.67575,2.07661 -7.29995,-4.24319 -10.95465,-6.35663 -0.53381,-0.30869 1.06129,0.62824 1.59193,0.94236 4.71933,2.73386 9.43865,5.46772 14.15798,8.20158 -3.54407,-2.05754 -7.07284,-4.14167 -10.63222,-6.17262 -0.5531,-0.3156 1.07028,0.6905 1.61177,1.02564 1.37881,0.85336 2.63964,1.84711 4.03714,2.6722 4.68979,2.76887 9.39825,5.506 14.09738,8.259 4.11191,2.21034 8.50365,3.93007 13.12222,4.72045 5.74376,0.82114 11.53023,1.2386 17.33588,1.02373 5.29271,-0.20449 10.58877,-0.44925 15.84956,-1.09486 5.96156,-0.61332 11.90689,-1.3489 17.80757,-2.41345 5.51171,-0.8564 11.0018,-1.85725 16.47612,-2.92581 4.44038,-0.94316 8.88515,-1.87778 13.36296,-2.627 4.15762,-0.72875 8.30436,-1.51971 12.36562,-2.68573 3.04053,-0.83883 6.09166,-1.6897 9.04046,-2.81237 3.58318,-1.35865 7.21614,-2.59352 10.68827,-4.22857 1.90073,-0.85232 3.66555,-1.90821 5.43056,-3.013 3.20045,-1.92015 6.46288,-3.7256 9.74008,-5.51116 4.60388,-2.40355 9.12426,-4.95396 13.61623,-7.56045 4.13656,-2.28455 8.34593,-4.44065 12.05538,-7.40836 3.87744,-2.94242 7.72672,-5.92122 11.69005,-8.74976 2.3685,-1.89543 4.68316,-3.85464 6.53487,-6.27893 1.05322,-1.57415 2.03709,-3.18179 2.80121,-4.92223 0.86181,-2.24769 1.47749,-4.55848 1.77038,-6.95265 0.41677,-2.431709 0.39504,-4.883037 0.2637,-7.343681 -0.15789,-2.865775 -0.31162,-5.748952 -0.89031,-8.566656 -0.47937,-2.099036 -1.14763,-4.107157 -2.16263,-6.012122 -0.15389,-0.35041 -0.63305,-1.472693 -0.83558,-1.812697 -0.72351,-1.214672 -1.74525,-2.233204 -2.70095,-3.259076 -0.68798,-0.59562 -1.32971,-1.245378 -2.04045,-1.813649 -0.42776,-0.342011 -0.90197,-0.622046 -1.33943,-0.95156 -5.48488,-4.131492 -10.58781,-7.591563 -17.33115,-10.537962 -4.07189,-2.117909 -8.38971,-3.732587 -12.94629,-4.434972 -4.01509,-0.256004 -7.24891,0.206779 -11.04972,1.515772 -3.66654,1.147 -7.2472,2.537559 -10.59803,4.436817 -3.00841,2.032822 -5.6673,4.489617 -8.23346,7.051422 -3.11981,3.348389 -6.28246,6.65927 -9.29043,10.109507 -2.69293,3.036565 -5.27718,6.155078 -7.80646,9.329227 -2.79248,3.388536 -5.78331,6.642039 -8.12319,10.37379 -2.42044,3.91169 -4.58671,7.96612 -6.8537,11.9669 -2.72284,4.5681 -5.30335,9.24557 -8.57292,13.45731 -4.69661,5.94003 -10.16267,11.19319 -15.47842,16.56968 -6.25501,6.49009 -12.12663,13.33725 -18.53906,19.67536 -5.21665,5.21184 -10.24449,10.74181 -16.32945,14.96377 -7.10087,4.58879 -14.6813,8.34992 -22.09102,12.40627 -9.00472,4.7559 -18.00906,9.52462 -27.14321,14.02688 -4.26962,1.85212 -6.1741,2.81063 -10.65559,4.2106 -5.65357,1.76612 -11.54144,2.67922 -17.4502,2.93839 z" /></g></svg>
