<?xml version="1.0" encoding="UTF-8" standalone="no"?>
<!-- Created with Inkscape (http://www.inkscape.org/) -->

<svg
   width="512"
   height="512"
   viewBox="0 0 512 512"
   version="1.1"
   id="svg1"
   xml:space="preserve"
   inkscape:version="1.4.2 (f4327f4, 2025-05-13)"
   sodipodi:docname="idea.svg"
   xmlns:inkscape="http://www.inkscape.org/namespaces/inkscape"
   xmlns:sodipodi="http://sodipodi.sourceforge.net/DTD/sodipodi-0.dtd"
   xmlns="http://www.w3.org/2000/svg"
   xmlns:svg="http://www.w3.org/2000/svg"><sodipodi:namedview
     id="namedview1"
     pagecolor="#ffffff"
     bordercolor="#000000"
     borderopacity="0.25"
     inkscape:showpageshadow="2"
     inkscape:pageopacity="0.0"
     inkscape:pagecheckerboard="0"
     inkscape:deskcolor="#d1d1d1"
     inkscape:document-units="px"
     inkscape:zoom="1.5097656"
     inkscape:cx="255.66882"
     inkscape:cy="256"
     inkscape:window-width="1920"
     inkscape:window-height="991"
     inkscape:window-x="-9"
     inkscape:window-y="-9"
     inkscape:window-maximized="1"
     inkscape:current-layer="layer1" /><defs
     id="defs1" /><g
     inkscape:label="Layer 1"
     inkscape:groupmode="layer"
     id="layer1"><path
       style="fill:#ff6600"
       id="path1"
       d="m 272.38191,461.86381 c 2.06619,-2.03094 4.00066,-4.19041 6.03623,-6.25043 1.86557,-1.98424 3.46832,-4.21841 4.73235,-6.62807 1.34221,-2.56589 2.44562,-5.24307 3.61872,-7.88759 1.05719,-2.71549 2.08983,-5.43444 2.67985,-8.29287 0.52632,-2.11439 0.84525,-4.26828 1.24344,-6.40694 0.37247,-1.49981 0.72634,-3.02186 1.30457,-4.45838 0.45204,-1.4594 1.33324,-2.69831 2.1988,-3.93209 1.40798,-2.0927 3.53236,-3.45995 5.62014,-4.78524 1.5722,-1.07255 3.01815,-1.8902 4.4325,-3.1785 1.14731,-1.16273 2.27808,-2.30986 3.22383,-3.64669 1.43753,-1.84659 2.26037,-4.04917 3.42529,-6.05882 1.15156,-1.9298 1.82186,-4.07751 2.52109,-6.19824 0.819,-2.10985 0.91899,-4.3568 1.12534,-6.58064 0.40174,-3.69241 0.42067,-7.41369 0.54791,-11.12259 -0.12644,-3.28546 0.46637,-6.39752 1.54049,-9.48527 1.42589,-3.21315 2.54596,-6.54328 3.69651,-9.86098 0.67648,-1.92158 1.60932,-3.75796 2.08581,-5.74723 0.11062,-0.4618 0.44754,-2.35587 0.53348,-2.82965 0.48568,-2.4646 1.15817,-4.86838 1.9637,-7.24512 0.85043,-1.96943 1.87258,-3.86511 2.80941,-5.79851 1.17996,-2.3385 2.45805,-4.6265 3.67664,-6.9462 1.07906,-2.03016 2.47749,-3.86317 3.50314,-5.92095 1.50762,-2.6862 2.1934,-5.70862 3.17925,-8.6034 0.92197,-2.89789 2.17578,-5.67183 3.3443,-8.47332 1.15277,-3.43346 1.97414,-6.9653 2.86608,-10.47233 0.9412,-3.23457 1.83174,-6.49419 3.26731,-9.54947 1.57017,-2.87474 3.05781,-5.79664 4.69233,-8.63553 1.57278,-2.9298 2.91801,-5.97719 3.95569,-9.13621 0.66188,-1.91138 1.04294,-3.89424 1.49199,-5.86072 0.48127,-2.66783 0.75655,-5.3633 1.15856,-8.04342 0.48986,-2.74351 0.61543,-5.52901 0.70337,-8.30862 0.10445,-2.74689 0.0413,-5.49463 0.0407,-8.24217 0.007,-2.62555 -0.52232,-5.18322 -1.17961,-7.70854 -0.90967,-3.10648 -2.11731,-6.1093 -3.49667,-9.03362 -1.43398,-2.93533 -2.98243,-5.80907 -4.56356,-8.66703 -1.65667,-3.06072 -3.23224,-6.16388 -4.78988,-9.27581 -1.46732,-2.99266 -2.88222,-6.00596 -4.5383,-8.90049 -1.33967,-2.66362 -3.07571,-5.06267 -4.85708,-7.43965 -2.04454,-3.06989 -4.31825,-5.95625 -6.82154,-8.66123 -2.13986,-2.22738 -4.47604,-4.24024 -6.9023,-6.14569 -2.54302,-1.96748 -4.97206,-4.07464 -7.64134,-5.87249 -0.36697,-0.23274 -0.72333,-0.48312 -1.10092,-0.69821 -4.61396,-2.62829 -9.20995,-5.28976 -13.87234,-7.83113 -0.42441,-0.23134 -0.91345,-0.3165 -1.36944,-0.47684 -1.4876,-0.52306 -2.98866,-0.92623 -4.50533,-1.35709 -3.04888,-1.21575 -6.2133,-1.84126 -9.46191,-2.19563 -4.95235,-0.4794 -9.88295,-1.12937 -14.84933,-1.45555 -3.47086,-0.19435 -6.94895,-0.24948 -10.42473,-0.2279 -4.18186,-0.0128 -8.34963,0.0971 -12.52345,0.34551 -3.27102,0.20706 -6.53202,0.6619 -9.75267,1.26922 -1.70747,0.45688 -3.50297,0.47655 -5.22797,0.80793 -0.87439,0.16798 -1.72695,0.4357 -2.59685,0.62554 -3.689,0.9021 -7.40544,1.67305 -11.11059,2.50158 -3.50178,0.8087 -6.83396,2.22362 -10.07298,3.75689 -3.50913,1.54875 -6.80016,3.51265 -10.22279,5.23438 -2.13051,1.15605 -4.41423,2.01889 -6.56308,3.1342 -0.16577,0.086 -2.57077,1.49957 -2.66771,1.55643 -1.61679,1.07152 -3.14369,2.26622 -4.68422,3.44168 -0.77767,0.59337 -2.34652,1.72801 -3.06501,2.41252 -0.5046,0.48073 -0.94255,1.02689 -1.41383,1.54033 -2.41,2.6965 -4.15263,5.81926 -5.69179,9.06466 -1.75126,3.34439 -2.70176,6.99057 -3.68528,10.60945 -0.74379,2.83779 -1.34386,5.70746 -2.01419,8.56297 -0.41496,2.00798 -0.76098,4.00735 -1.36297,5.96816 -0.67733,1.41772 -1.18771,2.86626 -1.48098,4.40832 -0.51499,3.07063 -0.53451,6.19006 -0.87718,9.28231 -0.49955,2.9548 -1.08028,5.89623 -1.79817,8.80538 -0.67257,1.76666 -1.25631,3.55836 -1.83554,5.35746 -0.84458,2.64609 -1.77316,5.26513 -2.4681,7.95503 -0.81071,4.85293 -1.46355,9.73321 -2.18578,14.60171 -0.52132,3.25486 -0.78172,6.53211 -0.84726,9.8247 -0.085,4.07943 0.0619,8.15669 0.13177,12.23481 0.13532,5.11813 0.42322,10.24348 1.22112,15.30481 0.47524,2.64481 1.54906,5.11939 2.75772,7.50148 2.22397,3.929 5.04538,7.45282 7.91056,10.92298 2.59004,3.23549 5.05202,6.58692 7.26229,10.09452 1.43335,2.28225 2.59906,4.71767 3.80773,7.12278 1.10454,2.45217 2.54752,4.71035 3.95504,6.99158 1.59849,2.75744 2.80156,5.71565 4.10437,8.61766 1.68712,3.23026 3.89195,6.13594 6.02237,9.07725 1.86993,2.39608 3.53944,4.91201 4.86968,7.64471 0.89521,2.0818 2.03051,4.05112 2.86208,6.15959 0.60228,1.71853 1.32834,3.38982 1.93383,5.10796 0.55613,1.59437 0.62178,3.28681 0.78075,4.95101 0.45334,2.86557 0.85807,5.73378 1.11306,8.62407 0.24597,2.68149 0.50983,5.35811 1.06763,7.9947 0.33588,2.18424 1.33127,4.08891 2.43305,5.96507 0.74671,1.54092 1.97068,2.63204 3.31399,3.64076 1.4385,1.28753 2.93382,2.49857 4.43298,3.71266 1.00738,0.91437 1.67807,2.1022 2.28672,3.30187 0.99295,2.15186 1.57831,4.44869 2.3753,6.67062 0.94853,1.84968 1.82263,3.71555 2.61167,5.63865 1.14815,2.52775 2.48332,4.99552 4.0912,7.26158 1.898,2.47346 3.75436,4.97444 5.76098,7.36181 1.24594,1.4795 2.42461,3.02524 3.98923,4.18088 4.91952,1.13414 9.1537,6.5059 14.45182,8.01213 1.79912,0.51147 3.5926,0.95402 5.37697,1.5296 3.45341,1.17165 7.01137,1.999 10.62277,2.4866 1.99149,0.19608 4.08909,0.0566 6.039,-0.41697 1.56613,-0.64507 3.20422,-1.13677 4.56204,-2.1718 0,0 -12.59273,-8.02077 -12.59273,-8.02077 v 0 c -1.27355,0.79474 -2.74392,1.27964 -4.18582,1.66743 -1.86973,0.2562 -3.75932,0.42774 -5.63436,0.10141 -3.52487,-0.53312 -6.98355,-1.40956 -10.34758,-2.59481 -1.49196,-0.48826 -3.00986,-0.89209 -4.49899,-1.38505 -4.83895,-1.60187 -11.77041,-7.36961 10.09527,6.16991 -1.90155,-0.95539 -2.93917,-2.15906 -4.27944,-3.79714 -2.0298,-2.35978 -4.04588,-4.71895 -5.79004,-7.30712 -1.7684,-2.04874 -3.02796,-4.50437 -4.24556,-6.90437 -0.82193,-1.89014 -1.3306,-3.89084 -2.51677,-5.61319 -1.08545,-2.07835 -1.38854,-4.46152 -2.43484,-6.56669 -0.0731,-0.34758 -0.1132,-0.70379 -0.2194,-1.04273 -0.18029,-0.57536 -0.35631,-0.55986 -0.63273,-1.07305 -0.11401,-0.21168 -0.1593,-0.45724 -0.28268,-0.6636 -0.24167,-0.40419 -0.69905,-0.65998 -0.81656,-1.15293 -1.31477,-1.4534 -3.13055,-2.32898 -4.41968,-3.83055 -1.18239,-1.0501 -2.66672,-1.75519 -3.52671,-3.14327 -1.02645,-1.82228 -2.37718,-3.44703 -2.66687,-5.59833 -0.67155,-2.57145 -1.00702,-5.20392 -1.27797,-7.84493 -0.1937,-2.88176 -0.60938,-5.73099 -0.90315,-8.60077 -0.28054,-1.72623 -0.17891,-3.51009 -0.66029,-5.21201 -0.54395,-1.74932 -1.24342,-3.4441 -1.95282,-5.13082 -0.66011,-2.2514 -1.95317,-4.21097 -2.89359,-6.34996 -1.2765,-2.86332 -2.85909,-5.52864 -4.86847,-7.94989 -2.07787,-2.87854 -4.26268,-5.67945 -6.01756,-8.77596 -1.42316,-2.88771 -2.63065,-5.87867 -4.0835,-8.75263 -1.28231,-2.31584 -2.86879,-4.44839 -3.94592,-6.87999 -1.21867,-2.46097 -2.40052,-4.955 -3.85003,-7.28872 -2.20348,-3.62767 -4.80889,-6.98355 -7.37264,-10.36179 -2.78921,-3.35037 -5.63181,-6.6744 -7.71799,-10.53058 -1.31068,-2.23512 -2.37538,-4.65955 -3.08711,-7.14984 -1.11075,-4.98263 -1.56353,-10.09026 -1.60138,-15.1915 0.0623,-4.01355 0.16997,-8.02588 0.17734,-12.04021 0.0758,-3.26445 0.2002,-6.53055 0.58746,-9.77565 0.57617,-4.80483 1.25532,-9.61541 2.21375,-14.35733 0.78998,-2.62587 1.7406,-5.19431 2.56127,-7.81045 0.65237,-1.82199 1.33153,-3.63287 1.93006,-5.4722 0.65909,-2.99515 1.08745,-6.032 1.68132,-9.04116 0.42232,-3.00897 0.48378,-6.05328 1.04916,-9.0408 0.36626,-1.47301 0.73213,-2.92923 1.41812,-4.29787 0.18711,-0.59864 0.40793,-1.18756 0.56504,-1.79477 0.36578,-1.41374 0.36144,-2.90045 0.75631,-4.31042 0.68406,-2.86101 1.19795,-5.74296 1.82094,-8.61784 0.93582,-3.52666 1.96437,-7.05967 3.62839,-10.32262 1.53273,-3.07147 3.0399,-6.16885 5.39418,-8.72065 2.67049,-2.72003 5.7981,-4.94643 9.01871,-6.97399 2.98704,-1.64177 6.01329,-3.2062 9.07564,-4.70499 3.41514,-1.72167 6.78023,-3.54165 10.24972,-5.1547 3.20818,-1.43156 6.49011,-2.74114 9.93544,-3.48243 3.71069,-0.85448 7.41747,-1.74268 11.16257,-2.43373 2.57733,-0.51232 5.17778,-0.89231 7.74999,-1.43414 3.20117,-0.53855 6.42026,-0.93592 9.66153,-1.13863 4.14354,-0.32005 8.29443,-0.41904 12.44955,-0.26994 3.43422,0.0423 6.87086,0.0341 10.30027,0.25113 4.91072,0.32916 9.80713,0.83703 14.68696,1.4787 3.24284,0.5943 6.4049,1.43293 9.52761,2.49413 1.50693,0.44376 3.00015,0.89738 4.45787,1.48794 0.44755,0.18131 1.74295,0.82468 1.32963,0.575 -3.41141,-2.06078 -16.097,-9.40902 -10.32576,-6.02821 0.19353,0.12186 2.27169,1.42783 2.40768,1.52452 1.85377,1.31808 3.53342,2.87367 5.33278,4.26159 2.44856,1.84993 4.80275,3.79764 6.99942,5.94296 2.57106,2.61824 5.00252,5.36024 6.93402,8.49869 1.68761,2.38461 3.54492,4.65281 4.85958,7.2836 1.72411,2.85454 3.20892,5.819 4.6294,8.83581 1.56565,3.09972 3.10849,6.21117 4.71788,9.2885 1.52141,2.9054 3.24311,5.69653 4.67167,8.65052 1.39781,2.77636 2.55736,5.68451 3.39305,8.68069 0.69118,2.43314 1.49316,4.85415 1.4794,7.41912 0.003,2.73011 -0.0413,5.46046 -0.0499,8.19057 -0.0646,2.73127 -0.18512,5.46376 -0.59128,8.16942 -0.38197,2.62826 -0.72534,5.26147 -1.2588,7.86386 -0.43305,1.94506 -0.7339,3.91882 -1.34437,5.8215 -0.84972,3.11283 -2.12685,6.07153 -3.66843,8.9057 -1.66653,2.8628 -3.23674,5.78238 -4.81981,8.69205 -1.54257,3.14004 -2.28058,6.55123 -3.2075,9.91109 -0.88986,3.42486 -1.84543,6.82638 -3.09222,10.13748 -1.07801,2.87341 -2.11178,5.76361 -3.0997,8.67016 -1.03661,2.80684 -1.87663,5.71294 -3.39575,8.31118 -0.93259,2.08703 -2.30535,3.92548 -3.41973,5.91558 -1.17321,2.34816 -2.40882,4.65751 -3.67926,6.95395 -1.03274,1.95911 -2.03236,3.94155 -2.88856,5.98372 -0.86032,2.44444 -1.55207,4.91225 -2.0312,7.4618 -0.53932,2.89386 -1.19813,5.72687 -2.4056,8.43401 -1.16888,3.30618 -2.329,6.61797 -3.72667,9.83668 -1.18523,3.27185 -2.00206,6.40868 -1.70896,9.92334 -0.0424,3.65275 -0.16071,7.30982 -0.6362,10.936 -0.26047,2.10093 -0.32534,4.24607 -1.05211,6.25942 -0.68694,2.02724 -1.21937,4.12547 -2.30429,5.99105 -1.10024,1.97641 -2.04418,4.0537 -3.45162,5.84151 -0.92634,1.20785 -1.96667,2.30414 -3.04927,3.37332 -1.33771,1.12182 -2.84891,1.99559 -4.22601,3.06813 -2.19394,1.49396 -4.40211,3.09355 -6.06385,5.18664 -0.89847,1.33389 -1.79621,2.68757 -2.31646,4.22351 -0.64689,1.51644 -1.04735,3.13128 -1.44601,4.72636 -0.42558,2.14357 -0.52312,4.35151 -1.09987,6.4716 -0.53447,2.76278 -1.45119,5.42508 -2.59334,7.99612 -1.07213,2.63789 -2.09554,5.31219 -3.49083,7.80006 -1.26531,2.25967 -2.76551,4.393 -4.53174,6.29253 -1.96555,2.13667 -3.93504,4.28968 -6.21787,6.09776 z" /><path
       style="fill:#ff6600"
       id="path2"
       d="m 222.53789,415.72187 c 5.11074,0.44042 10.22733,0.80069 15.33207,1.31418 7.47243,0.69515 14.98779,0.77799 22.48507,1.04938 4.82089,0.15453 9.64447,0.15167 14.46713,0.18988 2.91912,0.0459 5.83823,0.0432 8.75751,0.0245 2.96899,-0.004 5.9263,0.0642 8.88367,-0.22183 0,0 -12.05736,-8.59019 -12.05736,-8.59019 v 0 c -2.90532,0.25979 -5.82302,0.14987 -8.73685,0.15994 -2.88666,-0.0137 -5.773,-0.007 -8.65935,0.0456 -4.72448,0.0394 -9.44902,0.0269 -14.17348,-0.0174 -7.48845,-0.0706 -14.97818,-0.30084 -22.42619,-1.14007 -5.32979,-0.52006 -10.66486,-0.98892 -15.98368,-1.61344 z" /><path
       style="fill:#ff6600"
       id="path3"
       d="m 217.19838,381.65327 c 5.02874,-1.0721 10.17148,-1.39988 15.2938,-1.66137 5.79237,-0.0457 11.58666,0.43797 17.3554,0.93936 6.30474,0.52956 12.59342,1.19173 18.90647,1.629 5.50203,0.40823 11.0015,0.80906 16.51332,1.06737 3.64067,0.16869 7.28553,0.19933 10.92924,0.24142 2.4156,-0.008 4.80985,0.19874 7.17591,-0.35283 2.1461,-0.61315 4.14903,-1.58653 6.18209,-2.48593 1.63317,-0.78312 3.3069,-1.52963 5.04465,-2.05089 0.22631,-0.10505 0.45263,-0.2101 0.67895,-0.31514 0,0 -12.42839,-8.2797 -12.42839,-8.2797 v 0 c -0.19808,0.0776 -0.39616,0.15524 -0.59425,0.23286 -1.72011,0.65569 -3.40194,1.40614 -5.06569,2.19304 -1.94332,0.85845 -3.85573,1.83749 -5.97335,2.20249 -2.30004,0.2877 -4.62543,0.15231 -6.93859,0.19009 -3.56441,0.0162 -7.12917,-0.017 -10.69177,-0.13894 -5.43026,-0.21018 -10.84507,-0.64888 -16.27113,-0.9381 -6.3694,-0.45467 -12.70306,-1.2283 -19.06471,-1.76734 -5.76907,-0.45043 -11.55971,-0.84355 -17.34901,-0.70245 -5.28873,0.24357 -10.54559,0.72695 -15.7901,1.45769 z" /><path
       style="fill:#ff6600"
       id="path4"
       d="m 221.94625,239.52939 c 3.42432,-0.0908 6.85603,-0.20135 10.27703,0.004 1.51407,0.28425 3.10008,0.32428 4.5672,0.83986 1.36846,0.48091 2.63744,1.30737 3.90711,1.99447 5.05812,3.0842 0.20952,0.11459 -10.51904,-6.0079 -0.32828,-0.18734 0.64121,0.40038 0.96325,0.59824 1.03259,0.63441 2.04707,1.28707 3.05663,1.95781 1.92043,1.38009 3.79958,2.81805 5.67027,4.26457 1.83144,1.47211 3.36463,3.20881 4.80824,5.049 1.5823,1.90188 2.66042,4.09464 3.45069,6.42263 0.80073,2.57743 1.68002,5.12619 2.29656,7.75581 0.42822,2.45528 0.65681,4.93085 1.09703,7.38707 0.53869,2.80452 0.72736,5.6548 0.81638,8.50384 -0.0891,2.94559 0.58422,5.80541 1.13213,8.67617 0.67934,3.48719 0.81213,7.04059 0.89636,10.58191 -0.002,3.82261 0.66613,7.60119 1.15658,11.38133 0.4232,3.07694 0.64655,6.17438 0.77708,9.27585 0.0856,2.71738 0.10859,5.43612 0.10816,8.15469 -0.0845,2.64944 -0.47366,5.2904 -0.99276,7.88732 -0.61437,2.23754 -1.26664,4.46256 -1.73446,6.73683 -0.50369,2.45913 -0.48245,4.97924 -0.66878,7.47211 -0.29339,1.85685 -0.80658,3.66574 -1.10437,5.52234 -0.11141,1.74043 -0.25782,3.46693 -0.48194,5.19686 -0.24136,1.62457 -0.75624,3.18459 -1.14916,4.77312 -0.22868,1.11078 -0.12594,0.557 -0.30907,1.66117 0,0 13.17736,6.96344 13.17736,6.96344 v 0 c 0.13731,-1.02999 0.0565,-0.51456 0.24303,-1.54619 0.39016,-1.64434 0.91992,-3.25166 1.20759,-4.92207 0.2315,-1.72187 0.45504,-3.43195 0.50627,-5.17102 0.22532,-1.90585 0.67953,-3.76613 1.03209,-5.65058 0.23193,-2.43685 0.13606,-4.90428 0.59733,-7.32043 0.44662,-2.28086 1.11938,-4.50615 1.72521,-6.74857 0.52233,-2.69685 0.95243,-5.42263 1.06716,-8.17029 0.004,-2.72629 0.06,-5.45327 -0.0166,-8.17895 -0.13302,-3.18407 -0.4962,-6.35084 -0.93652,-9.50633 -0.51854,-3.70524 -1.02688,-7.43374 -1.08807,-11.17842 -0.13582,-3.60338 -0.29163,-7.22193 -0.81211,-10.79255 -0.51169,-2.79684 -1.18849,-5.5833 -1.15754,-8.44562 -0.12249,-2.90462 -0.24133,-5.82025 -0.73259,-8.69109 -0.43449,-2.47185 -0.73312,-4.94649 -1.02525,-7.4387 -0.61417,-2.66596 -1.46248,-5.25785 -2.26506,-7.87122 -0.72623,-2.43574 -1.6024,-4.86841 -3.22112,-6.86952 -1.41472,-1.94111 -2.80778,-3.76082 -4.64756,-5.32545 -1.73637,-1.64686 -3.83065,-2.88925 -5.67968,-4.4078 -1.26369,-0.9757 -2.5943,-1.81654 -3.97068,-2.61704 -15.17007,-8.82283 -8.91529,-5.41847 -14.77142,-8.59091 -0.88765,-0.44402 -1.71984,-0.89 -2.65687,-1.23144 -1.95559,-0.71259 -4.0449,-0.86357 -6.1032,-1.0109 -3.52867,-0.0813 -7.05963,-0.0253 -10.58736,-0.15451 z" /><path
       style="fill:#ff6600"
       id="path5"
       d="m 247.67467,362.77601 c 0.091,2.11825 0.0761,4.23968 0.0591,6.35933 -0.14695,1.66441 -0.14577,3.40867 -0.72363,4.99447 0,0 13.04776,7.25841 13.04776,7.25841 v 0 c 0.69117,-1.75581 0.66938,-3.66046 0.89666,-5.51655 -0.0168,-2.09956 -0.0334,-4.20106 0.059,-6.29915 z" /><path
       style="fill:#ff6600"
       id="path6"
       d="m 259.67009,371.60707 c -0.17431,-3.26874 0.46197,-6.54053 1.15083,-9.72331 0.5859,-2.92458 1.69812,-5.71217 2.80973,-8.46976 1.1763,-3.08267 2.50376,-6.10351 3.57796,-9.22492 0.89643,-2.78267 1.39485,-5.66538 1.6086,-8.57494 0.15369,-2.32053 0.0568,-4.63915 0.23845,-6.95786 0.32268,-2.71166 0.35264,-5.44269 0.40135,-8.16921 0.087,-2.72645 -0.0905,-5.45316 -0.50624,-8.14695 -0.34724,-1.83367 -0.54912,-3.68258 -0.63431,-5.54537 -0.12446,-2.42434 -0.44529,-4.83129 -0.59408,-7.25636 -0.13151,-3.14919 -0.20079,-6.30075 -0.25456,-9.45218 -0.0523,-4.04791 0.0332,-8.09522 -0.0183,-12.14307 -0.10818,-4.59274 0.23529,-9.1739 0.81135,-13.72645 0.44388,-2.98163 1.52097,-5.73823 2.95695,-8.3635 1.23476,-2.31341 3.0528,-4.23425 4.86399,-6.10431 1.83568,-1.64802 3.45772,-3.54175 5.40425,-5.06009 1.53394,-1.34954 3.15135,-2.52778 4.98014,-3.43315 1.88529,-0.83212 3.67804,-1.86017 5.54469,-2.73414 2.29907,-1.04468 4.5841,-2.13397 6.99412,-2.89882 1.99225,-0.61327 4.06424,-0.72244 6.13183,-0.77086 1.70583,-0.0746 3.33076,-0.008 5.00798,0.28351 5.07178,2.16069 -0.2228,-0.0672 -11.75728,-6.66921 -0.009,-0.005 0.50478,0.0309 0.54522,0.14853 0.0777,0.22586 -0.32147,0.74965 -0.35914,0.81263 -1.19252,1.68942 -2.83422,2.97149 -4.48527,4.18551 -1.78402,1.37516 -3.72649,2.50354 -5.63563,3.68669 -1.98708,1.44807 -4.14741,2.64977 -6.08976,4.15603 -1.18967,0.7272 -2.28826,1.6244 -3.56251,2.20881 -0.59034,0.27075 -1.20533,0.48535 -1.79612,0.7551 -1.77119,0.94807 -3.57867,1.82101 -5.37415,2.72332 -1.60995,1.03802 -3.31784,1.93639 -5.1587,2.4816 -1.85004,0.34982 -3.73964,0.36245 -5.61576,0.37063 -1.72083,-0.0142 -3.44167,-0.007 -5.16252,-0.0171 -1.79624,-0.005 -3.64604,-0.4782 -5.18269,-1.41229 -4.70638,-2.61328 -2.07551,-1.15673 11.39878,6.55105 0.22408,0.12818 -0.44704,-0.25871 -0.66404,-0.39856 -0.62049,-0.39988 -1.22295,-0.82699 -1.80644,-1.27833 -1.58036,-1.08154 -2.86088,-2.48852 -4.15209,-3.88436 -1.44067,-1.75123 -3.03595,-3.35737 -4.64715,-4.9497 -1.84861,-1.85127 -3.75383,-3.64345 -5.62956,-5.46679 -1.21748,-1.15233 -2.37805,-2.36166 -3.6215,-3.48643 -1.31967,-1.02463 -2.70449,-1.95011 -4.06807,-2.91519 -4.49476,-2.60997 -8.98765,-5.22319 -13.48429,-7.82991 -1.31568,-0.76271 -2.52181,-1.1271 -4.02895,-1.28821 -1.24352,0.0185 -2.56401,-0.32632 -3.80565,-0.15794 -0.6941,0.0941 -1.09407,0.36867 -1.69677,0.68347 -1.30745,0.70141 -2.82303,1.75832 -3.82785,2.87011 -0.95318,0.85915 -1.53188,1.98239 -2.07064,3.12316 -0.57864,1.18855 -0.9352,2.67376 -0.0289,3.82831 0.24862,0.31672 0.57989,0.55876 0.86983,0.83814 12.81167,7.63665 11.30669,7.66208 21.55724,8.79519 2.54577,0.25451 5.09887,0.82192 7.52523,1.63999 1.56425,0.6098 3.02292,1.38749 4.51601,2.13789 -0.38931,-0.1921 1.8399,1.08903 1.37682,0.82206 -28.32821,-16.3322 -2.50078,-1.43722 1.62232,0.8956 1.25751,0.56801 0.65428,0.24922 1.81187,0.95226 -28.07391,-16.17179 -2.23546,-1.27769 1.78945,0.99617 4.00026,2.25993 -7.96101,-4.58919 -11.95071,-6.86773 -0.26773,-0.1529 0.52328,0.32622 0.7842,0.49047 1.10563,0.696 0.39339,0.26515 1.50583,0.92118 1.55926,0.84312 2.90911,1.97574 4.29099,3.06826 0.80494,0.87936 2.13169,1.32903 2.8314,2.30896 14.5104,5.74731 16.5872,8.99785 12.78624,4.51987 -1.23587,-1.456 -2.40916,-2.95633 -3.60013,-4.44866 -1.7434,-1.99213 -3.54906,-3.92236 -5.20484,-5.99009 -1.32496,-1.75467 -2.97746,-3.18635 -4.65686,-4.58383 -1.45204,-1.20523 -2.83122,-2.49571 -4.28291,-3.70098 -6.76488,0.97643 -9.58813,-6.40891 -14.89779,-8.57219 -0.72729,-0.29631 -1.48635,-0.45343 -2.21827,-0.73848 -1.97269,-0.49459 -3.03295,-0.88033 -4.05861,1.20199 -0.52193,2.5168 2.21445,4.05681 3.957,5.30223 6.31187,4.09558 12.4183,9.04584 19.68236,11.21167 0.94504,0.47254 1.9954,0.67088 2.97684,1.03696 0.67451,0.25159 0.91242,0.43757 1.51121,0.80762 -4.04871,-2.32125 -8.09742,-4.6425 -12.14614,-6.96375 0,0 13.87675,5.4809 13.87675,5.4809 v 0 c -9.34726,-5.47843 -10.53457,-7.03383 -17.93494,-9.49826 -4.59579,-1.91038 -10.93341,-6.12521 9.6627,5.84319 0.4174,0.24256 -0.84378,-0.47068 -1.24946,-0.73237 -0.44323,-0.28591 -0.86342,-0.60605 -1.29512,-0.90907 -0.47483,-0.30043 -0.94966,-0.60086 -1.42449,-0.90128 -0.84787,-0.57307 -1.73462,-1.09127 -2.55003,-1.70965 -1.72804,-1.3105 0.0296,-0.18368 -1.4108,-1.20693 -0.13477,-0.0957 -0.30435,-0.14079 -0.42803,-0.25047 -0.0613,-0.0543 -0.0699,-0.14813 -0.10491,-0.22219 -0.15521,-0.0839 0.35336,0.0182 0.52699,0.0496 0.42039,0.0759 1.0174,0.24463 1.40997,0.37225 0.25445,0.0827 0.50382,0.18034 0.75573,0.27051 5.25924,1.76755 13.55312,8.88299 -8.528,-5.32617 1.65621,0.92092 2.9448,2.3775 4.38671,3.58887 1.66266,1.39699 3.44446,2.66284 4.84916,4.339 1.65415,2.0924 3.35025,4.14425 5.23197,6.03964 0.96233,1.10154 1.77077,2.28504 2.68368,3.42211 0.26306,0.32764 0.57607,0.61296 0.83949,0.94031 0.20886,0.25956 0.27423,0.67423 0.57501,0.8175 4.67598,2.22724 9.48799,4.15687 14.23198,6.2353 -0.59246,-0.4558 -1.04922,-1.06807 -1.64355,-1.52333 -0.21073,-0.16142 -0.45406,-0.27654 -0.66726,-0.43468 -0.22464,-0.16664 -0.4293,-0.35864 -0.64395,-0.53796 -1.40186,-1.10153 -2.71544,-2.30238 -4.23334,-3.24711 -0.76377,-0.46848 -1.53271,-0.94256 -2.30502,-1.39389 -44.64865,-26.09189 29.67786,17.32548 -15.26867,-8.8299 -0.61539,-0.30851 -2.43434,-1.28502 -1.84039,-0.93701 3.95089,2.31491 15.81961,9.23184 11.88093,6.89624 -4.85668,-2.87996 -9.86171,-5.94345 -14.93127,-8.63353 -1.47634,-0.77281 -3.05355,-1.35549 -4.63524,-1.87173 -2.48081,-0.61388 -4.975,-1.18181 -7.53455,-1.34152 -1.55248,-0.19894 -3.12171,-0.37342 -4.65853,-0.67693 -5.29237,-1.04518 -11.65395,-5.56881 8.70779,5.97228 -0.33341,-0.0877 -0.68596,-0.12131 -1.00023,-0.26303 -0.26366,-0.1189 -1.09016,-0.85768 -1.10494,-1.20608 -0.007,-0.15707 0.37034,-1.01534 0.42459,-1.14516 0.49398,-1.00103 0.99717,-1.96909 1.84256,-2.73213 0.97298,-0.98851 2.17395,-1.82482 3.45463,-2.35249 1.61621,-0.43736 3.35289,-0.0755 4.98041,0.15227 4.88854,1.31466 15.66938,9.69143 -8.20941,-5.26278 0.78003,0.48689 1.47898,1.07874 2.25797,1.56285 0.20318,0.12627 0.43959,0.19711 0.63356,0.33712 0.19896,0.14362 0.3564,0.33739 0.5346,0.50609 0.20871,0.13778 0.41743,0.27557 0.62614,0.41336 1.45038,0.88464 2.54375,2.21688 3.76016,3.38702 1.99144,1.7077 3.80585,3.62401 5.70705,5.43054 1.58018,1.58062 3.23895,3.1072 4.62249,4.86622 1.27896,1.40437 2.45191,2.92832 3.96992,4.08605 0.3923,0.30072 0.74376,0.65266 1.13858,0.95007 4.7429,3.57269 10.06896,6.42657 15.43577,8.96931 1.79885,0.60804 3.65748,1.0013 5.56779,0.89907 1.72756,0.003 3.4555,0.0386 5.18265,-0.0124 1.97998,-0.0721 3.98823,-0.14733 5.89243,-0.74842 1.83491,-0.72891 3.55325,-1.69875 5.27183,-2.66557 1.74797,-0.94121 3.54384,-1.78569 5.32007,-2.67164 1.94421,-0.90008 3.79226,-1.95142 5.49802,-3.25882 1.94371,-1.43748 3.98897,-2.72931 6.01956,-4.03855 1.94694,-1.21557 3.89977,-2.42089 5.73803,-3.80053 1.72163,-1.39572 3.47221,-2.79184 4.79974,-4.58823 0.41944,-0.62352 0.63708,-0.84049 0.85563,-1.54934 0.0407,-0.1321 0.35936,-1.35332 0.0459,-1.54474 -12.2022,-7.45043 -8.38922,-6.80469 -14.13976,-7.63926 -1.70571,-0.18095 -3.42206,-0.1155 -5.13322,-0.0398 -2.14909,0.13595 -4.27839,0.39767 -6.30791,1.16758 -2.42486,0.8953 -4.79318,1.94818 -7.14834,3.0111 -1.85209,0.93048 -3.70704,1.85333 -5.57058,2.75937 -1.87173,0.99951 -3.48968,2.33125 -5.1084,3.69545 -1.96175,1.58301 -3.55079,3.5814 -5.42044,5.27368 -1.91421,1.96613 -3.83929,3.95862 -5.14352,6.40137 -1.53506,2.79985 -2.45629,5.82844 -2.9881,8.97683 -0.56861,4.60184 -0.9114,9.23886 -0.91211,13.8774 -0.0553,4.04463 0.0237,8.08874 -0.0128,12.13354 -0.0323,3.15235 -0.0975,6.30709 0.0952,9.45616 0.11689,2.39537 0.29645,4.78601 0.47078,7.17522 0.0796,1.9244 0.16225,3.85466 0.59702,5.73937 0.50473,2.61749 0.83911,5.27632 0.74031,7.94878 -0.0559,2.68904 -0.17039,5.37626 -0.42378,8.05486 -0.19634,2.32294 -0.29266,4.63965 -0.27478,6.97173 -0.13901,2.80395 -0.44191,5.60717 -1.29121,8.29763 -1.05233,3.10105 -2.41686,6.07268 -3.61802,9.11286 -1.14128,2.83779 -2.27681,5.72343 -2.8668,8.73125 -0.67151,3.25768 -1.28671,6.55584 -1.5275,9.87389 z" /><path
       style="fill:#ff6600"
       id="path7"
       d="m 383.98577,353.3128 c 7.04586,1.93442 13.76604,4.83261 20.2546,8.15692 4.72694,2.55084 2.21152,1.1485 6.77885,3.78824 1.02713,0.59364 4.11269,2.3673 3.08294,1.77823 -3.18169,-1.8201 -12.71417,-7.30232 -9.53876,-5.4713 14.58896,8.41234 9.70798,5.79701 16.60376,9.44966 2.79779,1.47007 5.70764,2.5597 8.81015,3.14303 3.39272,0.3995 6.81676,0.38984 10.22793,0.44469 1.73395,0.0363 3.4682,0.0163 5.20232,0.0161 0,0 -11.96747,-8.68879 -11.96747,-8.68879 v 0 c -1.70667,0.0112 -3.41337,0.006 -5.12005,0.0185 -3.36656,-0.0161 -6.76409,-0.041 -10.077,-0.70816 -2.93455,-0.73609 -5.71048,-1.92465 -8.39088,-3.3238 -0.64729,-0.34639 -2.57311,-1.414 -1.94187,-1.03917 3.31697,1.96964 13.34942,7.73942 10.00057,5.82447 -8.19387,-4.68545 -16.26455,-9.62279 -24.63186,-14.00299 -6.77216,-3.33386 -13.77432,-6.13119 -20.97006,-8.42204 z" /><path
       style="fill:#ff6600"
       id="path8"
       d="m 400.26102,271.31003 c 5.73535,0.36368 11.47678,0.60266 17.22066,0.80955 6.48394,0.20666 12.92515,0.87655 19.35586,1.68999 4.30564,0.45484 8.59891,1.02099 12.91137,1.41392 3.33879,0.35114 6.69867,0.40588 10.01278,0.95086 0.99098,0.16361 1.98414,0.24621 2.97669,0.40314 0,0 -11.85956,-8.88343 -11.85956,-8.88343 v 0 c -1.0006,-0.1362 -2.00053,-0.27786 -3.00278,-0.40155 -3.23671,-0.34154 -6.50346,-0.30059 -9.73853,-0.68308 -4.29927,-0.46687 -8.58088,-1.0865 -12.89404,-1.42626 -6.36907,-0.64404 -12.74189,-1.23536 -19.14571,-1.40044 -5.97983,-0.23704 -11.93973,-0.67896 -17.8971,-1.23506 z" /><path
       style="fill:#ff6600"
       id="path9"
       d="m 406.16242,201.46148 c 8.7815,-4.98243 18.44695,-8.17617 27.97032,-11.41522 7.37113,-2.29272 14.53445,-5.11052 21.63014,-8.12891 2.8092,-1.20718 5.26893,-2.99835 7.76368,-4.72946 0,0 -12.37139,-7.88728 -12.37139,-7.88728 v 0 c -2.39769,1.67007 -4.80266,3.33962 -7.43786,4.62359 -6.77432,3.25258 -13.72744,6.07849 -20.84659,8.49743 -9.76259,3.40721 -19.48817,6.92843 -29.02304,10.93719 z" /><path
       style="fill:#ff6600"
       id="path10"
       d="m 351.19754,154.32464 c 3.46499,-7.25221 8.81876,-13.38398 14.06645,-19.39159 6.36268,-6.40131 11.55659,-13.78251 16.99899,-20.94364 4.34445,-5.68677 8.60062,-11.44103 12.94413,-17.12851 2.20044,-2.871796 1.12838,-1.470517 3.21646,-4.203608 0,0 -12.43425,-7.369297 -12.43425,-7.369297 v 0 c -1.99208,2.77409 -0.94809,1.358764 -3.13867,4.241024 -4.2268,5.753674 -8.19464,11.695101 -12.55524,17.352051 -5.38539,7.16128 -10.74011,14.3533 -16.83727,20.93863 -6.93743,8.18952 0.4699,-0.61144 -6.58592,7.95329 -2.95765,3.59015 -6.00172,7.10834 -8.58728,10.98526 z" /><path
       style="fill:#ff6600"
       id="path16"
       d="m 241.08347,46.928241 c 1.00283,4.600514 1.19873,9.329048 1.41522,14.017588 0.0887,6.645092 0.2243,13.289982 0.27889,19.935807 0.0136,5.957363 -0.0691,11.914947 -0.22638,17.870165 -0.001,1.762639 -0.30739,3.549009 -0.0627,5.305009 0.23187,1.20524 0.95043,2.1892 1.31607,3.3472 0,0 13.41491,6.42249 13.41491,6.42249 v 0 c -0.0191,-0.0972 -0.33274,-1.71952 -0.37572,-1.84106 -0.19079,-0.53962 -0.36794,-0.47311 -0.64836,-0.92715 -0.0934,-0.15116 -0.14395,-0.32487 -0.21593,-0.48731 -0.52339,-1.67862 -0.27077,-3.45568 -0.43313,-5.19674 -0.1473,-6.032218 -0.22324,-12.066422 -0.21905,-18.100478 0.0358,-6.637457 0.16289,-13.271835 -0.12454,-19.90674 -0.0862,-4.617479 -0.17526,-9.238149 -0.68663,-13.832887 z" /><path
       style="fill:#ff6600"
       id="path17"
       d="m 146.03505,85.169013 c 3.29886,3.614442 5.9788,7.733915 8.61426,11.841014 2.72212,4.322823 5.08272,8.856763 7.67321,13.259263 3.00699,5.01425 6.33421,9.82308 9.6744,14.61816 1.41698,1.98386 3.05814,3.78156 4.45163,5.78213 1.02023,1.53124 2.09226,3.03467 3.20414,4.50116 0.59494,0.72865 0.30171,0.35631 0.87908,1.11749 0,0 13.70944,5.90215 13.70944,5.90215 v 0 c -0.58373,-0.77563 -0.2957,-0.38095 -0.86362,-1.18438 -1.23554,-1.3603 -2.23698,-2.91912 -3.34193,-4.38075 -0.57501,-0.92642 -1.1718,-1.89845 -1.85973,-2.74665 -0.88916,-1.09634 -1.99091,-2.02781 -2.78903,-3.20407 -3.59953,-4.67363 -6.99113,-9.52361 -10.00929,-14.594 -2.5114,-4.42004 -4.80286,-8.97167 -7.51888,-13.26957 -2.61454,-4.005981 -5.20925,-8.037909 -8.10152,-11.85073 z" /><path
       style="fill:#ff6600"
       id="path18"
       d="m 83.729828,172.4286 c 5.641921,2.09536 11.294128,4.15717 16.988882,6.10687 6.85663,2.21529 13.31918,5.4284 19.69021,8.75412 4.79937,2.41348 9.31528,5.34725 14.1924,7.6073 0,0 -11.47986,-9.14857 -11.47986,-9.14857 v 0 c -4.60783,-2.2674 -9.02364,-4.89526 -13.61124,-7.203 -6.46723,-3.33155 -13.008318,-6.57844 -19.984788,-8.72155 -5.892591,-2.02572 -11.700471,-4.26809 -17.529071,-6.46718 z" /><path
       style="fill:#ff6600"
       id="path19"
       d="m 61.600838,257.56666 c 5.638547,0.27837 11.271314,0.94944 16.882135,1.59089 8.90713,1.00628 17.7885,2.28995 26.721477,3.05278 3.85705,0.19783 7.70072,0.49759 11.54904,0.81075 1.48344,0.21004 2.97061,0.38795 4.45944,0.55418 0,0 -11.81239,-8.79008 -11.81239,-8.79008 v 0 c -1.4961,-0.17625 -2.99012,-0.37177 -4.49017,-0.51245 -3.73667,-0.28765 -7.477044,-0.37126 -11.21923,-0.56726 -8.795315,-0.64138 -17.571632,-1.5338 -26.29813,-2.81931 -5.918234,-0.80992 -11.840289,-1.58287 -17.775343,-2.25555 z" /><path
       style="fill:#ff6600"
       id="path20"
       d="m 80.855243,354.61923 c 6.158361,-1.55303 12.418882,-2.65753 18.661275,-3.8101 6.127702,-1.28881 12.397052,-2.09487 18.398392,-3.91844 3.08158,-1.15509 6.08735,-2.47024 9.1914,-3.5619 2.48209,-0.82688 1.24115,-0.43717 3.72235,-1.17056 0,0 -12.06278,-8.23147 -12.06278,-8.23147 v 0 c -2.49519,0.77955 -1.23544,0.38377 -3.77916,1.1876 -3.10026,1.01234 -6.02575,2.43331 -9.07398,3.5879 -5.85463,1.79322 -11.90702,2.86357 -17.903475,4.06123 -6.442975,1.17437 -12.883933,2.44974 -19.387902,3.22985 z" /><path
       style="fill:#ff6600"
       id="path21"
       d="m 385.5478,354.11671 c 4.6979,-0.13074 9.40883,0.52113 14.04418,1.23257 3.45118,0.56216 6.95193,0.91961 10.33233,1.85323 0.66871,0.18468 3.29153,1.05472 3.93364,1.26554 5.65392,2.44197 19.75315,10.84988 -3.35628,-2.3884 5.63115,4.04656 11.6899,7.21394 17.73083,10.70827 -21.62811,-13.91587 -12.90039,-7.56699 -8.21516,-4.13498 2.08152,1.50644 4.26649,2.8731 6.49377,4.15351 0.0677,-0.23464 0.25747,-0.46587 0.20302,-0.70394 -0.0397,-0.17345 -0.26758,-0.24893 -0.43485,-0.3096 -0.71074,-0.25777 -1.48237,-0.30066 -2.21616,-0.48272 -1.11307,-0.27616 -2.21968,-0.57782 -3.33164,-0.85842 -3.96994,-1.40823 -7.80346,-3.15704 -11.60121,-4.9701 -2.26853,-1.53033 -4.81321,-2.525 -7.27346,-3.68425 -5.99408,-2.15444 -10.165,-5.61045 10.14757,8.05677 0.0312,0.021 1.92753,0.27823 2.01507,0.29031 1.06325,0.16181 2.01758,0.66589 3.03238,0.98647 0.32689,0.10327 0.6726,0.14667 0.99215,0.27079 0.23668,0.0919 1.62951,0.86565 1.82637,0.9736 0.33527,0.1851 1.33773,0.74633 1.00581,0.5553 -3.85339,-2.2178 -7.70433,-4.43995 -11.57035,-6.63566 -0.39795,-0.22602 0.7768,0.48413 1.16528,0.72608 0.36961,0.23021 0.73191,0.47263 1.109,0.69039 4.56198,2.63431 9.08937,5.33091 13.70753,7.86543 0.34097,0.18713 0.75528,0.18617 1.13292,0.27925 2.03511,0.30746 4.1182,0.56177 6.07746,1.22805 0.95014,0.43047 0.55536,0.28659 1.16166,0.48943 0.23607,-0.7023 0.70845,-1.366 0.70823,-2.10692 -8e-5,-0.27426 -0.47123,-0.28078 -0.70898,-0.41748 -4.5223,-2.60025 -9.02712,-5.23125 -13.57113,-7.79335 -0.22105,-0.12464 -2.40323,-0.99823 -2.44477,-1.01701 -0.57619,-0.26058 -1.13584,-0.5563 -1.70376,-0.83445 -2.75854,-1.26546 -5.39799,-2.8391 -8.29344,-3.78627 -2.17869,-0.71269 -3.52425,-0.94184 -5.77454,-1.4294 -1.06108,-0.18854 -4.15153,-0.74767 -5.33027,-0.92175 -0.45825,-0.0677 -0.91857,-0.18528 -1.38087,-0.15604 -0.17235,0.0109 -0.58084,0.16947 -0.44137,0.27132 12.26188,8.95423 7.88795,8.0944 14.18219,9.07987 0.44469,0.10922 0.90369,0.1713 1.33407,0.32765 0.51654,0.18765 1.00663,0.44355 1.49301,0.69941 0.50209,0.26411 1.96246,1.13938 1.46933,0.85889 -20.66456,-11.75397 -13.02546,-8.1872 -9.40646,-5.03144 0.17205,-0.42768 0.47103,-1.07331 0.32864,-1.50716 -0.0916,-0.27915 -3.51219,-1.83441 -3.8357,-1.99653 -2.47577,-1.21826 -5.11264,-2.15655 -7.44395,-3.64237 0,0 11.45348,9.2741 11.45348,9.2741 v 0 c 2.44866,1.27856 5.00956,2.32978 7.48428,3.5583 0.5134,0.25355 3.70349,2.05734 4.25925,1.885 1.22571,-0.3801 1.1674,-0.87828 1.47023,-1.8393 -0.61714,-0.77136 -0.88437,-1.22056 -1.80321,-1.77239 -5.455,-3.2761 -11.84673,-8.20026 -18.59052,-9.74386 -0.41427,-0.10229 -1.57509,-0.57453 -1.24279,-0.30686 3.69553,2.97678 7.66969,5.59247 11.41773,8.50285 0.0782,0.0607 -0.33178,0.15251 -0.23655,0.17943 0.34196,0.0967 0.71191,0.0117 1.06466,0.0546 0.77539,0.0944 1.54665,0.22185 2.316,0.35692 0.94243,0.16546 1.87894,0.36299 2.8184,0.54449 2.51178,0.63445 3.32207,0.75832 5.728,1.68108 2.88381,1.10604 5.57311,2.67385 8.37484,3.96018 1.08928,0.51349 2.19012,1.00273 3.27217,1.5313 0.35236,0.17214 1.38112,0.74308 1.04249,0.54528 -3.96493,-2.31589 -7.94506,-4.60568 -11.92241,-6.90017 -0.20896,-0.12054 0.41543,0.51073 0.61702,0.37822 0.61065,-0.4014 0.92567,-1.13102 1.38851,-1.69653 -2.32906,-0.5968 -4.72532,-0.90596 -7.02463,-1.61525 -5.0216,-2.33485 -1.29845,-0.63927 10.63228,6.2818 0.37892,0.21982 -0.76282,-0.43137 -1.13573,-0.66123 -0.38468,-0.23711 -0.7464,-0.51093 -1.13636,-0.73926 -13.06135,-7.6474 -9.11111,-5.60186 -14.80006,-8.51444 -1.95094,-0.87494 -4.02825,-1.52537 -6.14638,-1.83614 -0.37461,-0.0452 -0.74811,-0.10074 -1.12383,-0.13554 -0.35904,-0.0333 -1.34986,-0.30719 -1.07957,-0.0685 9.399,8.29945 7.43807,7.33418 13.53358,9.95578 2.41337,1.0978 4.78579,2.25868 7.10029,3.55621 3.83725,1.76944 7.71069,3.50148 11.75592,4.74519 1.57076,0.4132 5.8251,1.94242 7.23229,0.5339 0.35717,-0.35749 0.49796,-0.87949 0.74693,-1.31924 -0.15856,-0.23201 -0.25989,-0.51604 -0.4757,-0.69604 -0.17898,-0.14928 -2.5178,-1.43975 -2.61854,-1.5015 -1.15416,-0.70743 -2.27114,-1.48723 -3.4078,-2.22245 -5.50073,-4.12389 -10.20058,-7.94361 -17.16974,-10.69378 22.51841,13.09635 12.38913,7.51959 7.62017,4.02545 -7.13512,-4.19214 -14.12923,-8.91435 -21.90427,-11.90749 -1.51357,-0.47074 -2.47541,-0.80202 -4.01716,-1.15565 -3.35504,-0.76955 -6.804,-1.02288 -10.18827,-1.62328 -4.8708,-0.69985 -9.7672,-1.3129 -14.69152,-1.44218 z" /><path
       style="fill:#ff6600"
       id="path22"
       d="m 79.019104,174.60628 c 4.097654,-0.32389 8.152481,0.19446 12.199318,0.78749 5.615913,0.80846 11.102658,2.2289 16.502988,3.94276 3.13514,1.03308 6.23224,2.21792 9.19062,3.68975 4.54468,2.26105 14.25933,8.04228 -6.53048,-3.80738 3.1975,2.09333 6.28539,4.35408 9.13618,6.90132 1.33359,1.23001 2.63437,2.49759 3.86536,3.83052 0,0 13.72149,5.77137 13.72149,5.77137 v 0 c -1.24526,-1.42903 -2.58137,-2.7741 -3.99612,-4.0359 -2.81614,-2.6815 -5.94901,-4.97027 -9.13472,-7.1919 -8.97061,-5.23861 -17.42218,-10.89327 -27.434659,-13.81474 -5.50431,-1.7157 -11.064259,-3.23474 -16.810148,-3.8877 -4.244633,-0.60349 -8.476094,-1.03787 -12.770184,-0.94795 z" /></g></svg>
