<?xml version="1.0" encoding="UTF-8" standalone="no"?>
<!-- Created with Inkscape (http://www.inkscape.org/) -->

<svg
   width="512"
   height="512"
   viewBox="0 0 512 512"
   version="1.1"
   id="svg1"
   xml:space="preserve"
   inkscape:version="1.4.2 (f4327f4, 2025-05-13)"
   sodipodi:docname="importand.svg"
   xmlns:inkscape="http://www.inkscape.org/namespaces/inkscape"
   xmlns:sodipodi="http://sodipodi.sourceforge.net/DTD/sodipodi-0.dtd"
   xmlns="http://www.w3.org/2000/svg"
   xmlns:svg="http://www.w3.org/2000/svg"><sodipodi:namedview
     id="namedview1"
     pagecolor="#ffffff"
     bordercolor="#000000"
     borderopacity="0.25"
     inkscape:showpageshadow="2"
     inkscape:pageopacity="0.0"
     inkscape:pagecheckerboard="0"
     inkscape:deskcolor="#d1d1d1"
     inkscape:document-units="px"
     inkscape:zoom="1.5097656"
     inkscape:cx="255.66882"
     inkscape:cy="256"
     inkscape:window-width="1920"
     inkscape:window-height="991"
     inkscape:window-x="-9"
     inkscape:window-y="-9"
     inkscape:window-maximized="1"
     inkscape:current-layer="layer1" /><defs
     id="defs1" /><g
     inkscape:label="Layer 1"
     inkscape:groupmode="layer"
     id="layer1"><path
       style="fill:#ff6600"
       id="path1"
       d="m 94.158775,388.89735 c 2.223136,-1.0984 4.550962,-1.86712 6.913865,-2.59207 4.16492,-1.42626 8.59432,-1.54318 12.94868,-1.73504 4.96254,-0.13572 9.92688,-0.15993 14.89089,-0.12602 2.67021,0.0272 5.33995,0.086 8.01006,0.12034 1.90516,-0.008 3.81048,0.003 5.71559,-0.0121 2.37345,-0.33468 4.7805,-0.70253 7.05551,-1.47883 2.15689,-0.78082 4.26233,-1.69059 6.44084,-2.4256 2.99848,-0.96352 5.97952,-1.96584 8.9437,-3.02891 3.46928,-1.13287 6.69396,-2.79675 9.97701,-4.36566 3.40795,-1.66925 6.93011,-3.09435 10.24724,-4.94346 2.23981,-1.13992 4.33345,-2.53116 6.43895,-3.8956 2.00473,-1.23407 4.13456,-2.24245 6.16473,-3.43605 2.91378,-1.29232 5.73392,-2.77817 8.59015,-4.19104 3.21975,-1.50861 5.93536,-3.85075 8.79077,-5.93787 2.03977,-1.69819 4.31634,-3.08512 6.60208,-4.42314 2.89897,-1.49438 6.0051,-2.48008 9.11047,-3.46081 2.46916,-0.8472 5.12603,-1.11953 7.50825,-2.2269 1.05765,-0.49165 2.23722,-1.25076 3.22542,-1.85309 2.4819,-1.72282 4.91575,-3.51168 7.5537,-4.99252 2.48715,-1.24 5.18989,-1.88596 7.83009,-2.69288 2.05082,-0.66914 3.80383,-1.93581 5.77046,-2.78345 2.64618,-1.13066 5.4461,-1.58299 8.28695,-1.88962 5.45064,-0.7723 10.96124,-0.92251 16.45741,-1.01454 4.7022,-0.0508 9.40421,-0.0145 14.10616,0.0347 4.18315,-0.0215 8.35059,0.51053 12.51104,0.90391 3.75551,0.17035 7.46378,0.76443 11.19805,1.15328 4.90377,0.34199 9.77331,0.99851 14.63038,1.74683 5.20226,0.74521 10.27695,2.11709 15.43564,3.08567 3.93322,0.67767 7.92364,0.91826 11.90596,1.08587 2.74767,0.31836 5.50479,0.51705 8.26997,0.57046 3.96952,0.0482 7.9399,0.0346 11.90982,0.0449 3.62814,0.0142 7.25644,0.0111 10.88451,0.0389 3.64162,-0.0319 7.28337,-0.0406 10.92563,-0.0214 2.47509,0.0505 4.92742,0.13255 7.38331,-0.19249 1.81838,-0.56696 3.62389,-1.17759 5.43859,-1.76371 1.62609,-0.54955 2.67141,-1.71142 3.64414,-3.07014 0.9058,-1.49434 1.7045,-3.03062 2.17254,-4.71805 0.42056,-2.17779 0.49922,-4.41515 0.42037,-6.62715 -0.45861,-3.52705 -1.37221,-6.98558 -2.2341,-10.43283 -1.15667,-4.25254 -2.29414,-8.50321 -3.2467,-12.80872 -0.68005,-3.83939 -1.32183,-7.68366 -2.04615,-11.51516 -0.81479,-2.45253 -1.20838,-5.06294 -2.09347,-7.49267 -0.57706,-1.58416 -1.29527,-2.95163 -2.03392,-4.4631 -1.88136,-3.75237 -3.97739,-7.38705 -5.87552,-11.13093 -1.58904,-3.08807 -3.28209,-6.11814 -5.03583,-9.11506 -1.74813,-3.12874 -3.1948,-6.41589 -4.73883,-9.64834 -1.76013,-3.68195 -3.33634,-7.44364 -4.7505,-11.27093 -1.17029,-3.61005 -2.5065,-7.16636 -3.64185,-10.78707 -0.89029,-3.13765 -2.23271,-6.08884 -3.59228,-9.04073 -1.74943,-3.33735 -3.5657,-6.64472 -5.52392,-9.86447 -1.55288,-2.48031 -3.08971,-4.96842 -4.67436,-7.42831 -1.69567,-2.76658 -3.00592,-5.74148 -4.36728,-8.67988 -2.3443,-4.54897 -4.34713,-9.26045 -6.21173,-14.02311 -1.40142,-3.74054 -2.8382,-7.46788 -4.30179,-11.18455 -1.34719,-3.24469 -3.04973,-6.32825 -4.87866,-9.32305 -1.79678,-2.80145 -3.90861,-5.38504 -6.02111,-7.95115 -2.34819,-3.00174 -5.11988,-5.62345 -7.61688,-8.49335 -2.50949,-2.70529 -4.54296,-5.78403 -6.70795,-8.75828 -2.33339,-3.18693 -4.76176,-6.2966 -7.26058,-9.35441 -2.30729,-2.7936 -4.6646,-5.54564 -7.10924,-8.21995 -2.38223,-2.52732 -4.88819,-4.92238 -7.46443,-7.248933 -1.90715,-1.72855 -3.7261,-3.544571 -5.70071,-5.1962 -1.96792,-1.59454 -3.74145,-3.406577 -5.44432,-5.276346 -3.83409,-2.141592 -11.85933,-9.809026 -18.53361,-8.15447 -0.40707,0.100914 -0.78929,0.283882 -1.18394,0.425822 -2.27274,1.028928 -4.08835,2.806253 -5.48389,4.841807 -1.40636,2.108014 -2.14837,4.519729 -3.10779,6.838384 -1.3145,2.62507 -2.41839,5.315402 -3.23537,8.136656 -1.21106,3.69275 -1.53896,7.56682 -1.81862,11.41851 -0.17433,2.68 -0.091,5.3672 -0.73093,7.98821 -1.13429,3.09415 -3.66782,5.49744 -5.78015,7.95361 -2.70409,3.25459 -5.15188,6.74892 -7.1473,10.48268 -1.98535,4.208 -3.93677,8.42795 -6.28572,12.44806 -2.35973,4.24172 -4.6965,8.4861 -7.41077,12.5152 -1.84266,2.71796 -3.98846,5.21304 -5.90323,7.87473 -2.03077,3.25306 -4.49159,6.1856 -6.89197,9.16417 -2.86957,4.0024 -5.88489,7.44291 -9.49829,10.79351 -2.92706,2.90174 -6.33838,5.21587 -9.48912,7.85178 -2.14669,1.76072 -4.27725,3.54982 -6.27735,5.47686 -2.09957,2.07686 -4.12528,4.21929 -6.29463,6.22642 -2.28199,2.15668 -4.60517,4.25224 -7.07725,6.18909 -2.76593,1.93344 -5.33266,4.12442 -8.07988,6.0842 -1.78553,1.03741 -3.44244,2.28287 -5.18935,3.37808 -1.00432,0.62965 -2.06305,1.16807 -3.09043,1.75935 -3.93176,2.45429 -8.26487,3.99879 -12.65026,5.40445 -3.75255,1.03356 -7.5537,1.87044 -11.33607,2.78464 -3.64841,0.66661 -7.1999,1.73614 -10.58482,3.24803 -3.34147,1.46962 -6.33177,3.61531 -9.47919,5.44743 -3.3256,1.90022 -6.65777,3.77492 -10.1049,5.44798 -2.91872,1.27173 -5.67608,2.83111 -8.47697,4.3292 -2.47701,1.58168 -5.21495,2.70646 -7.65462,4.34172 -2.45715,1.5425 -4.89511,3.08925 -7.144195,4.92388 -2.649807,2.11756 -5.702225,3.61747 -8.57743,5.38625 -2.107249,1.1653 -4.059293,2.57496 -5.801832,4.23403 -1.540725,1.80991 -2.647363,3.99035 -3.690826,6.11746 -1.128649,2.58058 -2.811214,4.84815 -4.61608,6.98963 -1.936771,2.48026 -4.083445,4.70611 -6.588516,6.60915 -2.840044,2.03701 -6.027273,3.4973 -9.268948,4.76357 -2.453997,1.03668 -4.538838,1.63812 -6.448712,3.5687 -1.379649,1.43605 -2.45437,3.11315 -3.628064,4.70918 -1.149919,1.44471 -1.717997,3.14934 -2.081838,4.93191 -0.309188,2.05985 0.277704,4.13868 0.779402,6.12728 0.615995,2.25482 1.626451,4.35989 2.609712,6.46877 0.688255,2.31838 1.620779,4.5203 2.6581,6.70251 1.552236,3.00359 2.683624,6.193 3.508937,9.46537 0.541697,2.04228 0.998096,4.23186 2.171238,6.0337 0.338216,0.51946 0.736949,0.99692 1.105424,1.49538 3.150916,3.92524 6.566896,7.62746 9.849561,11.44208 1.328234,1.61877 2.87093,3.08702 4.003397,4.86111 0.299779,0.46962 0.937072,1.71377 1.166744,2.15145 1.380692,2.84687 2.442263,5.83115 3.586989,8.77689 0.592759,1.64902 1.233313,3.28173 1.911095,4.89767 0.09211,0.22159 0.184211,0.44318 0.276316,0.66477 0,0 13.587153,6.19659 13.587153,6.19659 v 0 c -0.102334,-0.19843 -0.204668,-0.39687 -0.307003,-0.59531 -0.649195,-1.6793 -1.465994,-3.28511 -2.088715,-4.97426 -1.205387,-2.95135 -2.35376,-5.92198 -3.509718,-8.89288 -0.576666,-1.15914 -1.061406,-2.39486 -1.800839,-3.46481 -1.005244,-1.45458 -2.319032,-2.67194 -3.489126,-3.98485 -3.264414,-3.7461 -6.648801,-7.39824 -9.71814,-11.30545 -1.786656,-2.15402 -2.865761,-4.20561 -3.500699,-6.95881 -0.828804,-3.32613 -1.845572,-6.62568 -3.330327,-9.72258 -1.064629,-2.1099 -2.095297,-4.25117 -2.581315,-6.57993 -0.829577,-2.14236 -2.209974,-4.0608 -2.702114,-6.34115 -0.3703,-1.00184 -0.501261,-1.97018 -0.731462,-3.00886 -0.0278,-0.12544 -0.363298,-1.47318 -0.373386,-1.65631 -0.01468,-0.26641 0.05094,-0.53119 0.07641,-0.79679 0.244464,-1.60256 0.695809,-3.09562 1.755639,-4.36547 1.061662,-1.55149 2.093276,-3.14432 3.424923,-4.48413 1.751054,-1.50107 3.920167,-2.2782 6.016513,-3.18572 3.328011,-1.3384 6.475195,-3.04673 9.388865,-5.15101 2.621447,-1.9481 4.951083,-4.17677 6.881191,-6.82562 1.858615,-2.24456 3.68207,-4.56897 4.84835,-7.26243 0.97207,-1.97674 2.024346,-3.97188 3.514675,-5.61136 1.657842,-1.5723 3.491001,-2.92905 5.472441,-4.07276 2.94163,-1.78687 5.97042,-3.44693 8.74403,-5.49528 2.24715,-1.74233 4.56887,-3.37571 7.02356,-4.817 2.48586,-1.49499 5.11756,-2.73724 7.58631,-4.26534 2.74917,-1.51938 5.55494,-2.91666 8.35712,-4.33601 3.44763,-1.71815 6.8268,-3.56194 10.1279,-5.54893 3.12556,-1.79071 6.13648,-3.80856 9.43779,-5.26821 3.36905,-1.38595 6.87549,-2.345 10.45004,-3.04585 3.76838,-0.92905 7.57056,-1.7465 11.25753,-2.97449 0.68528,-0.22943 4.21974,-1.4058 4.83655,-1.64142 2.80623,-1.07196 5.47935,-2.48647 8.11591,-3.91354 2.87888,-1.62336 5.69375,-3.34675 8.39843,-5.24952 2.72914,-1.99908 5.36086,-4.12661 8.07951,-6.13996 2.53771,-1.93572 4.91983,-4.0353 7.1842,-6.28638 2.15668,-2.04685 4.29088,-4.11726 6.43434,-6.17724 1.937,-1.92369 3.98735,-3.73981 6.12355,-5.43902 3.13189,-2.62994 6.26737,-5.25708 9.20622,-8.10564 1.39579,-1.27131 2.91635,-2.61374 4.23097,-3.97483 2.05652,-2.12922 3.6922,-4.60719 5.55614,-6.89718 2.41166,-3.00599 4.97049,-5.89841 7.10341,-9.11843 1.96029,-2.6482 3.90985,-5.29737 5.69665,-8.07022 2.67816,-4.08181 5.11887,-8.30674 7.48931,-12.57328 2.32585,-4.05384 4.27428,-8.29187 6.37744,-12.46247 1.90284,-3.66945 4.35264,-7.00543 6.92085,-10.23626 1.83812,-2.14245 3.98047,-4.2485 5.61065,-6.54589 0.46541,-0.65589 0.56709,-1.10573 0.82263,-1.84114 0.14442,-0.62519 0.35931,-1.49099 0.43713,-2.11695 0.25593,-2.05871 -0.0317,-4.15232 0.17428,-6.21566 0.20909,-3.74908 0.53962,-7.50886 1.72892,-11.0967 0.82915,-2.75121 1.9622,-5.37251 3.24114,-7.94355 0.95362,-2.209425 1.64422,-4.532663 2.99214,-6.552531 1.23794,-1.759174 2.85121,-3.296516 4.93538,-3.972972 1.09998,-0.200319 2.08785,-0.271977 3.20318,-0.0893 0.36967,0.06055 0.73913,0.135077 1.09552,0.250426 0.39119,0.126611 1.48892,0.68923 1.13927,0.472879 -3.85831,-2.387409 -7.78504,-4.66244 -11.67756,-6.993659 1.87559,1.78209 3.51638,3.810062 5.51306,5.472931 2.01685,1.64328 3.88444,3.409406 5.80111,5.163799 2.55781,2.327425 5.12129,4.631419 7.51677,7.130487 2.4774,2.65075 4.85657,5.38524 7.20296,8.15212 4.58713,5.76897 -2.18253,-2.69525 2.52707,3.02828 1.67028,2.02988 3.1025,4.24638 4.77884,6.27217 2.17866,2.95577 4.10342,6.10685 6.58132,8.83101 0.42234,0.49338 1.93316,2.26925 2.34964,2.70944 1.79381,1.89597 3.75558,3.63982 5.30984,5.7563 2.0555,2.55429 4.19529,5.05011 6.02166,7.77895 1.95733,2.8436 3.64448,5.88751 4.99342,9.06683 1.56272,3.76205 3.13824,7.51795 4.61975,11.3128 1.84111,4.71604 3.6709,9.44407 5.9109,13.9884 1.38699,2.93732 2.62575,5.94765 4.19962,8.79191 1.51311,2.5491 3.24522,4.97364 4.79597,7.50293 2.06077,3.09533 3.70045,6.43812 5.55456,9.65823 1.33376,2.92514 2.73103,5.8164 3.71586,8.88584 1.1028,3.65697 2.49936,7.21551 3.63516,10.86318 1.379,3.88551 2.98421,7.69746 4.74431,11.4258 1.54012,3.22289 2.88436,6.53759 4.5405,9.69898 1.78554,3.00389 3.53903,6.02518 5.21376,9.09284 1.9083,3.7628 3.86789,7.48677 5.94976,11.15604 0.77783,1.51731 1.37503,2.57307 1.97727,4.15888 0.90832,2.39182 1.35557,4.95106 2.16294,7.37529 0.81389,3.83922 1.43556,7.71153 2.11879,11.57576 0.91711,4.31142 2.09549,8.55922 3.17813,12.83053 0.85026,3.32919 1.67106,6.68776 2.16635,10.08731 0.16503,2.05567 0.0549,4.13983 -0.27547,6.17576 -0.37554,1.51862 -1.0822,2.90885 -1.92401,4.22328 -0.82832,1.11753 -1.74937,1.91492 -3.11381,2.31079 -1.7231,0.58901 -3.46229,1.2072 -5.25814,1.51987 -2.35714,0.24022 -4.73242,0.11296 -7.0979,0.18487 -3.66051,0.0199 -7.32057,0.0107 -10.98048,-0.0177 -3.58876,0.0316 -7.1778,0.0338 -10.76667,0.0433 -3.99818,-7.5e-4 -7.99729,-0.002 -11.9928,-0.1711 -2.76979,-0.15437 -5.53042,-0.40358 -8.29787,-0.58646 -3.87075,-0.10874 -7.74194,-0.37504 -11.55214,-1.1037 -5.12778,-1.00633 -10.20062,-2.29159 -15.38902,-2.97679 -4.92959,-0.71812 -9.86011,-1.44529 -14.82923,-1.83032 -3.73131,-0.45648 -7.45548,-0.96391 -11.21598,-1.1207 -4.2229,-0.34061 -8.43828,-0.91328 -12.68164,-0.86887 -4.58022,0.057 -9.16063,0.13497 -13.73927,0.26843 -5.63118,0.14984 -11.28562,0.11326 -16.87797,0.8812 -2.98253,0.37386 -5.97126,0.8996 -8.72921,2.15177 -1.85532,0.91194 -3.62062,2.03066 -5.60448,2.65761 -2.73,0.85295 -5.51217,1.63734 -8.05648,2.96987 -2.51988,1.60879 -4.90386,3.40906 -7.37863,5.08389 -1.32809,0.7382 -1.77418,1.03782 -3.15148,1.61087 -2.35059,0.97801 -4.87774,1.44567 -7.27872,2.27346 -3.25621,0.98745 -6.61402,1.81399 -9.56255,3.57113 -2.30141,1.37404 -4.55115,2.84673 -6.56009,4.63178 -2.76699,2.08125 -5.52333,4.2211 -8.67259,5.70424 -2.9009,1.4417 -5.80344,2.87463 -8.76288,4.19296 -2.06004,1.17767 -4.20396,2.2075 -6.19555,3.5027 -2.07888,1.3451 -4.15562,2.69852 -6.35513,3.84253 -3.22406,1.84214 -6.59179,3.41533 -9.94424,5.00642 -3.32919,1.51159 -6.69273,2.93033 -10.15787,4.10516 -2.91655,1.12711 -5.89281,2.08982 -8.8827,3.0028 -2.19839,0.70967 -4.31706,1.62119 -6.50549,2.35509 -2.20824,0.62479 -4.51285,1.04428 -6.8088,1.10135 -1.91824,-0.0153 -3.83665,-0.005 -5.75492,-0.0205 -2.57552,0.0221 -5.1508,0.064 -7.72626,0.0919 -4.92274,0.044 -9.84845,0.027 -14.76566,0.29678 -4.545011,0.21822 -9.149329,0.29482 -13.496365,1.7996 -2.390952,0.73792 -4.690954,1.70615 -7.078217,2.44338 z" /><path
       style="fill:#ff6600"
       id="path2"
       d="m 72.262223,306.75134 c 1.814686,3.88101 3.627441,7.76394 5.36043,11.68228 1.854446,4.27933 4.12397,8.34463 6.344725,12.43728 1.667121,2.83392 3.31623,5.67979 5.081501,8.4542 1.888447,2.89447 3.905757,5.70326 5.898092,8.52676 1.767296,2.59232 3.602268,5.13208 5.179569,7.84597 1.51005,2.84031 3.10378,5.6317 4.38954,8.58274 0.7228,1.60861 1.4516,3.22691 2.36185,4.74 0.73319,1.32118 1.56475,2.59919 2.44501,3.82817 0.77925,1.13132 1.68276,2.17255 2.5213,3.26061 0.16162,0.19171 0.32324,0.38341 0.48486,0.57512 0,0 13.71317,5.86322 13.71317,5.86322 v 0 c -0.15687,-0.20865 -0.31374,-0.41731 -0.47062,-0.62596 -0.92647,-0.97354 -1.6146,-2.15042 -2.56095,-3.10637 -0.81632,-1.23878 -1.71451,-2.42206 -2.52171,-3.67221 -0.8032,-1.73485 0.18957,0.28842 -0.73766,-1.25595 -0.66556,-1.10851 -1.15498,-2.32479 -1.81187,-3.4398 -1.28616,-3.03354 -2.93113,-5.85508 -4.46023,-8.76963 -0.33804,-0.65449 -1.1728,-2.30715 -1.58942,-2.98365 -1.07393,-1.7438 -2.48854,-3.2691 -3.54193,-5.02891 -1.98967,-2.76204 -3.90622,-5.57617 -5.7974,-8.40547 -1.80426,-2.78137 -3.533826,-5.60329 -5.275657,-8.42405 -2.238687,-4.09798 -4.674879,-8.08696 -6.532234,-12.38453 -1.646101,-3.81032 -3.456322,-7.55689 -4.889076,-11.45423 z" /><path
       style="fill:#ff6600"
       id="path3"
       d="m 142.49108,377.00493 c 1.90512,2.85075 3.20381,6.06695 4.56371,9.20183 1.25993,3.08863 2.7025,6.09501 3.90941,9.20484 0.9258,2.69283 2.33333,5.15462 3.80756,7.57543 2.13175,3.8893 4.7593,7.46315 7.5399,10.90598 1.62826,1.98024 3.21554,3.99154 4.8539,5.9633 1.15591,1.43102 2.43171,2.75551 3.72251,4.06354 5.71154,5.87375 8.03886,6.04821 17.74325,11.67241 2.59427,1.24971 5.44405,1.64362 8.28573,1.84528 2.357,0.13266 4.70975,0.22833 7.04795,-0.12331 2.51515,-0.53586 5.06117,-0.94587 7.57253,-1.50148 0.44896,-0.16634 0.92593,-0.27093 1.34689,-0.49903 1.91216,-1.03614 3.56109,-3.07896 4.56181,-4.96594 1.13591,-2.68156 0.95513,-5.61115 0.82939,-8.45345 -0.18293,-2.36372 -0.21099,-4.73716 -0.38898,-7.10034 -0.18983,-2.66939 -1.03104,-5.21358 -1.87795,-7.73193 -1.42201,-3.45449 -2.62343,-6.98864 -3.84474,-10.51692 -1.39724,-4.13424 -2.4974,-8.36361 -3.63913,-12.57404 -0.90736,-3.59674 -1.60793,-7.23922 -2.51747,-10.83619 -0.8835,-2.66798 -1.76318,-5.3293 -2.29592,-8.09238 -0.16182,-0.86499 -0.3617,-1.72201 -0.54767,-2.58196 0,0 -13.41999,-6.48485 -13.41999,-6.48485 v 0 c 0.18415,0.86752 0.38555,1.73038 0.62846,2.58378 0.53203,2.8192 1.38419,5.54971 2.36402,8.24427 1.0174,3.61167 1.81072,7.27136 2.67085,10.92199 1.18146,4.21812 2.22098,8.47557 3.56093,12.64916 1.24941,3.48854 2.23632,7.073 3.72688,10.47044 0.90289,2.36965 1.59034,4.82777 1.9194,7.34635 0.28119,2.35058 0.21171,4.73199 0.4816,7.0865 0.19665,2.58416 0.43163,5.2396 -0.51746,7.71562 -1.07606,2.1195 -2.76315,3.87382 -5.15244,4.40521 -2.52441,0.52576 -5.06491,0.97466 -7.62041,1.32113 -2.24123,0.24763 -4.5027,0.0981 -6.74527,-0.0716 -2.76074,-0.3363 -5.47774,-0.88062 -7.90835,-2.31345 3.80235,2.22732 7.6047,4.45463 11.40706,6.68195 -0.304,-0.19048 -0.6202,-0.36275 -0.91198,-0.57145 -1.14276,-0.8174 -1.93622,-2.02501 -3.08007,-2.84442 -1.25542,-1.28742 -2.52225,-2.56649 -3.69735,-3.92881 -1.7207,-2.0262 -3.46847,-4.02325 -5.15938,-6.07639 -2.80256,-3.34726 -5.58614,-6.74236 -7.53808,-10.67998 -1.42605,-2.34316 -2.84238,-4.71169 -3.80556,-7.29133 -1.24087,-3.17267 -2.7815,-6.19561 -4.08121,-9.34339 -1.33789,-3.10208 -2.6116,-6.23515 -4.08315,-9.27722 z" /><path
       style="fill:#ff6600"
       id="path4"
       d="m 175.7183,235.40883 c 2.20161,3.40069 3.74045,7.18553 5.16973,10.96112 1.31668,3.47664 1.70372,7.17504 2.13749,10.83761 0.2894,3.77519 0.85194,7.5212 1.43107,11.26069 0.68867,3.46978 1.73,6.8472 2.77247,10.22206 1.16898,3.50924 2.71481,6.88056 4.3155,10.21031 2.25721,4.39613 4.94808,8.54679 7.46473,12.79435 2.11059,3.26271 4.16896,6.56391 6.54765,9.64029 2.75934,3.03105 5.67916,5.89781 8.39998,8.97005 2.65973,3.05689 5.25573,6.15919 8.17089,8.97793 0.35742,0.32127 0.71483,0.64253 1.07225,0.9638 0,0 13.65735,5.52139 13.65735,5.52139 v 0 c -0.38439,-0.30395 -0.76878,-0.6079 -1.15317,-0.91185 -3.02767,-2.75998 -5.77247,-5.77269 -8.39679,-8.91856 -1.46878,-1.6919 -2.90705,-3.41138 -4.45974,-5.02808 -3.56799,-3.71508 0.66907,0.75759 -2.65397,-2.58935 -0.39627,-0.39912 -0.76513,-0.82457 -1.14769,-1.23686 -2.5535,-2.97091 -4.54964,-6.35112 -6.83377,-9.52575 -2.47197,-4.20223 -5.13128,-8.29408 -7.38377,-12.62381 -1.57398,-3.25925 -3.10953,-6.55988 -4.32095,-9.97072 -1.02551,-3.33623 -2.18318,-6.63103 -2.8873,-10.05725 -0.6518,-3.70966 -1.25616,-7.44299 -1.5041,-11.2038 -0.36357,-3.78294 -0.7509,-7.60389 -2.05124,-11.20258 -1.39148,-3.75854 -2.94334,-7.4656 -4.69597,-11.07049 z" /><path
       style="fill:#ff6600"
       id="path5"
       d="m 301.53281,147.43342 c 1.27024,4.34128 2.78618,8.5874 4.62902,12.71734 1.96889,4.17867 4.12431,8.26481 6.61528,12.15568 2.00992,3.06792 4.0965,6.08187 5.99741,9.21963 1.62141,3.00802 3.52857,5.84567 5.27293,8.7813 1.80042,3.05891 3.4946,6.17942 5.30637,9.23143 1.80746,3.17602 3.83781,6.21604 5.63726,9.39592 1.64494,3.11027 3.27618,6.22775 4.88795,9.35508 1.62765,3.00481 2.81867,6.20025 4.04208,9.38124 1.54515,4.16944 3.01274,8.36762 4.51286,12.55362 1.14818,2.96201 2.23519,5.94773 3.42155,8.89469 1.3399,3.37509 2.72407,6.73274 4.11019,10.08917 1.64314,3.48531 2.94091,7.10575 4.18992,10.74467 0.99172,2.58703 2.02222,5.1596 2.98257,7.7587 0.11468,0.3455 0.22937,0.69099 0.34405,1.03649 0,0 13.40896,6.30832 13.40896,6.30832 v 0 c -0.1179,-0.36817 -0.2358,-0.73635 -0.3537,-1.10452 -0.96678,-2.61666 -2.00052,-5.20319 -3.0321,-7.7935 -1.47331,-3.57301 -2.62832,-7.27723 -4.19887,-10.81457 -1.45317,-3.32923 -2.85376,-6.6787 -4.13777,-10.07735 -1.21165,-2.94325 -2.18134,-5.9839 -3.5042,-8.88304 -1.59509,-4.15112 -3.11315,-8.32779 -4.49538,-12.55478 -1.18798,-3.20095 -2.26758,-6.44654 -3.89277,-9.4639 -1.50788,-3.24507 -3.43505,-6.28649 -5.03937,-9.4864 -1.65489,-3.22758 -3.66699,-6.23021 -5.4276,-9.39853 -1.92836,-2.98988 -3.60721,-6.12926 -5.37462,-9.21534 -1.68072,-2.96891 -3.65128,-5.76571 -5.23504,-8.78766 -1.90037,-3.20433 -4.02302,-6.25584 -6.10534,-9.34268 -2.60844,-3.77233 -4.72641,-7.81888 -6.72047,-11.94581 -1.83535,-3.98006 -3.60341,-8.00626 -4.44177,-12.33632 z" /><path
       style="fill:#ff6600"
       id="path6"
       d="m 375.83565,183.80517 c 2.22022,-1.30526 4.63511,-2.18754 7.12785,-2.79868 2.19014,-0.39784 4.46484,-0.61205 6.68301,-0.36228 0.58624,0.16146 1.40277,0.36693 1.95816,0.60336 0.36788,0.15661 0.70411,0.38061 1.06907,0.54389 1.5706,0.70268 3.20487,1.24888 4.84236,1.76721 2.88499,0.7735 5.72741,1.83482 8.36913,3.23454 -20.91109,-12.50343 -11.26585,-7.02681 -6.86901,-2.65622 0.66231,0.85441 1.5741,1.58116 2.12103,2.52675 0.40138,0.69395 0.45067,1.09436 0.6734,1.89176 0.63191,2.61213 0.85405,5.30285 0.83019,7.98421 -0.1414,2.22491 -1.22354,4.09074 -2.64529,5.74461 -1.68014,1.89175 -4.03197,2.79802 -6.13319,4.08451 -1.70005,0.78865 -3.12074,2.01225 -4.6522,3.06991 -1.60378,1.29775 -3.54965,1.8847 -5.4003,2.68915 -0.8918,0.34676 -0.45271,0.19646 -1.31516,0.45702 0,0 12.37502,8.36494 12.37502,8.36494 v 0 c 0.88754,-0.35594 0.44145,-0.16892 1.33785,-0.56204 1.93011,-0.82 3.81069,-1.73201 5.5231,-2.95972 1.51186,-1.04028 2.97811,-2.14834 4.6102,-3.0011 2.21217,-1.35372 4.53682,-2.56158 6.30825,-4.51559 1.64656,-1.90099 2.91755,-4.08123 3.12723,-6.6402 0.10174,-2.7762 -0.14126,-5.56918 -0.61118,-8.30636 -0.15175,-0.73454 -0.21655,-1.48811 -0.4135,-2.21184 -0.32797,-1.20525 -1.38708,-1.92707 -2.05222,-2.92616 -5.21793,-5.54026 -11.15543,-8.71501 -18.3805,-12.25532 -2.71503,-1.17548 -5.47979,-2.20741 -8.33747,-2.98588 -2.72556,-0.99386 -5.35979,-2.48331 -8.28817,-2.72523 -2.32461,0.002 -4.68059,0.14546 -6.92798,0.77762 -2.58127,0.79624 -5.08338,1.81526 -7.47045,3.08533 z" /><path
       style="fill:#ff6600"
       id="path7"
       d="m 391.2828,144.99434 c -1.18704,-6.55428 -2.12977,-13.14337 -2.71709,-19.7781 -0.28535,-3.93513 -0.48472,-7.88042 -0.90837,-11.80393 0,0 -13.18607,-6.48266 -13.18607,-6.48266 v 0 c 0.71436,3.95606 1.03933,7.97946 1.425,11.97734 0.10635,1.10821 0.60619,6.37003 0.72805,7.41947 0.46923,4.0408 1.1822,8.05772 1.43185,12.12254 z" /><path
       style="fill:#ff6600"
       id="path8"
       d="m 421.50135,151.66268 c 3.68493,-4.88608 7.49194,-9.64927 11.5798,-14.20514 3.71842,-4.05839 7.87264,-7.69086 11.50958,-11.82132 1.5637,-1.71614 0.816,-0.86632 2.24737,-2.54568 0,0 -12.60107,-7.56094 -12.60107,-7.56094 v 0 c -1.35502,1.68344 -0.64896,0.82 -2.12087,2.58813 -3.52121,4.17169 -7.48783,7.94952 -11.11428,12.02995 -4.09994,4.5999 -7.92273,9.46275 -12.28469,13.81523 z" /><path
       style="fill:#ff6600"
       id="path9"
       d="m 436.03116,181.7062 c 7.4171,-5.5535 15.77019,-9.67051 24.07354,-13.7075 2.86314,-1.27716 5.65674,-2.67155 8.38075,-4.21908 0,0 -12.13056,-7.85864 -12.13056,-7.85864 v 0 c -2.57563,1.59215 -5.20896,3.07586 -7.94854,4.37391 -8.42958,4.24756 -16.52394,9.10474 -24.8155,13.61036 z" /><path
       style="fill:#ff6600"
       id="path10"
       d="m 441.86925,205.2262 c 7.48476,0.46062 14.8716,1.66234 22.23599,3.02369 0,0 -11.06787,-8.34262 -11.06787,-8.34262 v 0 c -7.69836,-1.31262 -15.41183,-2.51098 -23.14674,-3.58821 z" /><path
       style="fill:#ff6600"
       id="path11"
       d="m 412.81246,222.13582 c 4.45773,3.81096 9.04656,7.46116 13.66196,11.07853 6.82956,5.1753 13.83184,10.10802 20.51395,15.4756 1.95874,1.50113 3.77116,3.16301 5.47676,4.94162 0,0 13.64774,5.67087 13.64774,5.67087 v 0 c -1.86405,-1.87152 -3.70527,-3.76244 -5.87266,-5.29859 -0.83227,-0.65604 -4.82296,-3.80688 -5.50189,-4.3189 -5.0582,-3.8147 -10.33715,-7.33363 -15.29891,-11.2774 -4.33824,-3.45036 -8.73115,-6.86155 -12.76037,-10.67475 z" /></g></svg>
