<?xml version="1.0" encoding="UTF-8" standalone="no"?>
<!-- Created with Inkscape (http://www.inkscape.org/) -->

<svg
   width="512"
   height="512"
   viewBox="0 0 512 512"
   version="1.1"
   id="svg1"
   xml:space="preserve"
   inkscape:version="1.4.2 (f4327f4, 2025-05-13)"
   sodipodi:docname="picture.svg"
   xmlns:inkscape="http://www.inkscape.org/namespaces/inkscape"
   xmlns:sodipodi="http://sodipodi.sourceforge.net/DTD/sodipodi-0.dtd"
   xmlns="http://www.w3.org/2000/svg"
   xmlns:svg="http://www.w3.org/2000/svg"><sodipodi:namedview
     id="namedview1"
     pagecolor="#ffffff"
     bordercolor="#000000"
     borderopacity="0.25"
     inkscape:showpageshadow="2"
     inkscape:pageopacity="0.0"
     inkscape:pagecheckerboard="0"
     inkscape:deskcolor="#d1d1d1"
     inkscape:document-units="px"
     inkscape:zoom="1.5097656"
     inkscape:cx="255.66882"
     inkscape:cy="256"
     inkscape:window-width="1920"
     inkscape:window-height="991"
     inkscape:window-x="-9"
     inkscape:window-y="-9"
     inkscape:window-maximized="1"
     inkscape:current-layer="layer1" /><defs
     id="defs1" /><g
     inkscape:label="Layer 1"
     inkscape:groupmode="layer"
     id="layer1"><path
       style="fill:#ff6600"
       id="path1"
       d="m 92.549807,406.96351 c 6.624489,1.60947 13.216123,3.34731 19.830013,4.9981 7.5428,1.98848 15.14094,3.65126 22.8614,4.76148 7.28174,1.07852 14.55164,2.20574 21.80299,3.47347 6.45084,1.24224 12.9173,2.39786 19.38319,3.559 6.60186,1.13044 13.11921,2.68167 19.68784,3.97915 3.20824,0.6908 6.38669,1.57989 9.65392,1.96223 1.68983,0.19775 2.76405,0.22173 4.47775,0.30767 4.60136,0.22325 9.20654,0.20218 13.81112,0.14639 5.8219,-0.0592 11.64416,-0.0271 17.46625,-0.0268 6.91139,-0.3081 13.82452,-0.53039 20.7419,-0.64029 4.11299,-0.0677 8.23573,0.1171 12.33526,-0.31365 0.30596,-0.0322 4.55225,-0.60577 4.90808,-0.65365 5.0454,-0.69129 10.13803,-0.8564 15.2226,-0.96878 5.0791,-0.0444 10.16401,-0.1896 15.22953,-0.57403 5.0961,-0.33207 10.1065,-1.30182 15.17661,-1.87398 8.07782,-0.84916 16.20519,-0.7738 24.31105,-1.04794 5.47289,-0.40257 10.94737,-0.77648 16.41503,-1.2443 4.45668,-0.27166 8.83165,-1.20519 13.2236,-1.9473 5.52963,-0.91327 11.05828,-1.84408 16.60952,-2.61855 3.90383,-0.59859 7.76963,-1.3473 11.5827,-2.37499 3.04785,-0.69822 5.8952,-1.99269 8.84453,-2.99116 1.86202,-0.63037 3.74779,-1.18851 5.61577,-1.80101 4.34375,-1.34716 8.4969,-3.24559 12.22366,-5.85455 2.10521,-1.57766 3.81918,-3.58768 5.78097,-5.32406 1.84117,-1.425 3.36711,-3.10447 4.63613,-5.04844 1.5446,-2.57373 2.09796,-5.47224 2.42495,-8.40951 0.16625,-2.65635 0.40112,-5.31243 0.90291,-7.92792 0.48236,-2.18582 1.23307,-4.30001 1.76168,-6.47621 0.9874,-3.67767 1.17814,-7.48802 1.65005,-11.25321 0.90951,-7.06295 2.02886,-14.09568 2.65808,-21.19072 0.49475,-7.52376 0.86296,-15.05534 0.96375,-22.59492 -0.49894,-9.66464 -1.64451,-19.27916 -2.43889,-28.92108 -0.62767,-8.68246 -1.20901,-17.36877 -1.66831,-26.06197 -0.23438,-4.34152 -0.21128,-8.70013 -0.66004,-13.02908 -0.26712,-2.57678 -0.48172,-3.59145 -0.91372,-6.1318 -0.66012,-3.19389 -0.96985,-6.46171 -1.77128,-9.6276 -0.15743,-0.6219 -1.97252,-7.083 -2.00587,-7.20204 -2.46891,-8.7098 -5.21089,-17.34001 -7.87253,-25.99272 -1.70992,-5.3942 -3.143,-10.86368 -4.54815,-16.34244 -0.7951,-3.42125 -1.68561,-6.81925 -2.50908,-10.23355 -0.56077,-3.20313 -1.34768,-6.35044 -2.30752,-9.45531 -0.93059,-2.61562 -1.60594,-5.30903 -2.39335,-7.96928 -0.89238,-3.04101 -1.66976,-6.11315 -2.52352,-9.1649 -0.73389,-2.23174 -1.30101,-4.51364 -2.16203,-6.70123 -0.68037,-2.04826 -1.74886,-3.7992 -3.18679,-5.3901 -2.06162,-1.94878 -4.38664,-3.6022 -6.72148,-5.20553 -5.1389,-3.44419 -5.73842,-3.88484 -15.01354,-8.7086 -0.70022,-0.36416 -1.54245,-0.33715 -2.31916,-0.47731 -1.22148,-0.22043 -2.45028,-0.39828 -3.67429,-0.60425 -14.93324,-2.51289 6.27276,1.01986 -8.65126,-1.46101 -6.82512,-1.03643 -13.67192,-1.89393 -20.48892,-2.98338 -3.09381,-0.68554 -6.03164,-1.88737 -8.96958,-3.0441 -0.82872,-0.32629 -1.62407,-0.75047 -2.48224,-0.98876 -2.32977,-0.64692 -6.85458,-1.17749 -9.00043,-1.47708 -2.10907,-0.24652 -4.21834,-0.49135 -6.32722,-0.73955 -0.63987,-0.0753 -11.66691,-1.3787 -12.59965,-1.50386 -3.59028,-0.48174 -5.99842,-0.82173 -9.43672,-1.74148 -1.16919,-0.31276 -2.30631,-0.73499 -3.45946,-1.10249 -0.90544,-0.40581 -3.56449,-1.73231 -2.71631,-1.21744 24.69491,14.99072 10.71315,6.36864 8.39115,4.44076 -1.7519,-1.45453 -3.07487,-3.20758 -4.40823,-5.03041 -1.84846,-2.91158 -3.48537,-5.952515 -4.95631,-9.070465 -1.14964,-2.349664 -2.01445,-4.8199 -3.11617,-7.190063 -0.83356,-1.70956 -1.68839,-3.407715 -2.51944,-5.118322 -1.10398,-1.888621 -2.7113,-3.346931 -4.39794,-4.70226 -5.12447,-3.56847 -1.73253,-1.24721 -14.53195,-8.40714 -0.30861,-0.172636 -1.55372,-0.597297 -1.90158,-0.692828 -0.60303,-0.165605 -2.24278,-0.496948 -2.7616,-0.605547 -4.79847,-0.950468 -9.69433,-0.993562 -14.55985,-0.75527 -5.43528,0.243313 -10.80911,1.133314 -16.21557,1.693541 -5.39425,0.857955 -10.70372,2.125307 -16.09778,2.990867 -4.28201,0.588898 -8.34868,2.056528 -12.43304,3.400101 -4.5908,1.599743 -9.18603,3.200826 -13.58266,5.284912 -4.22185,2.085741 -8.49652,4.064135 -12.83096,5.904508 -3.00022,1.37062 -5.28691,3.771913 -7.68943,5.956769 -2.21598,2.003722 -4.4039,4.054323 -6.22166,6.432419 -1.19332,1.61339 -2.28227,3.298008 -3.41489,4.953918 -1.76671,2.83279 -3.6217,5.59155 -5.69913,8.20672 -1.78308,2.00705 -3.61141,3.96028 -5.60091,5.76176 -3.24719,2.70477 -7.3998,3.78634 -11.32283,5.13453 -4.09363,1.65145 -8.45936,1.88807 -12.81339,2.07627 -4.08277,0.0712 -8.16631,0.055 -12.24973,0.0883 -3.76674,-0.17338 -7.49557,0.27949 -11.21962,0.75807 -3.67013,0.69509 -7.19695,1.87034 -10.67306,3.21254 -3.685916,1.59978 -7.530952,2.81405 -11.170663,4.51741 -2.750481,1.47932 -5.820653,2.44434 -8.299437,4.40477 -0.593412,0.46932 -1.126884,1.00982 -1.690326,1.51473 -2.250046,2.05669 -4.472439,4.23554 -5.998709,6.90654 -0.630356,1.10313 -1.162942,2.4372 -1.662031,3.60372 -1.1839,2.95552 -2.114906,6.00163 -2.814134,9.10547 -0.693415,3.04475 -1.713608,6.00503 -2.63084,8.98867 -0.782628,2.78068 -1.176879,5.64805 -1.744279,8.47588 -0.728363,3.26771 -1.208037,6.58158 -1.557011,9.90926 -0.576172,3.94887 -1.139831,7.89831 -1.907341,11.81539 -0.781372,3.8973 -1.616357,7.7845 -2.331629,11.69466 -0.905179,4.05541 -1.218268,8.18328 -1.405841,12.32233 -0.374021,5.81316 -0.914824,11.61381 -1.212721,17.43184 -0.119222,4.41162 0.427108,8.80225 0.709387,13.19834 0.441772,4.56363 0.317062,9.12418 -0.03333,13.68595 -0.403924,5.70794 -0.34129,11.43674 -0.313959,17.15533 -0.02564,6.93663 0.918609,13.83011 1.753243,20.70312 0.829325,5.84152 1.126664,11.7428 2.075772,17.5657 0.922281,5.73292 2.619332,11.28566 4.651307,16.71115 1.106867,2.65404 2.267047,5.28293 3.196943,8.00577 1.035489,3.17962 2.093609,6.35239 3.158969,9.52236 1.898157,5.14081 3.53018,10.36295 5.087425,15.61447 0.937394,2.75682 1.392359,5.6134 1.8033,8.48157 0.230608,1.8836 0.897843,3.66034 1.546227,5.43012 0.792055,2.16675 1.471151,4.36381 2.049109,6.59618 0.39791,1.7559 1.041461,3.4356 1.749224,5.08588 0.554861,1.60556 1.313059,3.09975 2.351382,4.44333 0.62969,0.72358 1.247298,1.457 1.878418,2.17935 0,0 13.726795,5.7141 13.726795,5.7141 v 0 c -0.69117,-0.64605 -1.32217,-1.33006 -1.88555,-2.09357 -1.12481,-1.15609 -2.08478,-2.45816 -2.564019,-4.02377 -0.667653,-1.62771 -1.417662,-3.23483 -1.880431,-4.93448 -0.643991,-2.22618 -1.129279,-4.50204 -2.011316,-6.65672 -0.504681,-1.75384 -1.292061,-3.42812 -1.622569,-5.233 -0.610889,-2.94384 -0.885819,-5.96873 -2.018654,-8.79057 -1.677071,-5.22988 -3.36881,-10.45198 -5.128998,-15.65414 -0.960234,-3.11351 -1.795937,-6.26341 -2.82717,-9.35448 -0.833926,-2.8788 -2.206659,-5.54673 -3.478739,-8.25043 -2.18976,-5.31551 -4.022279,-10.78648 -4.912626,-16.4856 -0.876617,-5.85935 -1.336034,-11.77284 -2.272281,-17.62541 -0.973543,-6.76567 -1.653894,-13.57175 -1.569029,-20.4168 -0.08993,-5.67814 -0.287097,-11.37742 0.255637,-17.03963 0.378979,-4.5916 0.714685,-9.18591 0.322329,-13.79258 -0.385838,-4.36964 -0.952499,-8.73783 -0.955325,-13.12894 0.20141,-5.81189 0.498768,-11.62298 1.187956,-17.40091 0.385525,-4.05272 0.602726,-8.1294 1.467696,-12.12085 0.650472,-3.91048 1.561204,-7.77001 2.369532,-11.64988 0.730168,-3.96195 1.203538,-7.96482 1.952052,-11.92391 0.366027,-3.26908 0.871772,-6.52778 1.535111,-9.74976 0.632261,-2.77527 1.079386,-5.58659 1.729824,-8.3571 0.856482,-3.03197 1.915224,-6.00237 2.6683,-9.06271 0.736761,-3.01556 1.435284,-6.05636 2.598544,-8.94351 0.509679,-1.23439 0.878923,-2.22488 1.523743,-3.39949 1.411503,-2.57121 3.454804,-4.69796 5.706811,-6.54921 3.032527,-2.29839 6.324872,-4.0998 9.856212,-5.53307 3.66554,-1.5433 7.32806,-3.09752 11.05997,-4.47488 3.47115,-1.2093 6.98093,-2.38855 10.64551,-2.84665 3.60841,-0.52153 7.23487,-0.88084 10.88882,-0.7472 4.09331,0.0508 8.18711,0.10002 12.27564,-0.1612 4.46209,-0.24497 8.92785,-0.52037 13.04818,-2.42903 3.26087,-1.20329 6.75272,-2.1461 9.80464,-3.84037 0.3733,-0.20724 1.78842,-1.30784 2.14594,-1.58118 2.02466,-1.86201 3.74748,-4.00511 5.57864,-6.05239 2.0915,-2.64305 3.90789,-5.47112 5.89571,-8.18867 1.1676,-1.61533 2.23432,-3.28952 3.36982,-4.92728 1.70876,-2.32349 3.80179,-4.34734 5.94723,-6.264342 2.31965,-2.066291 4.57308,-4.26241 7.43004,-5.586387 4.2238,-2.027828 8.46148,-4.025862 12.71161,-5.99815 4.40266,-1.979128 8.91447,-3.676618 13.52293,-5.117154 4.0356,-1.291336 8.06287,-2.612729 12.26443,-3.272353 5.35284,-1.03816 10.68025,-2.256169 16.10268,-2.884309 5.3133,-0.700541 10.61917,-1.555214 15.98618,-1.712106 4.90025,-0.103303 9.82599,0.09226 14.60585,1.282309 1.31069,0.359757 1.60762,0.403769 2.79159,0.850959 1.06883,0.403699 2.06952,0.973548 1.79503,0.811719 -9.89043,-5.830964 -15.98077,-9.138083 -10.81758,-6.324451 1.70585,1.146351 3.32176,2.459511 4.51725,4.150136 1.09771,1.337985 1.72294,3.500722 2.6429,5.013226 1.25535,2.335634 2.1029,4.852434 3.30105,7.217234 1.43267,3.238841 3.09294,6.346925 4.93823,9.37073 0.71644,1.021012 1.89155,2.738263 2.67987,3.681619 0.69621,0.83313 2.45243,2.70345 3.40231,3.27496 13.27115,7.98479 9.67281,6.48361 17.22018,9.28833 1.1251,0.29754 2.23856,0.64325 3.37532,0.89261 3.32928,0.73029 5.70335,0.97782 9.14761,1.37229 6.95148,0.79615 5.20443,0.47028 12.48283,1.44506 2.17722,0.29159 4.34807,0.62892 6.5221,0.94338 1.82841,0.34922 3.67098,0.63109 5.48524,1.04765 5.31803,1.22104 10.17443,3.90551 15.5631,4.88452 6.70081,0.95266 13.42669,1.70866 20.11763,2.73239 3.22216,0.54186 5.52165,0.89276 8.72935,1.57932 1.30878,0.28013 2.62019,0.55841 3.90651,0.9282 0.80472,0.23133 3.06074,1.32371 2.3557,0.87204 -3.31161,-2.12151 -15.95269,-9.5141 -10.21397,-5.90621 2.306,1.56514 4.5829,3.15742 6.76946,4.88854 1.45397,1.44602 2.79406,2.86949 3.40073,4.89233 0.94951,2.14525 1.5195,4.39761 2.32636,6.59681 0.9201,3.02332 1.67916,6.08334 2.50254,9.13353 0.70262,2.69843 1.53406,5.37194 2.37173,8.03054 1.05073,3.06638 1.9681,6.17915 2.47,9.38871 0.76157,3.46664 1.65894,6.90487 2.57859,10.33266 1.60885,5.53263 3.01903,11.1243 4.90656,16.57521 2.80548,8.60477 5.79106,17.16188 7.97112,25.95497 1.29702,5.5131 2.54219,11.03895 3.57045,16.60941 0.41748,2.24761 0.73558,3.74348 0.99574,6.0211 0.49664,4.34801 0.48732,8.73557 0.85217,13.09322 0.60345,8.72569 1.24057,17.44857 1.81256,26.17632 0.89493,9.53038 2.2349,19.05964 2.20308,28.64539 -0.0719,7.52429 -0.0674,15.06205 -0.76644,22.5615 -0.73744,7.03497 -1.76799,14.03614 -2.83591,21.02761 -0.57155,3.65012 -1.1509,7.29786 -2.00883,10.89304 -0.55254,2.19791 -1.27764,4.346 -1.83957,6.53995 -0.45791,2.67245 -0.69002,5.37415 -0.85574,8.08008 -0.25809,2.702 -0.67196,5.40809 -2.14416,7.75284 -1.23178,1.83233 -2.78025,3.32544 -4.47568,4.73191 -1.83317,1.77255 -3.55538,3.67325 -5.59296,5.22174 -3.53078,2.58261 -7.47971,4.40857 -11.66231,5.69396 -4.8595,1.58538 -9.69976,3.24894 -14.64266,4.55925 -3.775,0.94591 -7.58352,1.70669 -11.43044,2.30287 -5.49427,0.94288 -10.97954,1.93774 -16.50252,2.70553 -4.40622,0.68548 -8.80987,1.40558 -13.25393,1.80565 -5.36985,0.54191 -10.75649,0.89053 -16.13362,1.35184 -8.10401,0.36945 -16.22169,0.49817 -24.31034,1.16034 -5.1586,0.49417 -10.29614,1.16749 -15.45808,1.62876 -5.03434,0.40984 -10.08314,0.49307 -15.13184,0.55054 -5.12298,0.15219 -10.2518,0.38816 -15.33473,1.08171 -5.58706,0.76026 -11.18939,1.11326 -16.83262,1.05324 -6.98827,0.11527 -13.97484,0.28447 -20.96187,0.45383 -5.82607,0.0105 -11.65218,0.062 -17.4782,0.0168 -4.61255,-0.0528 -9.22958,-0.0382 -13.83693,-0.28385 -4.66458,-0.38335 -9.24654,-1.22479 -13.80932,-2.26561 -6.50901,-1.32577 -12.98129,-2.84143 -19.55272,-3.84636 -6.53258,-1.21311 -13.03422,-2.58999 -19.58779,-3.68753 -7.21556,-1.15847 -14.44512,-2.21689 -21.66569,-3.34244 -7.63269,-1.21742 -15.19136,-2.81899 -22.66639,-4.79185 -2.699897,-0.71427 -5.390228,-1.46445 -8.091175,-2.17474 -4.119317,-1.08329 -8.302547,-1.95807 -12.328734,-3.37026 z" /><path
       style="fill:#ff6600"
       id="path2"
       d="m 278.187,167.00255 c -0.39736,-0.0503 -0.7923,-0.12629 -1.19208,-0.15083 -2.03346,-0.12483 -4.07259,-0.12708 -6.10901,-0.1866 -4.44578,-0.12994 -8.89186,-0.24414 -13.33827,-0.35002 -8.0917,-0.12706 -16.17822,0.8184 -24.1423,2.18886 -7.46188,1.52308 -14.7592,3.71204 -21.74304,6.74564 -5.13726,2.06385 -9.37567,5.5635 -13.59254,9.04664 -4.46189,3.60044 -9.59365,6.23062 -14.69246,8.79751 -2.75644,1.46944 -5.45256,3.02794 -8.2094,4.49806 -2.98024,1.44246 -5.932,2.95763 -8.75624,4.68695 -2.60937,1.31309 -4.63345,3.36295 -6.59086,5.47895 -2.76339,2.62576 -4.45044,6.00259 -6.17719,9.33924 -0.32017,0.67463 -0.68036,1.33168 -0.96051,2.02389 -0.55867,1.38037 -1.22922,3.68037 -1.67884,5.08684 -0.80776,2.52682 -1.68719,5.00141 -2.67604,7.46242 -0.82765,2.54607 -2.17357,4.93206 -2.78278,7.5524 -0.40083,1.72404 -0.42359,2.80394 -0.58154,4.60572 -0.48769,4.67579 -0.84106,9.36042 -0.98842,14.05914 -0.22806,4.43989 -0.12982,8.74769 0.27718,13.17256 0.53396,3.70009 0.82998,7.51393 1.92726,11.10908 0.21972,0.7199 0.50595,1.41779 0.75893,2.12668 2.26862,5.052 4.79734,9.9706 7.6072,14.74086 2.81772,4.64098 5.49846,9.36915 8.48061,13.90781 2.3066,3.45787 4.85828,6.74308 7.71758,9.75924 3.44729,3.58306 7.1657,6.88667 11.07572,9.95328 3.37606,2.52698 6.83758,4.93593 10.2831,7.36645 8.2394,5.47458 17.04015,10.2879 26.42551,13.46748 6.80877,1.86287 13.81302,2.87612 20.80494,3.7608 5.32037,0.72274 10.65466,1.18639 16.02129,1.29603 4.11786,0.18815 8.21829,0.14697 12.32852,-0.11545 4.58516,-0.35342 9.18916,-0.24394 13.77574,-0.52722 6.07139,-0.67872 12.13331,-1.62468 18.11069,-2.89336 5.67836,-1.40734 11.11883,-3.62484 16.54541,-5.7839 5.66069,-2.62588 11.72431,-4.16004 17.59763,-6.20594 4.77991,-1.38618 8.83024,-4.14302 12.65062,-7.23159 3.01885,-2.71879 4.42785,-6.41994 5.81542,-10.12461 1.66978,-4.56179 3.19181,-9.16908 4.9654,-13.69305 1.94891,-4.54242 3.93845,-9.05199 5.6198,-13.7027 1.11471,-3.33568 2.38679,-6.62417 3.17072,-10.06052 0.28568,-1.25226 0.71556,-3.72675 0.94517,-5.00454 0.80995,-4.65668 1.31596,-9.35593 1.81771,-14.05351 0.44952,-5.11969 0.57783,-10.25819 0.68384,-15.39398 0.41343,-5.33412 -0.73785,-10.49662 -1.98608,-15.63899 -1.27238,-5.54661 -3.32752,-10.86845 -5.84639,-15.95961 -2.72309,-5.45406 -6.31296,-10.35877 -10.04811,-15.14731 -3.51431,-4.5221 -7.97237,-8.12987 -12.38618,-11.72307 -8.32848,-6.71443 -17.8926,-11.63745 -27.1263,-16.94657 -5.05663,-2.72031 -10.35303,-4.95076 -15.49801,-7.4905 -3.78445,-2.08682 -7.99937,-2.84455 -12.19542,-3.60861 -4.05913,-0.86788 -8.17491,-1.15921 -12.31222,-1.26176 -3.98434,-0.0636 -7.96941,-0.0649 -11.95416,-0.0796 -1.85782,0.098 -3.71055,0.26877 -5.56478,0.41643 0,0 12.07031,8.60243 12.07031,8.60243 v 0 c 1.7798,-0.18467 3.56131,-0.38205 5.35257,-0.40652 3.95166,-0.0284 7.90467,-0.0565 11.85502,0.074 4.05187,0.18465 8.08885,0.56421 12.07192,1.36258 4.20349,0.84968 8.23179,1.92366 12.03951,3.96089 5.12611,2.3933 10.31597,4.66522 15.26296,7.42259 -19.20605,-11.16419 -8.37995,-4.98749 -4.31394,-2.39497 2.92467,1.86481 2.12852,1.3767 4.76272,3.3481 0.73704,0.55159 1.47899,1.09658 2.21848,1.64486 4.42151,3.53838 8.90626,7.0685 12.54564,11.44509 3.76694,4.67861 7.40204,9.47989 10.11146,14.8689 2.64629,4.95548 4.6577,10.22296 6.02947,15.67492 1.24896,5.00749 2.34221,10.04889 2.03195,15.2503 -0.0452,5.09233 -0.13703,10.19231 -0.64952,15.26298 -0.49523,4.67285 -0.99986,9.34374 -1.73697,13.98609 -0.19667,1.15544 -0.6302,3.779 -0.87684,4.91929 -0.73477,3.39708 -1.92907,6.66276 -3.13871,9.9131 -0.54113,1.48988 -1.04339,2.9944 -1.622,4.47012 -1.22083,3.11366 -2.75775,6.09253 -3.96595,9.21129 -1.75032,4.52892 -3.34485,9.1118 -5.02028,13.66844 -1.35108,3.41151 -2.7403,6.89195 -5.46521,9.45996 -3.80872,3.17223 -7.44862,5.35151 -12.18522,6.94025 -5.88771,2.14505 -11.98522,3.70761 -17.75459,6.1718 -5.31157,2.17131 -10.59693,4.49117 -16.23752,5.6889 -5.9946,1.25804 -12.07782,2.16797 -18.19359,2.55825 -4.59425,0.18768 -9.19153,0.3004 -13.78455,0.52182 -4.05733,0.16257 -8.11787,0.17271 -12.17754,0.0776 -5.27082,-0.21327 -10.53591,-0.58303 -15.76632,-1.29018 -6.95555,-0.97867 -13.99102,-1.76366 -20.67708,-4.03628 -2.84251,-1.05303 -5.60588,-2.19828 -8.34269,-3.50519 -0.7857,-0.37519 -3.08199,-1.61611 -2.34046,-1.15977 3.46936,2.13506 7.02088,4.13365 10.53133,6.20047 -0.45217,-0.28279 -0.90433,-0.56559 -1.35649,-0.84839 -3.53962,-2.36785 -6.98135,-4.87981 -10.44775,-7.352 -3.93193,-2.92808 -7.70614,-6.09865 -11.0333,-9.70916 -2.95196,-2.92808 -5.63689,-6.09861 -7.92864,-9.57726 -3.18604,-4.43069 -5.83355,-9.2174 -8.65911,-13.88004 -2.78652,-4.67036 -5.35093,-9.46436 -7.55452,-14.44025 -0.26401,-0.66144 -0.56093,-1.31068 -0.79203,-1.98432 -1.20476,-3.51179 -1.5346,-7.28981 -2.13663,-10.92901 -0.0777,-0.92547 -0.32896,-3.74781 -0.35682,-4.7286 -0.0781,-2.74783 0.0959,-5.50766 0.0725,-8.25605 0.13531,-4.6752 0.33861,-9.35168 0.8758,-14.00101 0.20834,-1.78215 0.24908,-2.59476 0.63151,-4.28135 0.58767,-2.59173 1.71274,-5.02194 2.53257,-7.53988 0.77084,-2.02963 1.12187,-2.90697 1.83745,-4.98958 1.08623,-3.16135 1.90106,-6.43854 3.47447,-9.41044 1.66258,-3.21063 3.50247,-6.34424 6.11064,-8.89125 1.93868,-1.94467 3.92608,-3.84194 6.363,-5.16131 2.82641,-1.65841 5.75962,-3.13174 8.67477,-4.62692 1.04592,-0.51987 2.11347,-0.99785 3.14044,-1.55422 1.7101,-0.92647 3.2453,-2.16634 5.00516,-3.01092 5.03035,-2.84042 10.09596,-5.66342 14.74317,-9.11241 4.09918,-3.4089 8.30968,-6.66791 13.24864,-8.79658 6.85685,-3.07509 14.06535,-5.26493 21.48701,-6.4975 7.84893,-1.34593 15.77564,-2.36819 23.7598,-2.12708 7.13459,0.17172 14.32513,0.2356 21.38034,1.41439 z" /><path
       style="fill:#ff6600"
       id="path3"
       d="m 371.59406,149.92884 c -2.61344,-0.0206 -5.1741,0.0636 -7.7484,0.53545 -2.40177,0.63332 -4.91791,1.07976 -7.23027,2.02134 -0.93237,0.37965 -1.72595,0.88861 -2.58667,1.39703 -2.35701,1.84199 -3.56666,4.60917 -4.33549,7.42274 -0.71998,3.23414 0.53756,6.11685 2.02776,8.91302 0.46685,0.73938 1.29944,2.12745 1.89181,2.80065 0.39742,0.45166 0.78896,0.93688 1.30398,1.24784 7.99444,4.82691 10.71186,7.51286 17.78848,9.06384 4.54773,0.40961 7.88973,-0.49518 11.7267,-2.85635 2.57576,-1.97318 3.51225,-4.94823 4.02844,-8.01518 0.28624,-2.52348 0.3595,-5.06414 0.38987,-7.60154 -0.0159,-0.86497 -0.0931,-2.09098 -0.95166,-2.61089 -7.08338,-4.2891 -9.39334,-7.34217 -15.53652,-8.16762 -2.29913,-0.11931 -4.01824,1.08421 -5.64279,2.55602 -1.30918,1.61931 -2.62051,3.26868 -3.77829,5.00429 -0.88816,1.37721 -1.44566,2.61188 -1.72768,4.23038 -0.19688,1.4892 -0.29408,2.99405 -0.20245,4.49452 -0.16432,0.79575 -0.34542,1.57138 -0.40984,2.39427 0,0 13.28936,6.81067 13.28936,6.81067 v 0 c -0.0478,-0.88872 0.24801,-1.63156 0.50019,-2.47391 -0.0332,-0.76992 0.016,-0.38611 -0.15092,-1.15102 -0.0899,-1.02526 0.10434,-2.07732 0.14378,-3.09929 0.19463,-1.36455 0.69077,-2.51333 1.4068,-3.6946 1.04264,-1.64373 2.25121,-3.21693 3.54088,-4.66786 1.44402,-1.20472 2.94848,-1.90382 4.86241,-1.42073 4.89002,1.47285 10.93659,6.37523 -10.11648,-6.32413 -0.43733,-0.2638 1.09636,0.24041 1.38039,0.66487 0.13471,0.2013 0.0952,0.47499 0.14275,0.71249 0.0555,2.48464 0.10895,4.9782 -0.16078,7.45354 -0.38122,2.66795 -1.04388,5.26256 -3.34415,6.93348 -3.63852,2.1801 -6.81084,2.75385 -11.02246,1.92886 -5.53882,-1.59773 -10.26393,-5.18145 7.45062,5.28536 0.48173,0.28463 -0.99875,-0.52786 -1.41775,-0.89868 -0.40069,-0.35463 -1.70082,-2.20157 -1.99659,-2.61012 -1.41046,-2.44655 -2.88357,-4.92829 -2.42723,-7.86654 0.59241,-2.46918 1.54253,-4.93261 3.72295,-6.41881 2.8976,-1.62036 6.12429,-2.49341 9.38982,-3.03524 2.63135,-0.27489 5.26777,-0.24003 7.9109,-0.15865 z" /><path
       style="fill:#ff6600"
       id="path4"
       d="m 205.83846,217.50824 c -1.89757,1.82252 -4.30306,3.1322 -6.04133,5.12751 -0.43014,0.49375 -0.77354,1.05681 -1.16032,1.58522 -2.08877,2.87387 -3.77014,6.00867 -5.27526,9.21743 -1.35094,2.75683 -2.34864,5.65461 -3.05589,8.63682 -0.69813,2.74727 -1.17151,5.53135 -1.33895,8.35959 -0.031,4.17442 -0.16293,8.36261 0.1454,12.52942 0.55789,4.41065 2.37481,8.47305 4.17605,12.48743 1.4941,3.19689 3.10816,6.34631 4.87408,9.40233 1.75458,2.7752 3.64497,5.46474 5.52754,8.15469 1.66836,2.55645 3.97298,4.52255 6.29655,6.45589 3.82002,3.38337 8.08988,6.14158 12.43273,8.7911 7.30966,2.79764 13.5986,9.26482 21.45724,11.21378 1.17599,0.12014 2.30158,0.57345 3.48895,0.61786 0.32706,0.0122 1.4767,-0.0854 1.81616,-0.1116 1.14113,-0.27565 0.58238,-0.13824 1.67636,-0.41169 0,0 -12.24598,-8.49899 -12.24598,-8.49899 v 0 c -1.00076,0.1873 -0.49805,0.12139 -1.50804,0.1986 -1.69951,-0.0208 -3.35179,-0.43704 -4.99252,-0.85526 -5.25862,-1.73907 -16.56987,-8.81287 3.77263,3.04391 -4.30838,-2.55706 -8.629,-5.13576 -12.34214,-8.53538 -2.28681,-1.81586 -4.57718,-3.64929 -6.29589,-6.04032 -1.97438,-2.63163 -3.84773,-5.34105 -5.68661,-8.06834 -1.80233,-3.03123 -3.43513,-6.16517 -5.0264,-9.31022 -1.80966,-3.86546 -3.70487,-7.7693 -4.34869,-12.0317 -0.49176,-4.07458 -0.36566,-8.16511 -0.12707,-12.25659 0.18752,-2.74952 0.50268,-5.48861 1.20303,-8.16206 0.63995,-2.90019 1.62838,-5.69553 2.90996,-8.37709 1.39273,-3.14629 2.98534,-6.21128 5.04461,-8.98179 0.35308,-0.45385 0.67291,-0.93565 1.05926,-1.36154 1.74518,-1.92383 4.05777,-3.27988 6.16844,-4.74887 z" /><path
       style="fill:#ff6600"
       id="path5"
       d="m 283.43383,319.39195 c 5.3157,-0.86613 10.54514,-2.0951 15.73831,-3.51003 4.22505,-1.44282 8.3029,-3.1337 11.95364,-5.72346 3.02195,-2.35917 5.22512,-5.59963 7.53195,-8.62732 1.40178,-1.95505 2.99439,-3.80164 4.21499,-5.88328 0.74781,-1.27533 0.91866,-1.82836 1.49213,-3.21246 0.80254,-2.75521 0.44851,-1.33562 1.04817,-4.26223 0,0 -12.80688,-6.86002 -12.80688,-6.86002 v 0 c -0.57912,2.737 -0.23527,1.4192 -1.01323,3.95815 -1.38486,3.21471 -3.29852,6.09098 -5.50021,8.8123 -2.15244,2.9848 -4.39815,5.97018 -7.3701,8.19154 -3.44201,2.48945 -7.36044,4.17766 -11.39463,5.47504 -5.24225,1.43621 -10.54873,2.66326 -15.9813,3.1024 z" /><path
       style="fill:#ff6600"
       id="path6"
       d="m 76.876266,374.94768 c 0.633746,2.59024 1.120358,5.22543 1.527631,7.86196 0.314314,2.20594 0.386503,4.43451 0.409209,6.65936 0.01893,1.95395 0.63041,3.77402 1.450988,5.52086 0.69781,1.49864 1.659623,2.84359 2.589816,4.20248 0.616027,1.23621 1.823304,1.9279 2.681877,2.96086 2.340076,4.64184 0.542064,1.23713 13.759687,5.78438 0.334487,0.11507 -0.303233,-0.6392 -0.450172,-0.96097 -0.771401,-1.6892 -1.532319,-3.38242 -2.272549,-5.0855 -1.768598,-3.813 -3.112962,-7.80141 -4.17709,-11.86252 -0.842866,-3.04213 -1.388578,-6.15272 -2.042147,-9.23855 -0.922405,-3.6164 -1.742766,-7.26064 -2.798715,-10.8415 -0.628949,-2.28081 -1.381873,-4.52202 -2.183461,-6.74696 -0.67188,-1.37792 -0.988365,-2.84422 -1.139795,-4.35773 -0.112773,-1.44775 -0.08985,-2.90083 -0.104754,-4.35158 -0.01618,-1.78479 -0.01344,-3.56988 -0.0028,-5.35473 0.04686,-1.72661 0.0021,-3.43529 -0.234042,-5.14617 -0.04244,-0.24028 -0.08488,-0.48056 -0.127316,-0.72085 0,0 -13.490538,-6.42068 -13.490538,-6.42068 v 0 c 0.07639,0.18867 0.152777,0.37734 0.229166,0.56601 0.261944,1.65216 0.498629,3.2805 0.361924,4.96291 0.0062,1.77993 0.0015,3.5601 -0.02516,5.33983 -0.02023,1.48853 -0.01474,2.9783 0.0563,4.46556 0.105294,1.64328 0.249513,3.2853 0.943228,4.80555 1.083072,2.10036 1.709859,4.42946 2.400355,6.67941 1.186031,3.51258 2.124929,7.08988 2.899827,10.71574 0.602712,3.13226 1.182821,6.27927 2.053581,9.34762 1.13237,4.09848 2.387989,8.18039 4.126635,12.06784 0.694171,1.64195 1.43252,3.27293 2.049453,4.94632 0.112203,0.30434 0.01891,0.77585 0.30793,0.92309 4.559845,2.32311 9.327253,4.21428 13.975924,6.35411 0.101949,0.0469 -0.219236,-0.0481 -0.328854,-0.0722 -0.49445,-0.51225 -0.840847,-1.14659 -1.375747,-1.61873 -1.100831,-0.97166 0.08831,0.26721 -0.992159,-0.66292 -0.163524,-0.14077 -0.291216,-0.31846 -0.436824,-0.4777 -0.391728,-0.63803 -0.863016,-1.39679 -1.281762,-2.00695 -0.477559,-0.69586 -1.165773,-1.24346 -1.419506,-2.09047 -0.875646,-1.5157 -1.587188,-3.13423 -1.742039,-4.89821 -0.05679,-2.29524 -0.139783,-4.59252 -0.415651,-6.87381 -0.366407,-2.65401 -1.035672,-5.25042 -1.304743,-7.91875 z" /><path
       style="fill:#ff6600"
       id="path7"
       d="m 317.53742,113.66348 c 4.90535,0.0456 9.77362,0.60916 14.63414,1.21773 4.80517,0.62626 9.55071,1.62267 14.34647,2.30518 2.89128,0.42975 5.82065,0.41906 8.73612,0.40232 4.61543,0.28595 9.22447,0.90216 13.79241,1.62676 3.51352,0.52155 7.03362,1.00973 10.56292,1.41521 2.69957,0.41865 5.33302,1.13813 7.99051,1.7549 2.55171,0.49418 4.86249,1.68598 7.25027,2.64379 3.08071,0.99219 6.27717,1.57673 9.31135,2.71126 2.88048,0.91534 5.71745,1.93773 8.51111,3.09129 1.91435,0.63506 3.64145,1.64778 5.36964,2.65534 0,0 -11.586,-9.36848 -11.586,-9.36848 v 0 c -1.69833,-0.93792 -3.50424,-1.65578 -5.31041,-2.35754 -2.8269,-1.11743 -5.69105,-2.11967 -8.58687,-3.04373 -3.10342,-0.94573 -6.29146,-1.62777 -9.31209,-2.83402 -2.40494,-1.02409 -4.84958,-1.95377 -7.42202,-2.46956 -2.65711,-0.61464 -5.31719,-1.2668 -8.03206,-1.57015 -3.47708,-0.3737 -6.93683,-0.8829 -10.40151,-1.35519 -4.65114,-0.60906 -9.31419,-1.26848 -13.9971,-1.53353 -2.87838,-0.0693 -5.7608,-0.1414 -8.61605,-0.55077 -4.68544,-0.64781 -9.34378,-1.4798 -14.04095,-2.04691 -5.06976,-0.61599 -10.1351,-1.25234 -15.2432,-1.44388 z" /><path
       style="fill:#ff6600"
       id="path8"
       d="m 277.75586,77.367339 c 4.26299,0.443257 8.48439,0.996565 12.61007,2.179402 4.73552,2.093384 12.45004,6.623282 -8.43303,-5.049228 -0.38041,-0.212632 0.73533,0.468469 1.09261,0.718019 0.86231,0.602286 1.05911,0.794718 1.84596,1.453197 1.37025,1.053775 2.68375,2.131028 3.70017,3.53882 0,0 13.7014,5.897034 13.7014,5.897034 v 0 c -1.11786,-1.409051 -2.01689,-2.984861 -3.66424,-3.88622 -0.62386,-0.524039 -1.20353,-1.100314 -1.8401,-1.60883 -5.35122,-4.274746 -11.506,-7.786623 -18.01007,-9.957815 -4.27341,-1.007977 -8.64087,-1.409964 -12.9655,-2.142617 z" /><path
       style="fill:#ff6600"
       id="path9"
       d="m 209.60659,303.04389 c 2.75931,1.73766 5.27882,3.81428 7.96246,5.6635 6.63411,4.25012 13.09225,9.30792 20.64819,11.69439 1.93618,0.68644 3.94593,1.08064 5.99233,1.20328 1.53167,0.086 3.06604,0.0504 4.59891,0.0778 0.22479,-0.35637 0.57625,-0.65936 0.67435,-1.06912 0.0771,-0.32188 0.0947,-0.79839 -0.18483,-0.97556 -7.23865,-4.5875 -10.14021,-6.00833 -15.84974,-8.89057 -1.58888,-1.01106 -3.37916,-1.60785 -4.99312,-2.56935 -1.91817,-0.69738 -3.80236,-1.43527 -5.67022,-2.25669 0.60855,0.56827 -2.14824,-1.0443 -1.62959,-0.74741 40.42255,23.13864 -30.34447,-17.42879 10.19867,5.84048 -4.43697,-6.15924 -12.03642,-6.34484 -17.91537,-9.71194 -4.40566,-2.53145 -10.59212,-5.81361 10.22288,5.87563 0.28823,0.16186 -0.53924,-0.38323 -0.79673,-0.59054 -0.29937,-0.24104 -1.00272,-0.89086 -1.30459,-1.16662 -1.16334,-0.9938 -1.9917,-2.26405 -2.93829,-3.44548 -0.13811,-0.20442 -0.27306,-0.411 -0.41432,-0.61325 -1.4625,-2.01904 0.48847,0.7016 -0.66598,-0.98367 -2.68382,-3.91789 -17.83355,-9.21819 -13.23665,-5.35445 1.24566,1.43143 2.35559,2.96528 3.65684,4.34752 1.33184,1.24022 2.60869,2.5082 4.09393,3.56441 0,0 13.84583,5.40814 13.84583,5.40814 v 0 c -0.72664,-0.44029 -1.57098,-0.88616 -2.22381,-1.43357 -0.6939,-0.58187 -1.16852,-1.42272 -1.97023,-1.89041 -1.43137,-1.19784 -2.5161,-2.67027 -3.64195,-4.14761 -2.5258,-4.42653 -17.58727,-10.8884 -14.27955,-6.42466 0.10365,0.13987 0.24565,0.24862 0.34786,0.38955 1.43439,1.9778 -0.718,-0.75946 0.82133,1.16494 0.82053,1.44602 -0.0638,0.0161 0.89508,1.2278 0.65465,0.82728 1.04613,1.8634 1.95731,2.47679 4.54633,5.15409 11.26883,7.66747 17.2592,10.89935 5.32585,2.31175 14.88525,7.24216 -7.62504,-4.94449 44.91418,25.84026 -8.34969,-4.82526 1.91772,1.07699 4.4809,2.57586 8.94549,5.18039 13.44508,7.72347 0.50871,0.28752 1.12431,0.35224 1.62069,0.66813 1.86824,0.8021 3.83106,1.38957 5.61548,2.37665 1.68323,0.82401 3.38028,1.6167 5.02241,2.52267 1.7645,0.85469 -0.0384,-0.0358 1.6439,0.8454 0.24895,0.13039 0.9967,0.51887 0.75407,0.37706 -30.19488,-17.64831 -15.05032,-3.9245 -11.44471,-7.46167 0.26923,-0.26411 0.45205,-0.60382 0.67807,-0.90573 -1.48094,0.0346 -2.96639,-0.005 -4.44124,-0.14615 -1.9498,-0.26809 -3.86033,-0.72978 -5.6955,-1.4538 -4.67255,-1.98868 -10.86046,-6.13485 9.14477,5.55867 0.45649,0.26683 -0.93465,-0.49547 -1.39077,-0.76294 -1.27477,-0.74752 -1.90978,-1.20567 -3.14869,-2.04147 -2.6323,-1.75874 -5.12532,-3.68894 -7.64684,-5.60017 z" /></g></svg>
