<?xml version="1.0" encoding="UTF-8" standalone="no"?>
<!-- Created with Inkscape (http://www.inkscape.org/) -->

<svg
   width="512"
   height="512"
   viewBox="0 0 512 512"
   version="1.1"
   id="svg1"
   xml:space="preserve"
   inkscape:version="1.4.2 (f4327f4, 2025-05-13)"
   sodipodi:docname="talk.svg"
   xmlns:inkscape="http://www.inkscape.org/namespaces/inkscape"
   xmlns:sodipodi="http://sodipodi.sourceforge.net/DTD/sodipodi-0.dtd"
   xmlns="http://www.w3.org/2000/svg"
   xmlns:svg="http://www.w3.org/2000/svg"><sodipodi:namedview
     id="namedview1"
     pagecolor="#ffffff"
     bordercolor="#000000"
     borderopacity="0.25"
     inkscape:showpageshadow="2"
     inkscape:pageopacity="0.0"
     inkscape:pagecheckerboard="0"
     inkscape:deskcolor="#d1d1d1"
     inkscape:document-units="px"
     inkscape:zoom="1.5097656"
     inkscape:cx="255.66882"
     inkscape:cy="255.66882"
     inkscape:window-width="1920"
     inkscape:window-height="991"
     inkscape:window-x="-9"
     inkscape:window-y="-9"
     inkscape:window-maximized="1"
     inkscape:current-layer="layer1" /><defs
     id="defs1" /><g
     inkscape:label="Layer 1"
     inkscape:groupmode="layer"
     id="layer1"><path
       id="path46"
       style="fill:#ff6600"
       d="m 234.11719,76.349609 c -4.24206,-0.09294 -8.48949,-0.03293 -12.73633,0.02148 -10.08987,0.404911 -20.40537,0.394512 -30.28906,2.77539 -1.90745,0.459486 -3.76611,1.108622 -5.64844,1.66211 -5.2067,1.544696 -10.30309,3.429797 -15.28516,5.58789 -2.90864,1.259937 -5.12103,2.257719 -7.82617,3.875 -1.09874,0.656895 -2.13521,1.41128 -3.20312,2.117188 -3.99452,2.827111 -7.56472,6.189287 -11.28321,9.353518 -2.35342,2.00263 -4.32633,3.50297 -6.77539,5.41992 -7.1636,5.22603 -14.37097,10.163 -21.08203,15.98047 -4.55234,3.8983 -8.32839,8.56166 -12.41992,12.91015 -2.70159,2.96774 -5.48807,5.85784 -8.052735,8.94532 -3.809828,4.57531 -7.095111,9.53386 -10.189453,14.60937 -1.777241,3.2075 -3.622036,6.4106 -4.851563,9.88086 -0.622211,1.75615 -0.888697,3.00215 -1.339843,4.80469 -1.133709,4.46068 -2.566042,8.83846 -4.126954,13.16601 -1.463204,4.50603 -2.426981,9.18296 -3.277343,13.8418 -1.141695,5.1587 -1.811386,10.38539 -2.207031,15.64844 -0.389821,6.61989 -0.420121,13.24469 -0.25586,19.87109 0.29216,8.40433 0.634211,16.81345 1.490234,25.18164 0.667789,7.21665 4.015715,13.736 7.31836,20.0625 3.305797,6.6054 7.836254,12.39878 12.447266,18.1211 5.292124,6.77135 11.647432,12.54641 18.140622,18.1289 6.36797,5.36536 13.00379,10.39306 19.67383,15.37305 8.02035,6.09701 16.12863,12.06332 24.60938,17.50586 9.66684,5.86683 19.47452,11.51886 29.4707,16.80664 5.69205,2.71073 11.42684,5.32798 17.0957,8.08984 2.72542,1.23924 5.34676,2.81505 8.23633,3.66797 1.34034,0.39563 1.7983,0.39633 3.18945,0.57422 5.94931,0.49667 11.84186,1.45787 17.73243,2.41602 3.81209,0.48528 7.64189,1.11942 11.48437,1.35156 -1.29475,4.22464 -2.94035,8.33764 -4.7168,12.38477 -2.02732,3.96215 -4.14469,7.92126 -6.58984,11.64648 -1.6446,2.744 -3.75957,5.15482 -5.76953,7.62891 -1.03399,1.3933 -2.07298,2.782 -3.11914,4.16601 -0.1126,0.0479 -0.22627,0.0963 -0.3418,0.14649 -3.31704,1.44164 -6.12554,3.71091 -8.91602,5.96289 -1.73634,1.37348 -3.8132,2.71526 -5.23242,4.44336 -0.40843,0.49732 -1.55462,1.22822 -1.04492,1.62109 11.19363,8.62783 8.47801,9.24277 14.13281,7.41211 0.81166,-0.36474 1.58251,-0.72274 2.32032,-1.10547 1.57176,-1.65447 3.45228,-2.99407 5.35156,-4.26367 1.1079,-0.75602 2.27789,-1.37568 3.48828,-1.89844 0.56452,-0.63069 1.41035,-1.21061 2.57617,-1.6582 1.87513,-0.71991 3.74879,-1.44562 5.62696,-2.16016 0.50971,-0.63178 1.2535,-1.23661 2.26367,-1.75586 1.7177,-0.88292 3.41192,-1.81257 5.13672,-2.68164 2.46219,-1.23293 4.85147,-2.61183 7.28906,-3.89258 4.81669,-2.44715 9.58971,-4.99573 14.60156,-7.03125 4.53818,-1.85905 9.12198,-3.61393 13.75,-5.24023 2.06157,-1.32952 4.1482,-2.6197 6.26563,-3.86133 3.06025,-1.89563 6.08411,-3.84729 9.08203,-5.83984 3.22131,-2.16291 6.4464,-4.321 9.6582,-6.49805 3.47935,-2.18994 6.91987,-4.44939 10.5,-6.47266 3.5365,-2.126 7.14617,-4.16501 10.91992,-5.84179 0.25115,-0.10912 0.50212,-0.21677 0.75391,-0.32422 2.31053,-2.32433 4.79944,-4.45138 7.55859,-6.22656 0.20033,-1.18713 1.07323,-2.51356 2.82031,-3.6211 3.3512,-2.12445 6.51888,-4.53127 9.74219,-6.84375 3.77789,-2.5182 7.40882,-5.22857 10.87891,-8.1543 0.91736,-0.78217 1.83611,-1.5608 2.7539,-2.34179 1.65679,-1.77938 3.33291,-3.54249 5.02149,-5.29297 3.21835,-3.4915 6.6527,-6.77449 9.93359,-10.20313 2.95846,-3.24194 5.94518,-6.4361 9.1543,-9.43164 0.47267,-0.45055 0.94093,-0.90565 1.41797,-1.35156 1.26404,-1.18155 2.50994,-2.36188 3.60742,-3.70703 0.25794,-0.31613 2.89042,-3.80189 3.00195,-3.94922 3.68761,-4.98352 6.93387,-10.27502 9.92188,-15.70117 2.97512,-5.66339 4.90448,-11.7876 7.3457,-17.68555 2.63713,-6.38335 4.8517,-12.92426 7.06836,-19.46289 1.30792,-3.73762 2.52035,-7.55351 3.3418,-11.43359 0.49038,-2.31629 0.82372,-4.66361 1.25195,-6.99219 1.21783,-7.30434 2.61052,-14.57595 3.84766,-21.87695 0.41077,-4.31006 1.1979,-8.62633 1.16601,-12.97071 -0.0235,-3.20529 -0.32837,-5.62133 -0.63476,-8.82421 -0.60693,-5.4465 -1.50309,-10.88784 -3.24219,-16.09961 -0.98413,-2.94924 -1.57468,-4.14761 -2.80664,-6.99805 -2.98072,-6.5754 -7.10532,-12.51825 -11.23438,-18.40625 -5.08209,-6.9671 -10.35551,-13.79469 -15.55468,-20.67578 -3.78146,-5.22081 -7.62137,-10.39482 -11.54883,-15.50586 -3.39435,-4.61793 -7.43644,-8.59113 -11.84961,-12.21875 -6.54301,-5.05293 -13.82848,-8.77263 -21.17578,-12.64063 -1.43426,-0.755035 -2.98854,-1.25484 -4.50391,-1.830074 -2.72722,-1.035252 -6.9543,-2.432543 -9.7207,-3.365235 -7.19647,-2.159557 -14.23275,-4.817727 -21.44141,-6.935547 -5.23316,-1.689261 -10.56991,-3.045459 -15.92969,-4.265625 C 294.28275,82.402046 286.13445,81.447691 278,80.427734 c -10.3866,-1.139233 -20.77034,-2.292989 -31.18164,-3.183593 -4.22234,-0.556503 -8.45912,-0.801593 -12.70117,-0.894532 z m -1.84766,7.933594 c 8.62068,0.111513 17.22539,0.544754 25.81641,1.279297 10.31592,0.697783 20.59682,1.806277 30.86133,3.041016 8.3135,1.148878 16.63201,2.292966 24.83593,4.091796 5.34758,1.251166 10.65114,2.679655 15.88672,4.341797 7.0021,2.07819 13.91795,4.430951 20.89649,6.585941 3.26563,1.1173 6.4932,2.17138 9.69336,3.47265 0.50447,0.20513 1.3057,0.60311 2.11132,1.00977 2.15796,1.70621 4.25725,3.45239 6.18555,5.42773 1.32234,1.3546 2.23314,2.50134 3.44727,3.95508 0.57282,0.68587 1.14408,1.3726 1.71679,2.0586 4.01759,5.23041 8.12172,10.39474 12.03907,15.70312 5.1353,6.8179 10.2798,13.62922 15.3164,20.51953 4.10444,5.84835 8.27638,11.70192 11.37891,18.16406 1.3199,2.93782 1.78751,3.82493 2.87695,6.85743 1.84478,5.13496 2.94252,10.50434 3.55078,15.91992 0.13073,1.47897 0.31584,2.95475 0.39258,4.4375 0.29185,5.63907 -0.42292,11.29777 -1.08008,16.88476 -1.06647,7.32812 -2.32269,14.61727 -3.70703,21.89258 -1.26937,6.13732 -2.52605,12.30004 -4.54883,18.24414 -2.11724,6.54072 -4.52552,12.96855 -7.05078,19.36133 -2.38419,5.86012 -4.44216,11.86876 -7.41797,17.46875 -2.86617,5.40329 -5.89255,10.75069 -9.80859,15.48047 -2.52612,3.05721 -5.14159,6.0319 -8.03125,8.75391 -3.19945,3.04122 -6.17861,6.28669 -9.24219,9.46289 -0.54564,0.56398 -1.08722,1.13 -1.62695,1.69921 -0.87335,1.18854 -1.76703,2.36375 -2.6543,3.53711 -2.49489,3.25829 -4.92363,6.56699 -7.44531,9.80469 -2.15001,2.77219 -4.68222,5.20649 -7.17188,7.66602 -1.70013,1.77282 -3.49947,3.42504 -5.38085,5 -0.85621,0.73954 -0.40657,0.3633 -1.34961,1.12109 -0.97892,0.78662 -1.92275,1.23117 -2.77344,1.4082 -1.88892,1.77647 -3.93881,3.36208 -6.13867,4.75391 -2.00106,1.10636 -4.1431,1.90717 -6.16211,2.97852 -0.84399,0.44784 -1.63121,0.70472 -2.3418,0.80859 -1.8417,1.04222 -3.71492,2.0293 -5.62891,2.94141 -4.39767,2.20031 -8.73259,4.50381 -12.83007,7.23632 -4.72726,2.97295 -9.40963,5.99923 -13.97461,9.21875 -3.76521,2.44839 -7.4178,5.06763 -11.24219,7.42774 -4.01615,2.65379 -7.98785,5.36968 -11.82031,8.28515 -4.28742,2.9337 -8.71759,5.63759 -13.58789,7.51758 -3.10856,1.17472 -6.24969,2.23432 -9.41797,3.20703 1.79812,-3.20872 3.36679,-6.5522 5.01953,-9.83203 2.44029,-5.52436 4.61559,-11.13868 6.34179,-16.93164 0.10458,-0.3379 0.91824,-2.82905 1.14649,-4.16992 1.43445,-0.002 1.87451,0.32686 0.043,-0.30859 0.0306,-0.28282 0.0185,-0.47637 -0.0586,-0.52735 -11.35646,-7.5074 -8.94925,-9.07295 -15.09375,-7.10547 -2.21838,0.59337 -4.48506,0.96926 -6.77539,1.15039 -5.38784,0.24514 -10.75438,-0.59597 -16.08007,-1.31054 -6.05967,-0.9337 -12.09629,-2.00652 -18.17969,-2.77149 -3.85148,-0.82299 -7.35227,-2.58668 -10.86524,-4.32812 -5.71578,-2.75358 -11.51553,-5.33493 -17.16992,-8.21289 -2.19633,-1.15807 -4.37458,-2.33839 -6.54687,-3.53906 -8.13906,-5.17066 -15.8872,-10.83382 -23.56446,-16.67579 -6.54387,-4.93787 -12.99042,-9.99701 -19.35937,-15.1582 -6.5677,-5.49113 -12.97981,-11.19232 -18.32422,-17.92187 -4.58621,-5.60749 -8.914033,-11.41028 -12.375,-17.79688 -3.369175,-6.1598 -6.661826,-12.52117 -7.535156,-19.58594 -1.175432,-8.31184 -1.549379,-16.69778 -1.632813,-25.08789 -0.06107,-6.54236 0.06513,-13.09625 0.435547,-19.6289 0.416956,-5.21118 1.160198,-10.37486 2.146484,-15.50977 0.847876,-4.57789 2.00293,-9.09441 3.363282,-13.54687 1.461693,-4.41478 2.908133,-8.8393 4.083984,-13.33985 0.384041,-1.5778 0.720233,-3.10546 1.234375,-4.64844 1.137299,-3.41312 2.884327,-6.58438 4.621097,-9.71875 3.0666,-4.99071 6.23432,-9.95615 10.15234,-14.33398 2.76586,-2.90602 5.54481,-5.79659 8.07422,-8.91602 3.87883,-4.43965 7.66368,-8.98353 12.02734,-12.96679 2.76228,-2.49243 2.98221,-2.77075 5.99219,-5.14063 4.82298,-3.7973 9.98875,-7.13292 14.86133,-10.86523 1.35987,-1.02027 5.65989,-4.2195 7.05273,-5.36719 0.92077,-0.7587 1.7728,-1.59913 2.67578,-2.37891 2.74324,-2.369 5.53131,-4.69843 8.46289,-6.83203 1.02235,-0.688214 2.01766,-1.422312 3.06836,-2.066403 6.9675,-4.271159 14.80387,-6.987735 22.54297,-9.460938 1.88336,-0.503553 3.74966,-1.078297 5.65039,-1.511718 9.81215,-2.237452 19.97903,-2.491096 29.99219,-2.679688 z" /><path
       style="fill:#ff6600"
       id="path47"
       d="m 184.24304,187.241 c -4.19741,-0.55354 -8.40153,-1.0365 -12.61219,-1.49084 -1.22387,-0.13206 -2.44297,-0.32712 -3.6724,-0.38898 -1.25063,-0.0629 -2.5044,0.0101 -3.7566,0.0152 -3.17946,0.35953 -4.31463,0.38102 -7.41531,1.15247 -1.17234,0.29169 -2.37208,0.54142 -3.47059,1.04418 -3.97353,1.81858 -6.62926,4.779 -9.45058,7.95127 -3.00667,4.14337 -5.6196,8.77017 -6.93489,13.76097 -0.19515,0.74048 -0.312,1.4994 -0.468,2.24909 -0.23034,5.61338 -0.22404,11.41631 1.14992,16.909 0.25784,1.03074 0.63817,2.0269 0.95725,3.04035 1.43609,3.6656 2.97881,7.51343 5.81756,10.3631 2.84568,2.85664 5.42954,4.43856 8.7445,6.77219 8.4609,5.07512 11.14112,6.77705 22.3815,12.54824 2.88447,1.48098 6.988,2.83449 10.26045,3.1279 3.95172,0.3543 6.88727,-0.35654 10.75671,-0.96779 5.52024,-1.46223 11.42958,-3.10922 14.8717,-8.06665 1.9438,-2.79951 1.952,-4.13578 2.82438,-7.47348 1.43628,-8.82539 0.43166,-17.75434 -1.20991,-26.46882 -1.42424,-5.27406 -3.03681,-10.55193 -5.40945,-15.48931 -1.13875,-2.36972 -1.56476,-2.95075 -2.89451,-5.12547 -4.70145,-7.12046 -8.35192,-7.72297 -17.8631,-12.78489 -0.59772,-0.31811 -3.97027,-0.73236 -4.47001,-0.80339 -3.14541,-0.4242 -6.31563,-0.59528 -9.481,-0.78682 0,0 11.43388,8.42821 11.43388,8.42821 v 0 c 3.20995,0.24881 6.42732,0.47876 9.59786,1.0704 0.79884,0.17546 1.61062,0.29991 2.39654,0.52636 4.09747,1.18064 13.97671,7.41242 -9.02588,-5.82826 -0.49588,-0.28544 0.94979,0.64408 1.37752,1.02411 1.31169,1.16544 1.78365,1.94375 2.86967,3.37009 1.42583,2.10194 1.92502,2.72727 3.16066,5.03378 2.56979,4.79692 4.31647,10.00291 5.70255,15.24902 1.75722,8.50313 2.89436,17.24296 1.50736,25.895 -0.82656,2.89482 -0.96634,4.36959 -2.65492,6.8229 -3.18763,4.63124 -8.7646,6.22435 -13.91908,7.52077 -1.76062,0.22534 -3.50902,0.58892 -5.28187,0.67602 -3.85669,0.18949 -6.43392,-0.12708 -10.08397,-1.32014 -1.71656,-0.56107 -5.9172,-3.62001 -5.01198,-2.05733 1.21337,2.09463 4.44584,2.17226 6.10152,3.93818 1.39908,1.49225 -3.53571,-2.05806 -5.30357,-3.0871 -2.86801,-1.96864 -5.74938,-3.7518 -8.27799,-6.16185 -2.82261,-2.69027 -4.47342,-6.36898 -5.9837,-9.87985 -0.35287,-0.96514 -0.76886,-1.90949 -1.05859,-2.89542 -1.54103,-5.24407 -1.63585,-10.87739 -1.17109,-16.27674 1.02781,-5.63334 3.14672,-10.97931 6.62612,-15.57511 2.18683,-2.4638 2.87557,-3.55571 5.67849,-5.41291 4.16591,-2.76031 9.17502,-3.39203 14.04352,-3.69562 6.84461,0.18428 13.78328,0.87458 20.38395,2.75623 z" /><path
       id="path48"
       style="fill:#ff6600"
       d="m 257.14844,191.45508 c -3.03898,0.10819 -6.06317,0.44693 -9.01758,1.20898 -1.21253,0.31276 -2.37379,0.79967 -3.56055,1.19922 -5.27217,2.58615 -9.91238,6.43497 -12.84375,11.58594 -0.44059,0.7742 -0.77819,1.60332 -1.16797,2.4043 -1.4736,4.64074 -1.93525,9.51271 -2.92578,14.26757 -0.70698,3.68328 -1.41948,7.4661 -1.29297,11.23829 0.0314,0.93591 0.16274,1.86592 0.24414,2.79882 0.73759,4.93573 2.49204,9.79375 5.84766,13.58008 0.6603,0.74505 1.43157,1.38531 2.14648,2.07813 5.25409,2.89165 10.33455,6.12374 15.76172,8.67578 1.4032,0.65984 9.36145,1.68544 10.54883,1.8125 5.80089,0.62076 11.40914,0.68877 17.22656,0.55859 5.7595,-0.6341 11.86731,-1.82529 16.61133,-5.41797 2.79829,-2.11916 3.0925,-3.09129 4.98828,-5.95898 2.37369,-7.0596 1.81654,-14.42479 -0.47461,-21.42774 -0.41844,-1.27898 -0.95441,-2.51717 -1.43164,-3.77539 -2.618,-6.10273 -6.56935,-11.40772 -10.85937,-16.41601 -2.62603,-2.90723 -5.3028,-5.76838 -7.98633,-8.62305 -0.2982,-0.16428 -0.59226,-0.33729 -0.88086,-0.51953 -0.23625,-0.17704 -0.47273,-0.35421 -0.70898,-0.53125 -0.99682,-0.74698 -1.65875,-1.54532 -2.04102,-2.32031 -0.16398,-0.0946 -0.32815,-0.18867 -0.49219,-0.28321 l 0.44336,0.1836 c -0.17991,-0.38833 -0.28897,-0.77065 -0.33593,-1.13672 -0.98267,-0.57403 -1.95511,-1.16712 -2.91602,-1.77539 -1.41387,-0.77478 -2.52849,-1.82682 -3.58789,-2.98828 -0.0337,-0.006 -0.0678,-0.0121 -0.10156,-0.0176 -0.6894,-0.11243 -1.38952,-0.14968 -2.08399,-0.22461 -3.01695,-0.16119 -6.07039,-0.28398 -9.10937,-0.17578 z m 12.29297,8.28125 c 1.42785,1.51588 2.84425,3.04371 4.2832,4.54687 4.37593,4.92451 8.51778,10.08999 11.33203,16.09766 0.508,1.22549 1.07314,2.42793 1.52344,3.67578 1.88266,5.21713 2.926,10.95 1.97461,16.48047 -0.22311,1.29694 -0.6847,2.5419 -1.02735,3.8125 -1.74248,2.62424 -2.01757,3.52982 -4.60351,5.44922 -4.56723,3.38999 -10.44008,4.3963 -15.9336,5.02539 -1.71654,0.0472 -3.43325,0.15313 -5.15039,0.14062 -3.7191,-0.0271 -8.13982,-0.31989 -11.81445,-0.8125 -1.92541,-0.25812 -3.84836,-0.56616 -5.74414,-0.99023 -0.20377,-0.0456 -0.44711,-0.11987 -0.7168,-0.21289 -2.19082,-3.04468 -3.47157,-6.65376 -4.0957,-10.375 -0.0859,-0.87154 -0.22122,-1.73821 -0.25586,-2.61328 -0.1458,-3.6839 0.60425,-7.36799 1.25,-10.97071 0.95582,-4.66789 1.29257,-9.45744 2.6543,-14.03125 0.33956,-0.76021 0.62945,-1.54373 1.01953,-2.27929 2.63805,-4.9744 6.99933,-8.65701 12.13086,-10.86719 1.13971,-0.35438 2.25741,-0.78391 3.41797,-1.0625 3.19689,-0.7674 6.47455,-1.04432 9.75586,-1.01367 z" /><path
       style="fill:#ff6600"
       id="path49"
       d="m 361.58052,190.60466 c -3.06818,-0.73885 -6.1864,-1.36055 -9.33617,-1.62713 -2.69203,-0.22783 -4.0535,-0.13558 -6.75325,-0.0894 -2.37085,0.16874 -4.30132,0.19446 -6.61861,0.80742 -3.4034,0.90024 -6.79077,2.65163 -9.68274,4.63735 -0.94559,0.64927 -1.80831,1.41164 -2.71246,2.11747 -0.80317,0.77594 -1.7036,1.46245 -2.40951,2.32782 -2.06994,2.5375 -2.93728,4.7497 -4.09148,7.85175 -1.73906,4.67391 -2.855,9.50457 -3.93423,14.35994 -0.21783,1.37292 -0.57589,2.73084 -0.6535,4.11877 -0.33126,5.92431 1.2121,13.35346 3.06589,18.97739 0.48059,1.45798 1.08688,2.87148 1.63032,4.30722 2.60418,5.40578 6.00456,10.43381 10.81927,14.11066 1.05989,0.80941 2.18109,1.54341 3.34313,2.19776 5.1664,2.90924 10.42142,5.65823 15.63213,8.48734 4.78808,1.59521 9.87447,1.99935 14.79886,0.72778 2.4724,-0.63842 4.57338,-1.69643 6.89178,-2.73154 2.54537,-1.49527 4.18909,-2.27623 6.37735,-4.29578 2.80669,-2.5903 5.22355,-5.95077 7.0638,-9.28474 0.54627,-0.98968 0.98243,-2.03626 1.47364,-3.0544 2.7826,-6.65626 2.38154,-13.8787 1.81865,-20.9091 -0.30411,-6.37587 -2.22203,-12.42981 -4.50836,-18.33368 -1.33793,-3.34723 -3.01669,-6.53072 -4.92554,-9.58143 -1.04959,-1.84628 -2.21408,-3.59536 -3.72886,-5.08791 -1.96557,-1.63009 -3.78171,-3.42352 -5.66007,-5.15002 -1.21937,-1.06502 -0.58334,-0.55058 -1.91074,-1.54 0,0 -13.77549,-5.38293 -13.77549,-5.38293 v 0 c 1.40389,0.81289 0.73055,0.36485 2.02035,1.34363 1.88983,1.67708 3.65481,3.4739 5.54786,5.14307 1.69414,1.25794 2.96847,2.8656 4.00275,4.70517 1.88335,3.12647 4.00697,6.12505 5.40204,9.52964 2.42174,5.77486 4.40647,11.74607 4.8572,18.03836 0.69189,6.79295 0.99285,13.72559 -1.52991,20.21421 -0.44476,0.98585 -0.83357,1.9989 -1.33426,2.95755 -2.99492,5.73432 -7.12027,9.9988 -12.94274,12.85634 -2.52702,1.03707 -4.09099,1.81296 -6.75638,2.39527 -4.81059,1.05098 -9.65847,0.46068 -14.22078,-1.30446 2.83657,1.7789 5.70786,3.5036 8.5097,5.33671 1.12022,0.7329 -2.36008,-1.27515 -3.46249,-2.03457 -4.93524,-3.39975 -8.5027,-8.20854 -11.18822,-13.50469 -0.56098,-1.40092 -1.17964,-2.78009 -1.68295,-4.20274 -2.05795,-5.81702 -3.49509,-12.1872 -3.23027,-18.39291 0.0586,-1.3742 0.33624,-2.73026 0.50437,-4.0954 1.39985,-7.23417 2.95684,-15.54386 7.91119,-21.30384 0.69441,-0.80733 1.53874,-1.4725 2.30811,-2.20875 0.86897,-0.66233 1.70142,-1.37552 2.6069,-1.98699 4.75789,-3.21302 10.15057,-4.82533 15.88557,-4.80874 1.11329,0.007 2.22762,-0.0267 3.33987,0.022 4.43207,0.19379 8.81342,1.09367 13.03082,2.44495 z" /></g></svg>
