<?xml version="1.0" encoding="UTF-8" standalone="no"?>
<!-- Created with Inkscape (http://www.inkscape.org/) -->

<svg
   width="512"
   height="512"
   viewBox="0 0 512 512"
   version="1.1"
   id="svg1"
   xml:space="preserve"
   inkscape:version="1.4.2 (f4327f4, 2025-05-13)"
   sodipodi:docname="topic.svg"
   xmlns:inkscape="http://www.inkscape.org/namespaces/inkscape"
   xmlns:sodipodi="http://sodipodi.sourceforge.net/DTD/sodipodi-0.dtd"
   xmlns="http://www.w3.org/2000/svg"
   xmlns:svg="http://www.w3.org/2000/svg"><sodipodi:namedview
     id="namedview1"
     pagecolor="#ffffff"
     bordercolor="#000000"
     borderopacity="0.25"
     inkscape:showpageshadow="2"
     inkscape:pageopacity="0.0"
     inkscape:pagecheckerboard="0"
     inkscape:deskcolor="#d1d1d1"
     inkscape:document-units="px"
     inkscape:zoom="1.5097656"
     inkscape:cx="255.66882"
     inkscape:cy="256"
     inkscape:window-width="1920"
     inkscape:window-height="991"
     inkscape:window-x="-9"
     inkscape:window-y="-9"
     inkscape:window-maximized="1"
     inkscape:current-layer="layer1" /><defs
     id="defs1" /><g
     inkscape:label="Layer 1"
     inkscape:groupmode="layer"
     id="layer1"><path
       style="fill:#ff6600"
       id="path1"
       d="m 90.278062,422.84843 c 2.353788,2.2405 4.742167,4.38985 7.42243,6.23146 8.687748,5.18212 17.304628,10.60921 26.862918,14.02762 6.01186,2.04014 12.19582,3.41617 18.42062,4.60856 6.1004,1.14923 12.19406,2.31548 18.31699,3.33996 7.57862,1.12122 15.25001,1.47258 22.89489,1.84351 10.06315,0.67043 20.14227,1.03338 30.21767,1.45804 8.89326,0.25784 17.79229,0.0857 26.68958,0.12617 9.44468,0.1307 18.80713,-1.13229 28.0852,-2.76564 9.346,-1.81252 18.59771,-4.06098 27.88096,-6.16091 8.39883,-2.01027 16.91002,-3.48566 25.32913,-5.4029 6.55843,-1.81887 13.31989,-2.55072 20.06407,-3.28843 6.35491,-0.88446 12.73022,-1.58721 19.10657,-2.29905 5.29189,-0.50716 10.60391,-0.85962 15.82776,-1.88635 2.7998,-0.43212 5.3221,-1.751 7.99651,-2.58937 6.19091,-1.58409 12.4797,-2.75732 18.75745,-3.93964 4.79265,-1.27453 9.71566,-1.89472 14.57891,-2.81125 3.22889,-0.8474 6.45436,-1.73217 9.61517,-2.81158 2.29922,-0.7571 4.5781,-1.55788 6.6177,-2.87782 1.43985,-0.94544 2.97735,-1.82707 4.26239,-2.98821 0.20809,-0.18802 2.07119,-2.09191 2.18603,-2.20886 3.13145,-3.26512 6.57544,-6.22634 9.59084,-9.5989 3.4849,-3.96984 5.12753,-9.00084 6.54131,-13.98972 1.84909,-7.5697 2.84909,-15.31762 3.74584,-23.04839 0.7285,-5.29721 0.82738,-10.62765 0.85332,-15.96322 0.0624,-5.17082 0.027,-10.34064 -0.0412,-15.51102 0.14525,-7.44119 -0.34265,-14.85204 -0.77813,-22.27405 -0.26331,-10.09251 -1.3251,-20.11396 -2.80209,-30.09252 -1.365,-7.26327 -2.64085,-14.52306 -3.27706,-21.88988 -0.70926,-6.69559 -0.061,-13.40497 0.39861,-20.08988 0.30388,-5.23299 1.34774,-10.37551 2.35113,-15.50767 0.87142,-4.88924 1.27619,-9.84671 1.77536,-14.78402 0.5079,-5.83466 1.17367,-11.65247 1.81271,-17.47344 0.64198,-6.23917 1.12286,-12.4929 1.48346,-18.75433 0.38638,-5.95076 0.2982,-11.91122 0.31006,-17.86981 0.078,-5.57658 -0.10987,-11.15434 -0.70136,-16.70032 -0.61377,-4.02248 -1.62068,-7.94529 -3.21779,-11.68622 -1.33232,-2.97525 -2.98952,-5.78636 -4.4533,-8.69493 -0.59312,-1.37396 -1.52805,-2.54216 -2.32469,-3.79633 -1.05109,-1.38329 -2.30424,-2.58156 -3.65769,-3.66468 -4.77849,-3.58937 -9.28297,-5.8534 -15.23584,-8.92685 -0.5521,-0.28505 -1.23375,-0.14882 -1.85044,-0.22468 -1.7573,-0.21617 -3.84685,-0.47922 -5.58152,-0.69663 -5.04667,-0.59402 -10.09796,-1.17639 -15.17259,-1.465961 -3.15134,-0.09648 -6.30441,-0.123904 -9.45696,-0.09686 -3.58883,0.04756 -7.17786,0.02607 -10.76684,0.02616 -4.57685,0.05071 -9.15393,0.05272 -13.731,0.0707 -8.40062,0.118653 -16.7999,0.203742 -25.2016,0.174907 -7.75891,-0.06003 -15.51839,-0.06042 -23.27715,-0.128864 -4.47841,-0.06198 -8.95719,-0.09758 -13.43604,-0.101583 -4.98327,0.08982 -9.96352,-0.0724 -14.94407,-0.213019 -9.00586,-0.228415 -18.01615,-0.138926 -27.02416,-0.152903 -12.99607,0.03207 -25.99209,0.09786 -38.98844,0.101137 -12.22361,-0.01399 -24.44476,-0.214084 -36.66716,0.01799 -8.14148,0.12378 -16.28155,0.07294 -24.415,0.475412 -5.0245,0.402414 -10.00898,1.137464 -15.03888,1.489924 -4.97592,0.40344 -9.88178,1.29844 -14.79321,2.15169 -4.84991,0.81427 -9.61088,2.07317 -14.27623,3.61547 -4.80084,1.44275 -9.37611,3.47829 -13.94826,5.50535 -2.86204,1.20607 -5.46127,2.88256 -7.99896,4.64927 -2.59142,1.65826 -5.13923,3.37718 -7.682794,5.10879 -3.613989,2.47712 -7.581146,4.3429 -11.394989,6.47745 -2.916386,1.26876 -5.357352,3.17516 -7.718184,5.26324 -3.073362,2.51751 -5.682461,5.54436 -8.184602,8.61446 -2.046368,2.78273 -3.839755,5.75618 -5.143562,8.95809 -1.131073,3.28682 -1.585322,6.75407 -2.265479,10.15099 -0.767579,3.95921 -1.642302,7.90065 -2.576783,11.8238 -0.679971,3.05708 -1.373047,6.11086 -2.065732,9.16511 -0.645157,2.80322 -1.566155,5.52467 -2.423309,8.26628 -0.665506,2.99805 -1.592967,5.93289 -2.166896,8.95056 -0.373767,2.73619 -0.618006,5.49367 -0.828236,8.24749 -0.272309,3.20597 -1.010727,6.33008 -1.226376,9.53886 -0.187203,5.13049 -0.404202,10.26549 -0.284734,15.39968 0.269872,4.47192 0.746951,8.92571 0.951094,13.40182 0.05871,3.16449 0.193116,6.32679 0.256214,9.49087 0.11738,4.7065 0.05766,9.41381 -0.03933,14.11991 -0.05227,2.5718 -0.08251,5.1439 -0.0896,7.71621 -0.01733,1.85497 -0.04524,3.70933 -0.0127,5.56421 -0.07358,2.99968 0.16203,5.96789 0.553956,8.93839 0.934081,5.49441 2.320542,10.89812 3.791672,16.26935 1.950085,6.48036 4.056202,12.91343 6.365651,19.27445 2.012554,5.7359 4.05596,11.46007 6.198442,17.14881 1.782263,4.46372 2.930091,9.12137 4.101707,13.76898 1.443587,5.12869 3.001315,10.23195 4.62005,15.30948 1.418192,4.68138 3.052951,9.28778 4.801167,13.85484 1.564362,4.34069 2.834478,8.77434 4.388321,13.11808 1.602984,4.26843 3.537713,8.39143 5.557789,12.47413 1.122786,2.0008 1.964212,4.13855 3.016661,6.17276 1.556849,2.69907 3.563302,5.08156 5.702602,7.33102 1.7091,1.57459 3.56148,3.00237 5.4458,4.36222 4.70627,3.35471 9.82973,5.70125 14.87183,8.7873 4.00254,2.44977 -8.12782,-4.69316 -12.19712,-7.03037 -0.36973,-0.21236 0.7158,0.46454 1.05821,0.71862 0.96793,0.71321 2.04501,1.271 2.96519,2.04544 4.8808,3.82314 10.41909,6.82662 16.14286,9.17738 0.99287,0.38278 2.04374,0.51696 3.04632,0.86068 0,0 -11.80566,-9.11141 -11.80566,-9.11141 v 0 c -1.00605,-0.25736 -2.00348,-0.54615 -2.94285,-0.99886 -1.0043,-0.4495 -0.3874,-0.15758 -1.27577,-0.61068 -0.19036,-0.0971 -0.75719,-0.39591 -0.57266,-0.28816 22.18256,12.95298 15.39598,9.35426 11.32185,6.50886 -1.54929,-1.04156 0.72914,0.53475 -0.85092,-0.72018 -0.66458,-0.52783 -1.42856,-0.90003 -2.11041,-1.4063 -0.3693,-0.2269 -0.67697,-0.5463 -1.05009,-0.76684 -6.35921,-3.75871 -27.733827,-16.06109 -1.26598,-0.7241 0.53167,0.30809 -2.25859,-1.34938 -1.5207,-1.04201 -1.99974,-1.20874 -3.73902,-2.7771 -5.63894,-4.13247 -2.21978,-2.04469 -4.18325,-4.34056 -5.80416,-6.89064 -1.13569,-2.03598 -1.92739,-4.23671 -3.17747,-6.21396 -2.13265,-4.03062 -4.21807,-8.08763 -5.81196,-12.37076 -1.48894,-4.37356 -2.888183,-8.77373 -4.35387,-13.15471 -1.773398,-4.54205 -3.485603,-9.10444 -4.831199,-13.79513 -1.746246,-4.98766 -3.360016,-10.02999 -4.564685,-15.17841 -1.289517,-4.69332 -2.46249,-9.41959 -4.199772,-13.97767 -2.148913,-5.74913 -4.455752,-11.43955 -6.469096,-17.23762 -2.1216,-6.36704 -4.405964,-12.68099 -6.278113,-19.12863 -1.451214,-5.246 -2.716155,-10.54157 -3.572308,-15.92062 -0.301687,-2.89091 -0.63222,-5.76426 -0.423218,-8.67866 0.03317,-1.85903 0.0037,-3.71757 -0.01236,-5.5767 -0.0063,-2.60123 -0.03501,-5.20227 -0.08272,-7.80308 -0.08853,-4.72042 -0.14105,-9.44174 -0.03296,-14.16247 0.04661,-3.18009 0.173834,-6.35947 -0.158636,-9.53184 -0.315613,-4.4866 -0.725133,-8.96208 -1.135857,-13.44041 -0.130212,-5.05946 -0.05589,-10.13277 0.348189,-15.17931 0.369438,-3.17524 0.98473,-6.31029 1.34079,-9.48754 0.258614,-2.70505 0.519768,-5.40719 0.792406,-8.10961 0.514278,-2.97516 1.355986,-5.87162 2.055278,-8.80647 0.861883,-2.78048 1.862471,-5.51697 2.484952,-8.36814 0.681576,-3.06119 1.351004,-6.12473 2.024525,-9.18763 0.8378,-3.96658 1.649214,-7.93908 2.452467,-11.91303 0.725014,-3.29099 1.322447,-6.6254 2.395659,-9.82575 1.073984,-3.13376 2.740714,-6.00729 4.699379,-8.67338 2.43507,-3.05152 5.134936,-5.8538 8.168515,-8.32082 2.310481,-1.96732 4.779658,-3.67303 7.482064,-5.06933 3.80823,-2.19626 7.75432,-4.14762 11.43089,-6.57036 2.61895,-1.67688 5.28925,-3.27085 7.85464,-5.02951 2.46902,-1.66693 4.9403,-3.33432 7.66668,-4.56569 4.47775,-2.11913 9.05115,-4.01081 13.82047,-5.3817 4.61214,-1.42711 9.2753,-2.72427 14.04152,-3.52996 4.93096,-0.82069 9.88004,-1.53092 14.86412,-1.94429 4.96212,-0.44402 9.88345,-1.21917 14.85298,-1.57432 7.89613,-0.43273 15.79977,-0.73568 23.70561,-0.92028 12.15272,-0.0862 24.30595,-0.0614 36.45877,-0.1478 13.11022,0.002 26.22004,0.0552 39.32976,0.15346 9.15769,0.0563 18.31496,0.17455 27.46681,0.52814 5.08782,0.20353 10.17206,0.47352 15.26616,0.38688 4.38564,-0.004 8.77122,-0.0384 13.1564,-0.10158 7.64055,-0.0691 15.28184,-0.0683 22.92254,-0.12877 8.56223,-0.0296 17.1221,0.06 25.68331,0.17501 4.64008,0.0178 9.28016,0.0204 13.92007,0.0652 3.59958,-0.006 7.19913,-0.0381 10.79869,-0.003 3.12765,0.0219 6.25734,-0.0173 9.38238,0.13921 4.94726,0.23729 9.88823,0.64048 14.79326,1.34152 1.37938,0.21403 4.33003,0.63245 5.77736,0.99503 0.61612,0.15434 2.34423,0.94311 1.80726,0.60386 -20.37408,-12.87153 -14.21103,-8.72842 -10.1513,-5.75878 1.39676,0.88898 2.6814,1.94656 3.69046,3.25678 0.49741,0.46025 0.71665,0.93574 1.09188,1.48932 1.0634,1.56883 -0.22394,-0.49692 0.98971,1.18879 0.20035,0.27828 0.35577,0.58631 0.53365,0.87946 1.45594,2.95296 3.25981,5.72372 4.6474,8.71483 1.6856,3.61395 2.77001,7.40966 3.49127,11.33291 0.74073,5.52152 1.11449,11.08646 1.01616,16.66026 -0.0287,5.92681 -0.14858,11.85367 -0.33658,17.77741 -0.29676,6.24516 -0.81266,12.47612 -1.39811,18.70029 -0.68662,5.79429 -1.42254,11.58264 -1.99016,17.39049 -0.56189,4.89858 -0.86042,9.83051 -1.69403,14.69421 -0.97124,5.20474 -2.15555,10.39001 -2.3821,15.70058 -0.3506,6.77468 -0.8159,13.5665 -0.35123,20.34835 0.21125,2.44543 0.36303,4.53519 0.69084,6.97228 0.68481,5.09116 1.8584,10.09882 2.80294,15.14355 0.87272,4.88351 1.65178,9.77019 2.11581,14.71328 0.38851,4.13868 0.43483,6.31423 0.58126,10.44863 0.0564,1.59374 0.10358,3.18778 0.15537,4.78167 0.30464,7.34131 0.6705,14.67851 0.44511,22.0286 -0.0525,5.15586 -0.0456,10.31059 -0.0174,15.46664 -0.0534,5.32521 -0.16902,10.65436 -0.55119,15.96738 -0.67933,7.66174 -1.69206,15.30965 -3.78124,22.732 -1.45423,4.75508 -2.99132,9.58191 -6.43564,13.31703 -2.9767,3.37105 -6.29873,6.43349 -9.62765,9.4513 -1.9693,1.82724 -3.9786,3.60115 -6.39573,4.82956 -2.01189,1.1123 -4.16185,1.92408 -6.32649,2.68926 -3.1027,1.03699 -6.27658,1.84499 -9.43101,2.70785 -4.78677,1.00397 -9.64223,1.67461 -14.36983,2.96111 -6.34091,1.36012 -12.71057,2.56102 -19.05506,3.89903 -2.66603,0.77264 -5.20945,1.91583 -7.94282,2.46158 -5.07274,1.05573 -10.23113,1.46812 -15.37269,2.05252 -6.40779,0.72753 -12.83915,1.23414 -19.21342,2.23743 -6.74315,0.8933 -13.54212,1.5984 -20.10683,3.45659 -8.30043,2.07033 -16.68687,3.72175 -25.03388,5.58787 -9.25323,2.09748 -18.46446,4.39809 -27.79792,6.12443 -9.25271,1.48732 -18.5631,2.74474 -27.96083,2.56965 -8.94164,0.029 -17.87798,-0.0812 -26.81738,-0.2684 -10.03288,-0.15647 -20.05688,-0.60742 -30.0612,-1.3939 -7.7379,-0.52708 -15.50217,-0.92732 -23.15964,-2.23491 -6.07875,-1.05816 -12.14997,-2.15586 -18.21078,-3.31288 -6.19307,-1.30752 -12.38981,-2.65852 -18.34815,-4.84058 -2.83963,-1.11437 -2.83786,-1.05363 -5.53259,-2.33994 -4.93074,-2.35366 -17.683725,-9.72564 3.5002,2.4374 -0.91767,-0.59491 -2.1451,-1.36227 -3.03291,-2.03754 -1.49855,-1.13979 -2.69885,-2.60414 -4.16061,-3.78918 z" /><path
       style="fill:#ff6600"
       id="path2"
       d="m 77.523291,188.13784 c 11.742009,0.9549 23.490359,1.78492 35.253129,2.44639 13.21523,0.85229 26.46393,0.64997 39.69849,0.79768 3.6298,-0.0975 7.26162,0.22615 10.89156,0.14535 1.3215,-0.0294 9.42202,-0.55333 10.7361,-0.6367 7.55326,-0.47921 3.49258,-0.24652 10.91087,-0.63398 10.64881,-0.52024 21.31049,-0.67622 31.96788,-0.928 7.38899,-0.0153 14.76279,-0.33772 22.14143,-0.67778 9.23041,-0.34262 18.46878,-0.40905 27.70465,-0.44397 9.90422,-0.0434 19.80847,-0.0318 29.71269,-0.004 8.08804,0.0574 16.17528,0.0919 24.26347,0.0544 8.27777,0.0335 16.54868,-0.34566 24.82191,-0.54874 9.21816,-0.0509 18.42406,-0.48059 27.62988,-0.91079 4.67777,-0.28162 9.37038,-0.18529 14.04753,-0.46888 0.91488,-0.0555 5.08593,-0.40925 6.02312,-0.48757 7.05634,-0.51211 14.12675,-0.84163 21.19542,-1.13609 6.20168,-0.2044 12.39595,-0.57467 18.59802,-0.77315 3.55084,-0.0314 7.09447,-0.53615 10.58277,-1.17731 3.98588,-0.86879 8.03203,-1.36683 12.05791,-2.00364 2.56282,-0.46343 5.05036,-1.17807 7.45924,-2.15458 0,0 -12.37735,-8.27227 -12.37735,-8.27227 v 0 c -2.2573,0.95017 -4.63553,1.55775 -7.03546,2.03117 -4.05109,0.6681 -8.11113,1.28188 -12.16051,1.96099 -3.4085,0.58832 -6.84331,1.05589 -10.30606,1.1373 -6.09128,0.35038 -12.17515,0.84915 -18.27644,1.00234 -7.13408,0.32041 -14.27339,0.56899 -21.39727,1.06176 -6.60087,0.55286 -13.21089,0.80043 -19.82866,1.07197 -9.13024,0.49372 -18.26032,1.08365 -27.40996,1.01151 -3.1204,0.0279 -6.24137,0.0188 -9.3612,0.0849 -5.20345,0.11022 -10.40405,0.49126 -15.61226,0.32512 -8.04234,-0.0382 -16.08379,-0.009 -24.126,0.0453 -9.89212,0.0238 -19.78423,0.0246 -29.67635,0.0381 -9.32168,0.0424 -18.64426,0.064 -27.96342,0.31271 -7.29398,0.2007 -14.58052,0.58988 -21.8722,0.85974 -10.64275,0.3775 -21.29597,0.39127 -31.93008,1.00076 -10.73026,0.65166 -21.46044,1.3847 -32.21836,1.25506 -13.19831,0.0309 -26.39271,-0.22717 -39.57954,-0.79296 -12.150834,-0.6385 -24.325423,-1.44598 -36.34014,-3.44781 z" /><path
       style="fill:#ff6600"
       id="path3"
       d="m 382.91796,75.036506 c 1.26265,5.484674 1.57672,11.144655 1.82441,16.752306 0.22738,4.871034 0.29424,9.738428 0.11259,14.610798 -0.0605,5.19735 -0.53337,10.37307 -0.852,15.55755 -0.21426,3.04881 -0.3762,6.10071 -0.47977,9.15523 -0.01,2.77591 -0.0609,5.54385 -0.38808,8.30307 -0.0894,0.40646 -0.17875,0.81292 -0.26812,1.21938 0,0 13.01707,6.97086 13.01707,6.97086 v 0 c 0.0896,-0.45793 0.17919,-0.91586 0.26879,-1.37379 0.29252,-2.77641 0.57258,-5.57434 0.58597,-8.36394 -0.0229,-3.08807 0.008,-6.17663 0.13409,-9.26255 0.26119,-5.20061 0.64845,-10.39412 0.82102,-15.59921 0.21004,-4.91473 0.29181,-9.83707 -0.0715,-14.748306 -0.39834,-5.57593 -0.87794,-11.144724 -1.29464,-16.718886 z" /><path
       style="fill:#ff6600"
       id="path4"
       d="m 284.15168,71.50743 c 1.05988,5.118218 1.57427,10.327753 2.23992,15.506785 0.63648,5.850176 0.99801,11.726979 1.4116,17.596455 0.32684,3.61098 0.12164,7.22057 -0.40334,10.799 -0.41231,2.3929 -0.95365,4.76103 -1.43489,7.14164 0,0 12.99504,6.95747 12.99504,6.95747 v 0 c 0.50575,-2.40925 1.0085,-4.82322 1.40338,-7.25262 0.54829,-3.68923 0.89015,-7.44781 0.4232,-11.16632 -0.57399,-5.91932 -1.14118,-11.837401 -1.65233,-17.762677 -0.4944,-5.070525 -1.18174,-10.119183 -1.58026,-15.19953 z" /><path
       style="fill:#ff6600"
       id="path5"
       d="m 193.96228,68.613751 c -0.57008,4.681094 -0.67045,9.402923 -0.83831,14.111026 -0.16282,5.438854 -0.15363,10.880787 -0.19449,16.321459 0.0376,4.731434 0.0204,9.348944 -0.49664,14.057314 -0.31268,2.51404 -0.50042,5.02629 -1.38227,7.41281 -0.85391,1.45012 -1.79599,2.84959 -2.70394,4.26833 -0.13333,0.22529 -0.26666,0.45058 -0.39998,0.67587 0,0 12.91652,7.46018 12.91652,7.46018 v 0 c 0.12057,-0.21282 0.24114,-0.42563 0.36171,-0.63845 0.93098,-1.51515 1.96303,-2.96751 2.80634,-4.53304 0.28546,-0.70111 0.50933,-1.16635 0.67574,-1.9075 0.4409,-1.96356 0.28458,-4.02606 0.61473,-6.00561 0.44422,-4.73838 0.63018,-9.47459 0.46863,-14.23491 -0.0268,-5.43638 -0.009,-10.873096 0.12117,-16.308277 0.13406,-4.533619 0.229,-9.122557 1.19612,-13.570476 z" /><path
       style="fill:#ff6600"
       id="path6"
       d="m 157.6907,277.11031 c 16.07558,-0.80283 32.15163,-1.59927 48.2267,-2.41759 10.43419,-0.49514 20.89174,-0.83696 31.29594,-1.82339 5.01984,-0.47594 6.94842,-0.80655 11.9142,-1.50951 10.64404,-1.36583 21.24543,-3.0353 31.92726,-4.08544 11.84155,-0.97163 23.7306,-1.07236 35.60465,-1.08091 10.35943,0.059 20.71896,0.0508 31.07709,0.23857 4.56076,0.15746 9.12356,0.11108 13.68579,0.15959 0.53364,0.007 1.06729,0.0139 1.60093,0.0209 0,0 -11.89226,-8.64084 -11.89226,-8.64084 v 0 c -0.51482,0.007 -1.02965,0.0132 -1.54447,0.0199 -4.42888,0.0442 -8.8582,-0.0137 -13.28591,0.12925 -10.14371,0.16242 -20.28861,0.11226 -30.43274,0.24038 -12.04324,0.11251 -24.12175,-0.16917 -36.13132,0.86822 -10.59605,1.16682 -21.09512,3.05362 -31.67985,4.32207 -14.08345,1.98701 -28.2472,3.29102 -42.47023,3.71622 -16.48625,0.85708 -32.99699,1.94348 -49.51319,1.40207 z" /><path
       style="fill:#ff6600"
       id="path7"
       d="m 196.82341,345.10619 c 1.141,-0.27498 2.27265,-0.59217 3.42301,-0.82495 15.7256,-3.18217 31.78343,-4.39887 47.71668,-6.06275 13.76272,-1.6298 27.53608,-3.16502 41.29615,-4.81707 1.28053,-0.17655 2.56223,-0.34473 3.84158,-0.52965 3.62589,-0.52408 3.82493,-0.63804 7.53865,-1.04282 4.46411,-0.48657 8.95043,-0.7082 13.43053,-0.98803 7.52583,-0.50411 14.94182,-1.87954 22.39228,-2.97999 3.84977,-0.41464 7.60921,-1.35701 11.43549,-1.91746 0,0 -12.066,-8.46584 -12.066,-8.46584 v 0 c -3.70256,0.69131 -7.36696,1.57979 -11.0922,2.15467 -7.28037,1.32301 -14.59021,2.49758 -21.97053,3.10771 -8.32492,0.54439 -16.68029,0.93774 -24.87296,2.6463 -13.33783,2.17445 -26.76666,3.70572 -40.14774,5.5848 -17.64314,2.14528 -35.34109,3.7782 -53.01122,5.67242 z" /></g></svg>
