<?xml version="1.0" encoding="UTF-8" standalone="no"?>
<!-- Created with Inkscape (http://www.inkscape.org/) -->

<svg
   width="512"
   height="512"
   viewBox="0 0 512 512"
   version="1.1"
   id="svg1"
   xml:space="preserve"
   inkscape:version="1.4.2 (f4327f4, 2025-05-13)"
   sodipodi:docname="video.svg"
   xmlns:inkscape="http://www.inkscape.org/namespaces/inkscape"
   xmlns:sodipodi="http://sodipodi.sourceforge.net/DTD/sodipodi-0.dtd"
   xmlns="http://www.w3.org/2000/svg"
   xmlns:svg="http://www.w3.org/2000/svg"><sodipodi:namedview
     id="namedview1"
     pagecolor="#ffffff"
     bordercolor="#000000"
     borderopacity="0.25"
     inkscape:showpageshadow="2"
     inkscape:pageopacity="0.0"
     inkscape:pagecheckerboard="0"
     inkscape:deskcolor="#d1d1d1"
     inkscape:document-units="px"
     inkscape:zoom="1.5097656"
     inkscape:cx="255.66882"
     inkscape:cy="256"
     inkscape:window-width="1920"
     inkscape:window-height="991"
     inkscape:window-x="-9"
     inkscape:window-y="-9"
     inkscape:window-maximized="1"
     inkscape:current-layer="layer1" /><defs
     id="defs1" /><g
     inkscape:label="Layer 1"
     inkscape:groupmode="layer"
     id="layer1"><path
       style="fill:#ff6600"
       id="path1"
       d="m 65.67561,362.32579 c 5.925686,0.5436 11.754866,1.68518 17.557389,2.96251 4.767475,0.95663 9.486198,2.20241 14.306255,2.87267 5.172446,0.28046 10.332856,0.76524 15.461006,1.49463 5.38932,0.68721 10.72357,1.70752 16.11737,2.36689 3.57891,0.41507 7.16733,0.68672 10.76453,0.86616 7.2233,0.39376 14.44387,0.59052 21.67673,0.68383 8.42517,0.12638 16.8512,0.1001 25.27678,0.18808 5.77777,0.1865 11.55286,0.0465 17.32714,-0.16317 6.49476,-0.27884 12.9912,-0.43728 19.49186,-0.44681 4.35067,0.14556 8.70399,-0.24077 12.99186,-0.96164 4.83818,-1.30691 9.88553,-1.38007 14.86189,-1.5544 5.65628,-0.11215 11.31454,-0.13598 16.97189,-0.13234 0.83335,0.005 1.6667,0.009 2.50004,0.0152 1.85127,0.0137 2.57803,0.0632 4.40357,-0.0675 2.22347,-0.15913 4.4247,-0.55622 6.62829,-0.87659 4.33204,-0.51199 8.61529,-1.37178 12.87238,-2.31021 4.67634,-0.83932 9.38717,-1.46881 14.08672,-2.16675 2.05106,-0.57945 4.19467,-0.68615 6.26604,-1.13537 3.70208,-1.07595 7.49598,-1.7453 11.27871,-2.46205 4.70913,-0.73132 9.2794,-2.06351 13.92135,-3.09817 3.84864,-1.26624 7.5901,-2.82038 11.36637,-4.27469 2.83861,-1.40071 5.60616,-2.93888 8.46361,-4.30162 2.04523,-0.87696 4.04606,-1.86743 6.11325,-2.69315 1.82272,-0.73373 3.60678,-1.53832 5.19996,-2.69569 1.80033,-1.335 3.53092,-2.76013 5.29476,-4.1432 2.07231,-1.09707 2.62149,-3.00245 3.01403,-5.16782 0.30951,-2.13814 0.33842,-4.30436 0.31401,-6.46065 -0.0366,-2.75688 -0.0661,-5.51336 -0.0641,-8.27048 4.6e-4,-2.82581 0.2846,-5.64134 0.45306,-8.46013 0.27119,-2.66656 0.13728,-5.32405 -0.0681,-7.98681 -0.47587,-4.64925 -0.79946,-9.30546 -0.9587,-13.97638 -0.16659,-3.82419 -0.0852,-7.64056 0.14048,-11.4586 0.23996,-2.74253 0.3381,-5.49183 0.42597,-8.24232 0.0444,-2.98642 -0.0102,-5.97297 -0.0503,-8.95909 0.0862,-3.79857 -0.0713,-7.58691 -0.26551,-11.37893 -0.16081,-3.09786 -0.28705,-6.19759 -0.3697,-9.29851 -0.0669,-3.73973 -0.024,-7.47983 -0.0187,-11.21984 -0.063,-3.82975 -0.0114,-7.65978 0.005,-11.48957 0.0262,-2.73732 0.0398,-5.47481 0.0763,-8.21203 0.0266,-2.14475 0.0501,-4.28926 -0.0862,-6.4303 -0.34204,-3.62566 -0.51422,-7.2632 -0.59906,-10.90302 -0.0912,-4.14474 -0.12966,-8.28917 -0.0746,-12.43497 -0.0117,-2.59391 0.18042,-5.18816 0.0374,-7.77959 -0.38737,-2.65094 -0.76373,-5.30481 -1.211,-7.94657 -0.31674,-1.96662 -0.70551,-3.92423 -1.23752,-5.84435 -0.5439,-1.97021 -1.40302,-3.8337 -2.39017,-5.61623 -1.65563,-3.02944 -3.49727,-5.94886 -5.44568,-8.79711 -1.66839,-2.35591 -3.75131,-4.35833 -5.90881,-6.25784 -5.20295,-3.88671 -1.19556,-0.95347 -14.74729,-8.72038 -0.38344,-0.21976 -0.78072,-0.41729 -1.18858,-0.58751 -1.27432,-0.53181 -2.65248,-0.85197 -3.97193,-1.25 -3.20618,-0.69179 -6.43086,-1.30997 -9.67627,-1.78721 -3.56861,-0.6661 -7.13817,-1.33201 -10.72234,-1.91417 -5.0981,-0.60669 -10.22299,-0.88076 -15.33513,-1.31592 -5.8954,-0.62546 -11.80318,-0.92252 -17.72654,-1.0624 -4.87115,-0.31113 -9.7578,-0.41707 -14.62028,-0.85119 -4.79297,-0.28702 -9.59704,-0.4716 -14.39882,-0.55192 -5.37607,0.0846 -10.73912,-0.31389 -16.11033,-0.4385 -6.89181,-0.10471 -13.78527,-0.16102 -20.67801,-0.20495 -5.24887,-0.002 -10.49727,-0.0888 -15.74601,-0.10337 -5.98619,0.13675 -11.97473,0.0926 -17.96186,0.0599 -5.70478,-0.0299 -11.40796,7.4e-4 -17.11227,0.0447 -6.71623,-0.0551 -13.43095,0.004 -20.14686,0.0439 -5.72822,-0.0215 -11.45628,-0.0852 -17.18421,-0.14601 -4.16948,-0.21981 -8.29702,0.14721 -12.42579,0.68332 -4.69485,0.79916 -9.44098,1.23273 -14.12745,2.07523 -4.71558,0.71017 -9.412699,1.53272 -14.119992,2.2939 -4.562871,0.6392 -9.068254,1.611 -13.525701,2.76987 -4.069591,1.16921 -8.195677,2.14068 -12.245916,3.37551 -3.637857,1.33816 -7.373909,2.37256 -11.084119,3.48232 -2.028665,0.62263 -4.144372,0.88119 -6.130216,1.63997 -2.61091,0.65456 -4.832919,2.04726 -6.877765,3.76387 -2.055339,1.75365 -3.611657,3.97136 -5.24173,6.10148 -1.629522,2.28479 -2.43681,5.00033 -3.121185,7.68857 -0.55319,2.20477 -0.585098,4.47445 -0.567928,6.73209 0.04387,2.93255 -0.274953,5.85437 -0.443999,8.77966 -0.103798,3.66003 -0.204436,7.32426 -0.02873,10.98259 0.254704,4.87693 0.766122,9.73182 0.982955,14.61194 0.0091,3.61443 0.29765,7.20558 0.856739,10.7742 0.614944,4.21642 1.62652,8.35717 2.376881,12.54917 0.50882,2.76613 0.770671,5.56205 0.876438,8.36959 0.0746,3.26523 0.104245,6.53146 0.112621,9.79759 0.0089,3.7052 -0.06736,7.41032 0.0015,11.11498 0.296804,5.9124 0.951299,11.80287 1.389625,17.70721 0.213896,4.14818 0.752506,8.26767 1.22712,12.39083 0.222108,4.77738 1.05075,9.46702 2.031978,14.13791 0.713473,4.15473 1.703091,8.24743 2.632517,12.356 0.705278,2.97767 1.01655,6.01673 1.171011,9.06575 0.0051,2.54988 0.07484,5.07816 0.379793,7.61101 0.445034,3.2315 0.591099,6.49453 1.126173,9.71266 0.415668,2.58363 1.281802,5.05907 1.835803,7.61028 0.560511,2.69556 0.557335,5.45089 0.710287,8.18575 0.06362,1.89769 0.671438,3.55604 1.612076,5.17639 0.86018,1.51795 1.957237,2.87225 3.025831,4.24417 0.692084,0.745 1.34226,1.53875 1.861451,2.41317 0,0 13.588594,6.22671 13.588594,6.22671 v 0 c -0.358006,-1.09553 -0.936781,-1.99733 -1.692961,-2.86946 -1.177768,-1.08994 -2.29247,-2.69812 -3.192472,-4.02526 -0.957693,-1.40032 -1.790285,-2.83018 -1.920013,-4.56615 -0.412571,-2.76217 -0.221692,-5.591 -0.731317,-8.34735 -0.450287,-2.58302 -1.264919,-5.049 -1.852081,-7.60143 -0.649418,-3.18185 -0.822525,-6.43358 -1.259762,-9.64854 -0.214227,-2.49368 -0.217295,-4.98032 -0.292185,-7.4806 -0.159929,-3.15308 -0.488963,-6.30021 -1.221091,-9.3778 -0.966449,-4.12798 -1.960838,-8.24922 -2.80756,-12.40417 -0.936245,-4.61254 -1.809511,-9.23311 -1.98253,-13.95114 -0.380451,-4.1631 -0.948743,-8.2997 -1.399268,-12.45448 -0.608021,-5.81602 -1.140095,-11.64215 -1.252336,-17.4927 0.07338,-3.69917 0.0015,-7.3991 0.02592,-11.0989 0.01946,-3.25746 0.09353,-6.51408 0.048,-9.77168 -0.0775,-2.9121 -0.27064,-5.81145 -0.9457,-8.65773 -0.828755,-4.15681 -1.728486,-8.30241 -2.371613,-12.49314 -0.545735,-3.54244 -0.837445,-7.1065 -1.001983,-10.68664 -0.327119,-4.8588 -0.714864,-9.71481 -0.987056,-14.57564 -0.05711,-3.59232 -0.02701,-7.18646 0.157772,-10.77524 0.14662,-2.94403 0.45552,-5.88017 0.492407,-8.82789 0.05922,-2.14708 0.06044,-4.30972 0.449919,-6.42957 0.527828,-2.52738 1.257374,-5.04761 2.824918,-7.14643 1.525407,-2.05681 3.010818,-4.17674 4.995279,-5.82827 2.022342,-1.57042 4.23447,-2.66929 6.742403,-3.24046 1.964579,-0.60835 3.978373,-1.04302 5.923996,-1.71611 3.689663,-1.16983 7.364197,-2.38543 11.07643,-3.48238 3.98234,-1.2132 7.963983,-2.44148 12.002494,-3.45569 4.468247,-1.08862 8.987858,-1.9087 13.530028,-2.62701 4.70817,-0.83011 9.42164,-1.62323 14.1592,-2.27109 4.6361,-0.75833 9.28142,-1.46989 13.93575,-2.10514 4.15371,-0.38492 8.30186,-0.51467 12.47297,-0.45222 5.59395,-0.0612 11.18805,-0.12506 16.78231,-0.146 6.75625,0.0394 13.51133,0.0991 20.26787,0.044 5.74508,0.0433 11.48901,0.0751 17.23452,0.044 6.03937,-0.0346 12.07998,-0.0769 18.11854,0.0534 5.16044,-0.0183 10.32056,-0.1099 15.48125,-0.0817 6.91025,0.008 13.82165,0.007 20.72749,0.2944 5.41205,0.24067 10.8249,0.47433 16.2429,0.51101 4.82327,0.11505 9.65009,0.21721 14.45497,0.69179 4.80516,0.29312 9.62411,0.36141 14.4314,0.62541 5.88807,0.17262 11.76943,0.53559 17.63309,1.10473 5.1965,0.48466 10.41756,0.80803 15.57513,1.62746 3.58958,0.59359 7.16056,1.28807 10.744,1.91377 3.23029,0.52406 6.46444,1.10632 9.61236,2.01164 1.31076,0.41849 2.58132,0.83991 3.81343,1.46244 0.39501,0.19959 1.54589,0.86235 1.16399,0.63869 -7.4035,-4.3358 -15.7825,-9.15767 -10.46879,-6.09841 2.27094,1.72281 4.35194,3.7129 6.13717,5.93738 2.05934,2.70359 3.88076,5.59911 5.48355,8.5944 0.87769,1.72225 1.78376,3.42401 2.41887,5.25427 0.48658,1.91576 1.1006,3.80875 1.36483,5.77622 0.50708,2.58306 0.86667,5.18765 1.26519,7.78981 0.22178,2.58419 0.0911,5.19031 0.19,7.78103 0.0616,4.15857 0.0198,8.31774 0.0832,12.47534 0.0812,3.62616 0.16116,7.25282 0.41818,10.872 0.11597,2.10651 0.0254,4.21558 0.0723,6.32466 0.0363,2.76283 0.0499,5.52591 0.0751,8.28885 0.0153,3.8304 0.0643,7.66107 -0.002,11.49137 0.003,3.74886 0.0407,7.49752 0.0336,11.24637 -0.013,3.12293 0.002,6.24378 0.3127,9.35528 0.28565,3.76698 0.42898,7.53448 0.34129,11.31337 -0.0394,2.9488 -0.0785,5.89758 -0.10911,8.84648 -0.0156,2.75697 -0.1161,5.51226 -0.25404,8.26575 -0.2223,3.89359 -0.38267,7.77698 -0.0396,11.67217 0.2232,4.62952 0.45103,9.25869 0.67423,13.88817 0.18882,2.60791 0.38672,5.20724 0.16935,7.82271 -0.14748,2.84646 -0.4886,5.68511 -0.49553,8.53406 0.0132,2.74352 0.003,5.48673 -0.0105,8.23026 -0.021,2.08134 0.0352,4.16979 -0.19867,6.24213 -0.33717,2.21567 -0.58352,2.95721 -2.493,4.21617 -1.71495,1.39195 -3.39942,2.82702 -5.26241,4.02285 -1.58606,0.97879 -3.24137,1.80266 -4.97764,2.48554 -2.07069,0.88866 -4.1421,1.78443 -6.15506,2.79782 -2.74331,1.46285 -5.45034,3.00962 -8.30355,4.25196 -3.66368,1.50956 -7.29447,3.15462 -11.13708,4.16804 -4.56624,1.12803 -9.11501,2.34196 -13.75933,3.12067 -3.90223,0.67793 -7.7966,1.37836 -11.67208,2.19644 -2.05408,0.32003 -4.08347,0.75276 -6.111,1.21106 -4.60735,0.86876 -9.22611,1.64713 -13.85881,2.37282 -4.30448,0.73867 -8.5787,1.66009 -12.91783,2.18591 -4.42535,0.60927 -8.85365,0.97947 -13.32836,0.82725 -5.60921,0.0206 -11.21893,0.0352 -16.82348,0.30174 -5.14037,0.19677 -10.35431,0.14883 -15.3732,1.41146 -4.1343,0.6494 -8.29759,1.10294 -12.49021,1.04999 -6.53263,0.11563 -13.0701,0.0816 -19.59647,0.42003 -5.7169,0.21823 -11.43155,0.0988 -17.15071,0.22398 -8.36784,0.0758 -16.73579,0.0336 -25.10302,-0.092 -7.38037,-0.17463 -14.76499,-0.46241 -22.12226,-1.08773 -3.55863,-0.26467 -7.11271,-0.59849 -10.66826,-0.90075 -5.34666,-0.64372 -10.64019,-1.63537 -15.98478,-2.29724 -5.209033,-0.69597 -10.437705,-1.12575 -15.663209,-1.66645 -4.717387,-0.75538 -9.385917,-1.78398 -14.053081,-2.79829 -5.926562,-1.25412 -11.911735,-2.11074 -17.884174,-3.10724 z" /><path
       style="fill:#ff6600"
       id="path2"
       d="m 151.92103,322.83382 c 3.78998,-0.4209 7.55587,-0.99059 11.31697,-1.61585 3.91066,-0.74681 7.88652,-0.8981 11.85541,-0.9983 5.68421,-0.0538 11.36809,-0.11222 17.05256,-0.0649 4.87178,0.0462 9.74328,0.0206 14.61513,0.064 3.74395,0.0615 7.48797,-0.001 11.23217,0.0239 3.52511,0.15623 7.03538,-0.13922 10.55065,-0.34483 3.71374,-0.19516 7.43247,-0.26779 11.15048,-0.32107 3.44563,-0.0265 6.89092,0.0277 10.33651,0.0239 3.51636,-0.0534 7.02396,-0.008 10.53489,0.18095 3.45194,0.44411 6.90763,0.79444 10.37997,1.02924 2.14668,0.0956 4.36541,-0.0339 6.47195,-0.48953 1.17425,-0.21069 2.30745,-0.61773 3.41964,-1.04157 0,0 -12.3269,-8.33692 -12.3269,-8.33692 v 0 c -1.07573,0.34203 -2.15271,0.68898 -3.27574,0.84298 -2.03992,0.26104 -4.09348,0.47956 -6.15145,0.28827 -3.42877,-0.2134 -6.83408,-0.65112 -10.25844,-0.9185 -3.56477,-0.18772 -7.12776,-0.2323 -10.6971,-0.20357 -3.40825,-0.006 -6.81609,0.048 -10.22419,0.0763 -3.74031,0.0219 -7.47901,0.0898 -11.21119,0.36004 -3.51083,0.18905 -7.0183,0.28876 -10.53471,0.25518 -3.72358,0.0253 -7.44694,-0.0382 -11.17029,0.0202 -4.82356,0.0391 -9.64664,0.005 -14.47018,0.0412 -5.69416,0.0422 -11.38874,-0.0512 -17.08193,0.0845 -4.07207,0.0806 -8.14702,0.0844 -12.12982,1.06476 -3.815,0.67447 -7.65859,1.14864 -11.53062,1.33843 z" /><path
       style="fill:#ff6600"
       id="path3"
       d="m 311.91145,204.2481 c -2.47026,0.14507 -4.95878,-0.144 -7.39985,0.28336 -2.68946,0.825 -5.16538,2.24474 -7.38008,3.96415 -2.23873,1.74326 -3.88463,3.80119 -5.62503,6.01636 -1.48663,2.39655 -3.15223,4.68609 -4.63128,7.08541 -1.17594,1.65175 -1.62655,3.57609 -1.88766,5.55109 -0.21917,1.84609 -0.19387,3.70532 -0.19499,5.56034 -0.0587,2.40318 0.0769,4.77212 0.48414,7.14063 0.31323,2.55524 1.02871,4.94309 2.35749,7.14583 1.25662,1.98405 3.01916,3.49617 4.90903,4.84438 5.7817,3.91141 11.72077,7.82509 18.38832,9.97343 2.5778,0.87678 5.25035,1.31101 7.96026,1.45151 2.21263,0.0479 4.44541,0.24511 6.64798,-0.0261 2.04248,-0.47378 4.02044,-1.18327 5.87517,-2.15921 1.31738,-0.74384 2.69047,-1.53251 3.77581,-2.6082 0.57372,-0.56863 1.05903,-1.22003 1.59131,-1.82763 1.46135,-1.53253 2.24515,-3.42122 2.96301,-5.36946 0.70528,-1.80265 1.31526,-3.62623 1.70847,-5.52297 0.28723,-1.43602 0.26182,-2.90373 0.49426,-4.34585 0.54512,-1.63416 0.80104,-3.31201 0.95015,-5.02285 0.19713,-2.65113 0.24198,-5.31541 -0.14188,-7.94831 -0.68249,-3.12049 -2.40944,-5.79995 -4.05728,-8.48013 -1.20993,-2.16674 -2.56901,-4.22106 -4.09776,-6.17465 -4.53336,-5.72947 -10.50137,-7.65027 -17.29431,-11.53839 -2.17387,-0.4957 -4.40582,-0.58839 -6.6261,-0.6454 0,0 11.99403,8.77613 11.99403,8.77613 v 0 c 2.11982,0.0893 4.29978,0.20304 6.24358,1.13902 -22.12618,-12.94186 -11.78681,-8.01726 -7.91312,-3.52765 1.58715,1.88009 3.04082,3.83712 4.18025,6.02626 1.67239,2.52636 3.43892,5.0495 4.33172,7.97638 0.57246,2.57371 0.36032,4.94328 0.22131,7.5474 -0.14381,1.66282 -0.37361,3.29914 -0.98097,4.86608 -0.2628,1.44529 -0.30002,2.88831 -0.44551,4.34887 -0.29894,1.83537 -0.86412,3.57714 -1.55001,5.30351 -0.69292,1.75723 -1.28942,3.5403 -2.64265,4.93039 -1.46638,1.61129 -3.03416,3.07009 -5.07744,3.93083 -1.79422,0.78177 -3.63905,1.49549 -5.60325,1.69077 -2.14429,0.0937 -4.29611,0.006 -6.43727,-0.12182 -2.61841,-0.27935 -5.19848,-0.78725 -7.67381,-1.71259 -0.48142,-0.18245 -0.96601,-0.35675 -1.44426,-0.54735 -4.897,-1.95159 -7.97809,-4.53651 10.74514,6.41983 0.23667,0.13849 -0.50653,-0.21539 -0.74036,-0.35864 -0.24818,-0.15204 -0.46603,-0.34878 -0.69905,-0.52317 -0.27919,-0.15941 -0.55838,-0.31881 -0.83758,-0.47822 -1.86581,-1.29144 -3.8433,-2.48552 -5.16433,-4.38587 -1.53523,-1.91519 -2.34331,-4.12656 -2.62149,-6.5697 -0.43764,-2.33896 -0.69223,-4.47874 -0.52765,-6.86994 -0.005,-1.80121 -0.007,-3.60568 0.11124,-5.40361 0.18729,-1.78867 0.51635,-3.50598 1.57309,-5.01074 1.38012,-2.38204 2.84526,-4.72559 4.39601,-6.99935 1.65945,-2.07365 3.43096,-4.02655 5.55066,-5.64243 2.04605,-1.57398 4.32672,-2.90387 6.90666,-3.33107 2.47233,-0.17517 4.95399,-0.0728 7.43031,-0.0336 z" /><path
       style="fill:#ff6600"
       id="path4"
       d="m 318.03458,212.71107 c 1.54822,-0.77074 3.221,-1.2122 4.83673,-1.81322 1.12891,-0.34826 2.17386,-0.90754 3.22756,-1.42939 0,0 -12.52298,-8.22704 -12.52298,-8.22704 v 0 c -0.99309,0.51861 -2.03889,0.94017 -3.08802,1.33088 -1.57839,0.61654 -3.1962,1.14146 -4.80005,1.68303 z" /><path
       style="fill:#ff6600"
       id="path5"
       d="m 233.75362,207.55987 c -5.16576,0.29058 -10.34396,0.18744 -15.51505,0.14534 -4.53216,0.0916 -8.69275,1.99789 -12.75406,3.82946 -2.62732,1.11355 -4.73967,2.78199 -6.42766,5.05906 -1.22229,1.82513 -2.0201,3.83166 -2.52823,5.95624 -0.54589,2.45993 -0.80358,4.97173 -0.97863,7.48179 -0.1342,2.17929 -0.14127,4.36184 -0.15436,6.54411 -0.21647,2.38965 0.42003,4.61717 1.27844,6.81829 0.88598,2.12717 2.07859,4.08473 3.54824,5.85268 1.22683,1.3171 2.45902,2.63216 3.71373,3.92264 2.1263,1.77208 4.55922,3.14274 6.91916,4.57564 6.38181,3.80804 12.62754,8.16888 19.86384,10.08178 1.93913,0.5126 2.36633,0.50416 4.40041,0.78145 3.79309,0.47646 7.60463,0.77203 11.40288,0.24031 2.18695,-0.37131 4.03248,-1.5694 6.01405,-2.45892 1.80454,-0.87931 3.55181,-1.89892 5.20336,-3.04109 1.47064,-1.21918 2.76721,-2.60883 3.93635,-4.11523 1.16065,-1.80573 2.00858,-3.8524 2.85868,-5.82862 1.34502,-2.99104 1.91902,-6.13115 2.06565,-9.38336 0.27661,-3.77971 -0.88481,-6.51936 -2.52873,-9.82101 -1.44498,-2.67251 -2.91093,-5.33629 -4.61639,-7.85289 -1.32109,-1.86897 -2.90981,-3.53005 -4.47214,-5.1965 -1.5596,-1.65076 -3.21995,-3.19774 -4.87246,-4.75335 -5.29651,-4.43671 -11.20505,-8.72268 -18.00076,-10.24074 -1.841,-0.35589 -3.61172,-0.93063 -5.48081,-1.14996 -0.23668,-0.0179 -0.47336,-0.0358 -0.71004,-0.0538 0,0 11.98513,8.90943 11.98513,8.90943 v 0 c 0.22235,0.0324 0.4447,0.0649 0.66704,0.0973 1.7708,0.3313 3.51013,0.81295 5.26287,1.22516 0.37413,0.13228 0.7566,0.24298 1.12239,0.39682 0.34346,0.14445 1.32172,0.68691 1.0015,0.49643 -20.72968,-12.33129 -13.8446,-8.60719 -9.6061,-5.27925 1.74334,1.44122 3.348,3.0444 4.94099,4.64999 0.7741,0.78428 1.46926,1.62324 2.22076,2.42193 0.80339,0.85385 1.73272,1.59901 2.38369,2.59623 1.83248,2.43657 3.32144,5.0807 4.84634,7.71649 1.51695,2.8977 3.01578,5.75829 2.80518,9.13576 -0.0513,3.05326 -0.59322,6.04129 -1.83282,8.85139 -0.87931,1.84233 -1.77063,3.72057 -2.86338,5.43738 -1.05117,1.40215 -2.20788,2.70666 -3.64918,3.72504 -1.61266,1.06426 -3.26965,2.07633 -5.03516,2.86885 -1.83206,0.88151 -3.64233,1.83716 -5.68701,2.12454 -3.65138,0.39502 -7.32217,0.10524 -10.94777,-0.42859 -2.15813,-0.41736 -4.21216,-0.90348 -6.28355,-1.64937 -0.67282,-0.24227 -2.60321,-1.15779 -2.00244,-0.7699 1.24978,0.80692 15.53399,9.23896 9.29379,5.55409 -2.28141,-1.38352 -4.61418,-2.69778 -6.76924,-4.27251 -1.49375,-1.0096 -2.50147,-2.57819 -3.86822,-3.75027 -1.54211,-1.62846 -2.86213,-3.38495 -3.8148,-5.43226 -0.88861,-2.01455 -1.66726,-4.0159 -1.46818,-6.26156 -0.008,-2.16214 -0.007,-4.32578 0.0733,-6.48661 0.12541,-2.43574 0.30049,-4.88056 0.91425,-7.2512 0.39451,-1.93988 1.10626,-3.77183 2.20653,-5.42906 1.51335,-2.07322 3.53027,-3.47227 5.86062,-4.53592 3.88583,-1.82055 7.88482,-3.45503 12.25725,-3.41198 5.30476,-0.0442 10.61502,-0.1336 15.91515,0.14535 z" /><path
       style="fill:#ff6600"
       id="path6"
       d="m 148.56875,213.03969 c -2.00419,-1.08434 -4.15101,-1.79175 -6.38432,-2.19945 -3.47218,-0.37973 -7.00199,-0.69611 -10.4846,-0.33644 -3.37748,0.43068 -6.46492,1.78698 -9.51286,3.22699 -2.69806,1.27486 -5.00251,3.25342 -7.08402,5.36489 -1.80245,1.9757 -2.60443,4.5156 -3.24224,7.05467 -0.60864,2.74364 -0.4397,5.5652 -0.59821,8.35116 -0.25228,2.70129 -0.41782,5.40607 -0.53401,8.11612 -0.14255,2.3469 -0.13231,4.65366 0.32041,6.96253 0.42106,2.44251 1.76325,4.46105 3.23659,6.39144 1.51226,2.10695 3.53783,3.64372 5.66654,5.07132 6.8033,4.0696 13.53049,8.69094 21.1802,11.02436 2.93561,0.62431 5.98406,0.50673 8.97257,0.52719 2.9781,-0.0813 5.86382,-0.91044 8.46475,-2.33952 2.09904,-1.27422 4.04471,-2.81307 5.83441,-4.49195 2.0544,-1.88883 4.15705,-3.72006 6.0767,-5.74783 1.92933,-1.71436 3.14381,-3.95174 3.94865,-6.3691 0.7257,-2.94159 0.97845,-5.97456 1.02475,-8.9961 0.0635,-3.1182 0.0274,-6.24872 -0.55379,-9.31977 -0.40935,-2.19827 -1.29082,-4.23032 -2.39086,-6.16056 -1.68771,-2.36828 -4.02324,-4.18731 -6.22555,-6.05435 -2.19171,-1.92943 -4.45235,-3.77145 -6.85684,-5.42858 -5.47915,-4.37055 -11.27512,-7.94722 -18.02363,-9.14203 -1.15458,-0.19371 -2.29214,-0.31501 -3.45271,-0.16351 0,0 12.1028,8.7163 12.1028,8.7163 v 0 c 1.07311,0.0675 2.14175,0.19019 3.19267,0.42602 0.93977,0.22365 1.87807,0.45053 2.77402,0.82088 0.24973,0.10323 0.96357,0.4882 0.73075,0.35103 -15.10118,-8.89701 -15.65068,-9.24588 -11.11503,-6.44596 2.39988,1.72716 4.92375,3.29726 7.06337,5.36908 2.12002,1.79838 4.29782,3.56255 6.19729,5.59512 1.30927,1.67064 2.1649,3.65925 2.6999,5.70768 0.78834,2.94529 0.88179,5.97616 0.75721,9.01389 -0.0954,2.87814 -0.1226,5.78835 -0.84435,8.59592 -0.74332,2.23333 -1.92272,4.19947 -3.68066,5.79421 -1.85711,2.03611 -3.9041,3.87208 -6.00618,5.65258 -1.74387,1.56119 -3.57881,3.04575 -5.64763,4.15944 -2.46753,1.23859 -5.14997,1.88756 -7.92448,1.82128 -2.94969,-0.055 -5.96463,-0.0213 -8.79901,-0.95454 -1.33779,-0.46741 -2.64085,-0.98028 -3.93069,-1.57009 -0.53178,-0.24318 -2.08599,-1.05304 -1.58564,-0.75041 3.22099,1.94819 15.6686,9.17634 9.74406,5.70834 -2.11295,-1.31603 -4.21293,-2.65839 -5.82052,-4.59737 -1.39516,-1.76896 -2.90837,-3.508 -3.46611,-5.75089 -0.14446,-0.67862 -0.33204,-1.34878 -0.44522,-2.03332 -0.25342,-1.53265 -0.0391,-3.09612 -0.0708,-4.63855 0.0634,-2.70825 0.2307,-5.41168 0.45632,-8.11122 0.17156,-2.69856 0.0933,-5.4215 0.55322,-8.09574 0.48856,-2.31709 1.21629,-4.56055 2.81474,-6.37136 1.94789,-2.02287 4.19943,-3.76133 6.75593,-4.94978 2.91719,-1.37529 5.91817,-2.53511 9.16454,-2.81303 3.43987,-0.15018 6.91977,0.0568 10.29732,0.74678 2.21873,0.6186 4.32032,1.52008 6.38547,2.53672 z" /><path
       style="fill:#ff6600"
       id="path7"
       d="m 383.69438,204.26149 c 3.28212,-2.88544 7.22477,-4.88738 11.04313,-6.95767 5.0571,-2.58116 10.299,-4.76763 15.4593,-7.12782 3.98722,-1.71895 7.72286,-3.93811 11.60128,-5.87212 4.2126,-2.10065 5.22942,-2.44096 9.64229,-4.29506 6.77855,-2.81805 13.80275,-4.94413 21.02559,-6.23558 4.24896,-0.59965 8.45419,-1.43256 12.67533,-2.19532 3.24689,-0.52249 6.51338,-0.92015 9.77892,-1.31062 0.95936,-0.0977 1.23208,-0.27182 2.11186,0.17172 0.29358,0.14801 1.07437,0.75347 0.7854,0.59666 -3.94373,-2.14004 -7.73448,-4.56748 -11.759,-6.55142 -0.4619,-0.2277 0.67756,0.78189 0.94633,1.22116 0.31782,0.51942 0.53629,1.09343 0.80443,1.64015 1.2084,3.81033 2.00752,7.95245 1.60741,11.96988 -0.10502,1.0545 -0.33751,2.09239 -0.50626,3.13859 -0.31464,1.22432 -0.59071,2.4592 -0.94391,3.67295 -1.53848,5.28702 -0.9626,2.54807 -2.66747,7.89403 -1.52107,4.7696 -2.61455,9.59739 -3.58083,14.50254 -1.37691,7.96608 -2.25902,16.0141 -2.81341,24.07709 -0.30735,6.13116 -0.57875,12.2634 -0.8269,18.39718 -0.17497,4.64947 -0.24609,9.3006 -0.24377,13.95301 0.1468,3.86632 -0.0539,7.68199 -0.94581,11.44849 -0.57252,2.67406 -1.66043,5.18091 -2.7858,7.65834 -1.16293,2.41424 -2.19116,4.88942 -3.32487,7.31714 -0.89874,1.61511 -1.30621,4.01033 -2.50583,5.43554 -0.1788,0.21242 -0.43446,0.34585 -0.65169,0.51878 -2.3143,1.01852 -4.88003,1.08902 -7.36581,0.9707 -3.77921,-0.33925 -7.41443,-1.60182 -10.79398,-3.28467 -0.55825,-0.29885 -1.12047,-0.59041 -1.67477,-0.89654 -0.26347,-0.14552 -9.33025,-5.30993 -4.24468,-2.36836 19.48917,11.27282 6.78451,3.78859 2.65858,1.37683 -8.82794,-4.94734 -17.42986,-10.40256 -26.56274,-14.80705 -0.53432,-0.2694 -1.07567,-0.52529 -1.60296,-0.8082 -0.56847,-0.30501 -1.12007,-0.64051 -1.68333,-0.95504 -0.55075,-0.30754 -2.20535,-1.22575 -1.6586,-0.91115 3.51699,2.02371 7.01178,4.08763 10.56962,6.03864 0.78543,0.43071 -1.49987,-0.97985 -2.24663,-1.47457 -0.77579,-0.51395 -1.54733,-1.03429 -2.321,-1.55144 -3.62823,-2.3159 -6.87288,-5.11184 -9.85267,-8.20361 -1.92057,-1.86853 -3.52436,-4.00667 -5.15072,-6.12442 -0.85742,-0.99904 -1.46848,-2.12041 -1.90017,-3.35471 0,0 -13.57051,-6.26141 -13.57051,-6.26141 v 0 c 0.60475,1.26722 0.83439,2.70927 1.83913,3.77991 1.7298,2.14242 3.27557,4.44339 5.29993,6.33156 2.9944,3.22747 6.20554,6.22838 9.9431,8.59183 1.48327,0.98892 2.88523,2.10284 4.41438,3.01921 6.34356,3.80148 12.71871,7.70343 19.35708,11.01753 4.58557,2.28945 21.31538,11.44038 1.99266,0.62642 9.26891,5.36754 18.30484,11.16893 27.85156,16.03579 3.57209,1.49981 7.31843,2.71211 11.22139,2.84835 2.8264,-0.0363 5.69736,-0.17729 8.10438,-1.83578 0.29631,-0.30401 0.63398,-0.57259 0.88895,-0.91203 1.13365,-1.50921 1.61982,-3.91045 2.52938,-5.57075 1.08132,-2.45547 2.08825,-4.94325 3.33753,-7.32095 1.12916,-2.58119 2.22853,-5.18972 2.79447,-7.96365 0.96425,-3.98771 1.13852,-7.7133 0.98416,-11.81196 0.023,-4.66402 2.5e-4,-9.32849 0.0804,-13.99199 0.11699,-6.14293 0.47279,-12.27419 0.71158,-18.41255 0.36732,-8.07314 1.00011,-16.14831 2.29111,-24.1313 0.85945,-4.28432 1.00784,-5.49469 2.21423,-9.66737 1.58202,-5.47193 3.90717,-10.69292 5.4161,-16.18849 0.48403,-2.3142 0.9227,-3.81278 0.9563,-6.16266 0.0118,-0.82291 -0.12069,-1.64172 -0.20115,-2.46076 -0.23359,-2.37768 -0.54498,-4.75713 -1.16011,-7.0704 -0.0931,-0.26684 -0.97181,-3.03172 -1.37549,-3.31004 -4.36243,-3.00777 -8.96068,-5.66147 -13.52594,-8.35143 -0.30617,-0.1804 -0.68695,-0.19725 -1.04066,-0.23156 -0.82388,-0.0799 -1.48186,0.0607 -2.28882,0.17473 -3.21502,0.48189 -6.44956,0.83285 -9.63369,1.50093 -4.20374,0.79646 -8.43159,1.44899 -12.63197,2.25912 -7.05436,1.63276 -13.88914,3.96727 -20.50726,6.91601 -0.93855,0.38615 -9.04084,3.71063 -10.04347,4.1587 -3.9764,1.77703 -7.81876,3.86659 -11.77877,5.68138 -5.204,2.37475 -10.5272,4.49563 -15.59821,7.1544 -3.96906,2.15492 -7.94594,4.31453 -11.64622,6.91669 z" /></g></svg>
